{"glyphs":{"0":{"ha":929,"x_min":69,"x_max":860,"o":"m 464 -19 q 253 44 342 -19 q 117 226 164 107 q 69 510 69 344 l 69 510 q 117 794 69 675 q 253 976 164 913 q 464 1039 342 1039 l 464 1039 q 676 976 588 1039 q 813 794 765 913 q 860 510 860 675 l 860 510 q 813 226 860 344 q 676 44 765 107 q 464 -19 588 -19 l 464 -19 z m 464 164 q 613 250 560 164 q 665 510 665 336 l 665 510 q 613 769 665 683 q 464 856 560 856 l 464 856 q 316 769 368 856 q 264 510 264 683 l 264 510 q 316 250 264 336 q 464 164 368 164 l 464 164 z "},"1":{"ha":597,"x_min":42,"x_max":468,"o":"m 450 0 l 299 0 q 281 18 281 0 l 281 18 l 281 769 l 94 696 q 86 694 92 694 l 86 694 q 71 706 76 694 l 71 706 l 44 756 q 42 765 42 764 l 42 765 q 50 781 42 775 l 50 781 l 319 1011 q 342 1019 328 1019 l 342 1019 l 450 1019 q 468 1001 468 1019 l 468 1001 l 468 18 q 450 0 468 0 l 450 0 z "},"2":{"ha":856,"x_min":56,"x_max":783,"o":"m 765 0 l 96 0 q 78 18 78 0 l 78 18 l 78 64 q 86 86 78 76 l 86 86 l 338 369 q 476 533 429 472 q 540 639 522 594 q 558 729 558 683 l 558 729 q 518 822 558 788 q 410 856 478 856 l 410 856 q 306 822 350 856 q 238 722 261 788 l 238 722 q 215 710 232 706 l 215 710 l 74 749 q 61 771 56 753 l 61 771 q 195 968 101 897 q 419 1039 289 1039 l 419 1039 q 594 1003 518 1039 q 711 901 669 967 q 753 749 753 835 l 753 749 q 730 612 753 676 q 647 465 707 547 q 474 263 588 383 l 474 263 l 393 176 l 765 176 q 783 158 783 176 l 783 158 l 783 18 q 765 0 783 0 l 765 0 z "},"3":{"ha":858,"x_min":56,"x_max":789,"o":"m 419 -19 q 189 52 285 -19 q 57 250 93 124 l 57 250 l 56 256 q 71 272 56 268 l 71 272 l 211 310 l 217 311 q 233 297 229 311 l 233 297 q 419 164 282 164 l 419 164 q 547 204 500 164 q 594 311 594 244 l 594 311 q 544 413 594 376 q 408 449 494 449 l 408 449 l 365 449 q 347 467 347 449 l 347 467 l 347 590 q 365 608 347 608 l 365 608 l 408 608 q 524 642 479 608 q 568 728 568 675 l 568 728 q 525 819 568 783 q 415 856 482 856 l 415 856 q 308 820 351 856 q 242 722 264 785 l 242 722 q 219 710 236 706 l 219 710 l 79 747 q 65 769 61 751 l 65 769 q 195 967 101 896 q 419 1039 289 1039 l 419 1039 q 595 1003 517 1039 q 718 905 674 968 q 763 763 763 842 l 763 763 q 720 628 763 688 q 603 533 678 568 l 603 533 q 740 440 690 504 q 789 285 789 376 l 789 285 q 742 126 789 194 q 612 19 696 57 q 419 -19 528 -19 l 419 -19 z "},"4":{"ha":917,"x_min":36,"x_max":875,"o":"m 707 0 l 556 0 q 538 18 538 0 l 538 18 l 538 197 l 54 197 q 36 215 36 197 l 36 215 l 36 261 q 43 283 36 275 l 43 283 l 581 1008 q 603 1019 589 1019 l 603 1019 l 707 1019 q 725 1001 725 1019 l 725 1001 l 725 374 l 857 374 q 875 356 875 374 l 875 356 l 875 215 q 857 197 875 197 l 857 197 l 725 197 l 725 18 q 707 0 725 0 l 707 0 z m 538 694 l 306 374 l 538 374 l 538 694 z "},"5":{"ha":858,"x_min":67,"x_max":803,"o":"m 440 -19 q 205 53 303 -19 q 68 254 107 125 l 68 254 q 67 261 67 257 l 67 261 q 81 276 67 272 l 81 276 l 217 310 l 222 311 q 239 297 235 311 l 239 297 q 312 199 263 233 q 431 164 361 164 l 431 164 q 561 208 513 164 q 610 329 610 253 l 610 329 q 561 455 610 408 q 429 501 513 501 l 429 501 q 328 483 376 501 q 225 424 281 465 l 225 424 q 211 419 219 419 l 211 419 l 200 422 l 119 460 q 107 482 104 467 l 107 482 l 154 1003 q 172 1019 156 1019 l 172 1019 l 731 1019 q 749 1001 749 1019 l 749 1001 l 749 861 q 731 843 749 843 l 731 843 l 296 843 l 272 592 q 485 664 361 664 l 485 664 q 650 622 578 664 q 763 503 722 579 q 803 328 803 428 l 803 328 q 757 147 803 226 q 628 24 711 68 q 440 -19 546 -19 l 440 -19 z "},"6":{"ha":846,"x_min":54,"x_max":796,"o":"m 425 -19 q 232 26 317 -19 q 101 153 147 72 q 54 338 54 235 l 54 338 q 94 522 54 429 q 235 765 133 615 l 235 765 l 401 1008 q 424 1019 408 1019 l 424 1019 l 599 1019 q 613 1013 610 1019 q 610 997 617 1006 l 610 997 l 360 643 q 476 665 413 665 l 476 665 q 642 623 569 665 q 755 503 714 581 q 796 328 796 426 l 796 328 q 749 147 796 225 q 619 24 703 68 q 425 -19 535 -19 l 425 -19 z m 424 164 q 550 210 501 164 q 599 333 599 257 l 599 333 q 550 456 599 410 q 424 503 501 503 l 424 503 q 297 456 346 503 q 249 333 249 410 l 249 333 q 297 210 249 257 q 424 164 346 164 l 424 164 z "},"7":{"ha":807,"x_min":42,"x_max":760,"o":"m 343 0 l 169 0 q 156 6 160 0 q 156 21 151 11 l 156 21 l 515 843 l 60 843 q 42 861 42 843 l 42 861 l 42 1001 q 60 1019 42 1019 l 60 1019 l 742 1019 q 760 1001 760 1019 l 760 1001 l 760 954 q 756 932 760 943 l 756 932 l 364 14 q 343 0 357 0 l 343 0 z "},"8":{"ha":892,"x_min":63,"x_max":829,"o":"m 446 -19 q 246 19 333 -19 q 110 126 158 57 q 63 283 63 194 l 63 283 q 113 436 63 368 q 250 536 164 504 l 250 536 q 132 629 175 568 q 89 764 89 690 l 89 764 q 134 907 89 844 q 260 1004 179 969 q 446 1039 342 1039 l 446 1039 q 631 1004 550 1039 q 758 907 713 969 q 803 764 803 844 l 803 764 q 760 629 803 690 q 642 536 717 568 l 642 536 q 778 436 728 504 q 829 283 829 368 l 829 283 q 781 126 829 194 q 646 19 733 57 q 446 -19 558 -19 l 446 -19 z m 446 600 q 565 638 519 600 q 610 738 610 676 l 610 738 q 564 833 610 794 q 446 871 518 871 l 446 871 q 328 833 374 871 q 282 738 282 794 l 282 738 q 327 638 282 676 q 446 600 372 600 l 446 600 z m 446 149 q 584 193 531 149 q 638 307 638 238 l 638 307 q 584 417 638 374 q 446 460 531 460 l 446 460 q 308 417 361 460 q 254 307 254 374 l 254 307 q 308 193 254 238 q 446 149 361 149 l 446 149 z "},"9":{"ha":844,"x_min":49,"x_max":790,"o":"m 407 0 l 233 0 q 218 11 218 0 l 218 11 q 222 22 218 17 l 222 22 l 479 375 q 368 354 428 354 l 368 354 q 203 397 275 354 q 90 516 131 439 q 49 692 49 593 l 49 692 q 95 873 49 794 q 226 995 142 951 q 419 1039 310 1039 l 419 1039 q 613 993 528 1039 q 744 866 697 947 q 790 682 790 785 l 790 682 q 750 492 790 588 q 606 254 710 397 l 606 254 l 429 11 q 407 0 421 0 l 407 0 z m 421 517 q 547 563 499 517 q 596 686 596 610 l 596 686 q 547 809 596 763 q 421 856 499 856 l 421 856 q 294 809 343 856 q 246 686 246 763 l 246 686 q 294 563 246 610 q 421 517 343 517 l 421 517 z "},"\u0000":{"ha":0,"x_min":null,"x_max":null,"o":""},"\r":{"ha":306,"x_min":null,"x_max":null,"o":""}," ":{"ha":306,"x_min":null,"x_max":null,"o":""},"A":{"ha":1046,"x_min":26,"x_max":1017,"o":"m 217 0 l 44 0 q 31 6 35 0 q 31 21 26 11 l 31 21 l 438 1006 q 458 1019 443 1019 l 458 1019 l 588 1019 q 608 1006 603 1019 l 608 1006 l 1015 21 q 1017 13 1017 18 l 1017 13 q 1001 0 1017 0 l 1001 0 l 826 0 q 806 14 811 0 l 806 14 l 733 204 l 310 204 l 238 14 q 217 0 232 0 l 217 0 z m 521 764 l 375 378 l 667 378 l 521 764 z "},"B":{"ha":953,"x_min":111,"x_max":885,"o":"m 493 0 l 129 0 q 111 18 111 0 l 111 18 l 111 1001 q 129 1019 111 1019 l 129 1019 l 479 1019 q 744 948 656 1019 q 833 757 833 876 l 833 757 q 797 622 833 681 q 693 535 761 563 l 693 535 q 836 445 788 510 q 885 292 885 381 l 885 292 q 789 76 885 153 q 493 0 693 0 l 493 0 z m 472 844 l 299 844 l 299 608 l 472 608 q 597 638 553 608 q 642 726 642 668 l 642 726 q 597 814 642 783 q 472 844 553 844 l 472 844 z m 499 439 l 299 439 l 299 175 l 499 175 q 641 209 592 175 q 690 308 690 243 l 690 308 q 641 406 690 372 q 499 439 592 439 l 499 439 z "},"C":{"ha":1107,"x_min":78,"x_max":1040,"o":"m 575 -19 q 314 46 426 -19 q 140 231 201 111 q 78 510 78 351 l 78 510 q 142 788 78 668 q 319 974 206 908 q 578 1039 433 1039 l 578 1039 q 850 967 738 1039 q 1014 765 963 896 l 1014 765 q 1015 757 1015 763 l 1015 757 q 1003 742 1015 744 l 1003 742 l 854 700 l 849 699 q 832 711 836 699 l 832 711 q 731 818 796 781 q 581 856 667 856 l 581 856 q 354 762 436 856 q 272 510 272 668 l 272 510 q 355 258 272 351 q 581 164 438 164 l 581 164 q 751 211 681 164 q 854 353 821 258 l 854 353 q 876 365 860 369 l 876 365 l 1024 324 q 1036 306 1040 319 l 1036 306 q 875 69 994 157 q 575 -19 756 -19 l 575 -19 z "},"D":{"ha":1061,"x_min":111,"x_max":983,"o":"m 468 0 l 129 0 q 111 18 111 0 l 111 18 l 111 1001 q 129 1019 111 1019 l 129 1019 l 468 1019 q 851 886 719 1019 q 983 510 983 753 l 983 510 q 851 133 983 267 q 468 0 719 0 l 468 0 z m 447 843 l 299 843 l 299 176 l 447 176 q 702 263 615 176 q 789 510 789 349 l 789 510 q 702 757 789 671 q 447 843 615 843 l 447 843 z "},"E":{"ha":861,"x_min":111,"x_max":808,"o":"m 790 0 l 129 0 q 111 18 111 0 l 111 18 l 111 1001 q 129 1019 111 1019 l 129 1019 l 774 1019 q 792 1001 792 1019 l 792 1001 l 792 861 q 774 843 792 843 l 774 843 l 299 843 l 299 611 l 728 611 q 746 593 746 611 l 746 593 l 746 456 q 728 438 746 438 l 728 438 l 299 438 l 299 176 l 790 176 q 808 158 808 176 l 808 158 l 808 18 q 790 0 808 0 l 790 0 z "},"F":{"ha":815,"x_min":111,"x_max":768,"o":"m 281 0 l 129 0 q 111 18 111 0 l 111 18 l 111 1001 q 129 1019 111 1019 l 129 1019 l 750 1019 q 768 1001 768 1019 l 768 1001 l 768 861 q 750 843 768 843 l 750 843 l 299 843 l 299 579 l 688 579 q 706 561 706 579 l 706 561 l 706 421 q 688 403 706 403 l 688 403 l 299 403 l 299 18 q 281 0 299 0 l 281 0 z "},"G":{"ha":1129,"x_min":78,"x_max":1051,"o":"m 579 -19 q 317 47 431 -19 q 140 232 203 113 q 78 510 78 351 l 78 510 q 142 787 78 667 q 322 973 207 907 q 582 1039 436 1039 l 582 1039 q 854 967 742 1039 q 1018 765 967 896 l 1018 765 q 1019 757 1019 763 l 1019 757 q 1007 742 1019 744 l 1007 742 l 858 700 l 853 699 q 836 711 840 699 l 836 711 q 735 818 800 781 q 585 856 671 856 l 585 856 q 356 761 439 856 q 272 508 272 667 l 272 508 q 356 258 272 351 q 585 164 440 164 l 585 164 q 776 223 700 164 q 863 390 851 282 l 863 390 l 608 390 q 590 408 590 390 l 590 408 l 590 546 q 608 564 590 564 l 608 564 l 1033 564 q 1051 546 1051 564 l 1051 546 l 1051 431 q 997 199 1051 301 q 835 39 942 97 q 579 -19 728 -19 l 579 -19 z "},"H":{"ha":1069,"x_min":111,"x_max":958,"o":"m 281 0 l 129 0 q 111 18 111 0 l 111 18 l 111 1001 q 129 1019 111 1019 l 129 1019 l 281 1019 q 299 1001 299 1019 l 299 1001 l 299 611 l 771 611 l 771 1001 q 789 1019 771 1019 l 789 1019 l 940 1019 q 958 1001 958 1019 l 958 1001 l 958 18 q 940 0 958 0 l 940 0 l 789 0 q 771 18 771 0 l 771 18 l 771 435 l 299 435 l 299 18 q 281 0 299 0 l 281 0 z "},"I":{"ha":410,"x_min":111,"x_max":299,"o":"m 281 0 l 129 0 q 111 18 111 0 l 111 18 l 111 1001 q 129 1019 111 1019 l 129 1019 l 281 1019 q 299 1001 299 1019 l 299 1001 l 299 18 q 281 0 299 0 l 281 0 z "},"J":{"ha":753,"x_min":13,"x_max":649,"o":"m 319 -19 q 125 42 206 -19 q 14 218 44 104 l 14 218 l 13 225 q 26 240 13 236 l 26 240 l 169 279 l 175 281 q 192 265 188 281 l 192 265 q 240 191 207 218 q 319 164 272 164 l 319 164 q 428 216 396 164 q 461 365 461 268 l 461 365 l 461 843 l 178 843 q 160 861 160 843 l 160 861 l 160 1001 q 178 1019 160 1019 l 178 1019 l 631 1019 q 649 1001 649 1019 l 649 1001 l 649 346 q 319 -19 649 -19 l 319 -19 z "},"K":{"ha":1007,"x_min":111,"x_max":967,"o":"m 281 0 l 129 0 q 111 18 111 0 l 111 18 l 111 1001 q 129 1019 111 1019 l 129 1019 l 281 1019 q 299 1001 299 1019 l 299 1001 l 299 535 l 707 1010 q 729 1019 715 1019 l 729 1019 l 907 1019 q 922 1008 922 1019 l 922 1008 q 917 997 922 1003 l 917 997 l 594 633 l 964 22 q 967 13 967 14 l 967 13 q 963 3 967 7 q 951 0 958 0 l 951 0 l 772 0 q 751 13 758 0 l 751 13 l 471 494 l 299 300 l 299 18 q 281 0 299 0 l 281 0 z "},"L":{"ha":850,"x_min":111,"x_max":808,"o":"m 790 0 l 129 0 q 111 18 111 0 l 111 18 l 111 1001 q 129 1019 111 1019 l 129 1019 l 281 1019 q 299 1001 299 1019 l 299 1001 l 299 179 l 790 179 q 808 161 808 179 l 808 161 l 808 18 q 790 0 808 0 l 790 0 z "},"M":{"ha":1317,"x_min":111,"x_max":1206,"o":"m 274 0 l 129 0 q 111 18 111 0 l 111 18 l 111 1001 q 129 1019 111 1019 l 129 1019 l 289 1019 q 310 1007 304 1019 l 310 1007 l 663 421 l 1011 1007 q 1032 1019 1018 1019 l 1032 1019 l 1188 1019 q 1206 1001 1206 1019 l 1206 1001 l 1206 18 q 1188 0 1206 0 l 1188 0 l 1043 0 q 1025 18 1025 0 l 1025 18 l 1025 707 l 726 207 q 706 194 721 194 l 706 194 l 611 194 q 590 207 597 194 l 590 207 l 292 700 l 292 18 q 274 0 292 0 l 274 0 z "},"N":{"ha":1058,"x_min":111,"x_max":947,"o":"m 274 0 l 129 0 q 111 18 111 0 l 111 18 l 111 1001 q 129 1019 111 1019 l 129 1019 l 289 1019 q 311 1007 303 1019 l 311 1007 l 767 303 l 767 1001 q 785 1019 767 1019 l 785 1019 l 929 1019 q 947 1001 947 1019 l 947 1001 l 947 18 q 929 0 947 0 l 929 0 l 771 0 q 749 13 757 0 l 749 13 l 292 718 l 292 18 q 274 0 292 0 l 274 0 z "},"O":{"ha":1183,"x_min":78,"x_max":1106,"o":"m 592 -19 q 327 47 444 -19 q 144 233 210 113 q 78 510 78 353 l 78 510 q 144 787 78 667 q 327 973 210 907 q 592 1039 444 1039 l 592 1039 q 856 973 739 1039 q 1040 787 974 907 q 1106 510 1106 667 l 1106 510 q 1040 233 1106 353 q 856 47 974 113 q 592 -19 739 -19 l 592 -19 z m 592 164 q 760 208 688 164 q 872 331 833 253 q 911 510 911 410 l 911 510 q 872 688 911 610 q 760 811 833 767 q 592 856 688 856 l 592 856 q 423 811 496 856 q 311 688 350 767 q 272 510 272 610 l 272 510 q 311 331 272 410 q 423 208 350 253 q 592 164 496 164 l 592 164 z "},"P":{"ha":903,"x_min":111,"x_max":842,"o":"m 281 0 l 129 0 q 111 18 111 0 l 111 18 l 111 1001 q 129 1019 111 1019 l 129 1019 l 438 1019 q 739 927 636 1019 q 842 664 842 835 l 842 664 q 739 401 842 493 q 438 308 636 308 l 438 308 l 299 308 l 299 18 q 281 0 299 0 l 281 0 z m 431 846 l 299 846 l 299 482 l 431 482 q 647 668 647 482 l 647 668 q 592 801 647 757 q 431 846 536 846 l 431 846 z "},"Q":{"ha":1194,"x_min":78,"x_max":1117,"o":"m 1099 0 l 599 0 q 320 63 438 0 q 140 242 203 126 q 78 514 78 358 l 78 514 q 141 788 78 668 q 319 973 204 907 q 585 1039 435 1039 l 585 1039 q 845 975 732 1039 q 1019 799 958 911 q 1081 547 1081 688 l 1081 547 q 1034 327 1081 425 q 904 174 988 229 l 904 174 l 1099 174 q 1117 156 1117 174 l 1117 156 l 1117 18 q 1099 0 1117 0 l 1099 0 z m 579 183 q 743 226 674 183 q 849 347 813 269 q 886 521 886 424 l 886 521 q 849 693 886 617 q 743 813 813 769 q 579 856 674 856 l 579 856 q 415 812 485 856 q 309 692 346 768 q 272 519 272 615 l 272 519 q 309 346 272 422 q 415 226 346 269 q 579 183 485 183 l 579 183 z "},"R":{"ha":942,"x_min":111,"x_max":886,"o":"m 281 0 l 129 0 q 111 18 111 0 l 111 18 l 111 1001 q 129 1019 111 1019 l 129 1019 l 438 1019 q 744 930 646 1019 q 842 664 842 840 l 842 664 q 805 492 842 568 q 693 369 768 417 l 693 369 l 883 22 q 886 13 886 14 l 886 13 q 882 3 886 7 q 871 0 878 0 l 871 0 l 700 0 q 679 13 686 0 l 679 13 l 515 313 q 438 308 478 308 l 438 308 l 299 308 l 299 18 q 281 0 299 0 l 281 0 z m 431 846 l 299 846 l 299 482 l 431 482 q 594 526 542 482 q 647 664 647 569 l 647 664 q 594 802 647 758 q 431 846 542 846 l 431 846 z "},"S":{"ha":829,"x_min":43,"x_max":782,"o":"m 422 -19 q 182 49 279 -19 q 44 250 85 118 l 44 250 q 43 257 43 253 l 43 257 q 57 272 43 268 l 57 272 l 201 307 l 207 308 q 224 294 219 308 l 224 294 q 298 195 251 226 q 422 164 344 164 l 422 164 q 544 190 500 164 q 588 272 588 217 l 588 272 q 547 359 588 325 q 421 424 506 393 l 421 424 l 331 456 q 69 753 69 544 l 69 753 q 115 900 69 835 q 238 1002 160 965 q 411 1039 315 1039 l 411 1039 q 633 977 542 1039 q 761 790 724 915 l 761 790 q 763 783 763 788 l 763 783 q 749 768 763 772 l 749 768 l 596 729 l 590 728 q 574 742 578 728 l 574 742 q 510 829 549 803 q 411 856 471 856 l 411 856 q 304 829 344 856 q 264 758 264 803 l 264 758 q 305 677 264 711 q 436 613 346 643 l 436 613 l 508 589 q 716 469 650 542 q 782 272 782 396 l 782 272 q 736 122 782 189 q 608 18 690 56 q 422 -19 526 -19 l 422 -19 z "},"T":{"ha":935,"x_min":42,"x_max":893,"o":"m 543 0 l 392 0 q 374 18 374 0 l 374 18 l 374 843 l 58 843 q 42 861 42 843 l 42 861 l 42 1001 q 58 1019 42 1019 l 58 1019 l 875 1019 q 893 1001 893 1019 l 893 1001 l 893 861 q 875 843 893 843 l 875 843 l 561 843 l 561 18 q 543 0 561 0 l 543 0 z "},"U":{"ha":1035,"x_min":104,"x_max":931,"o":"m 517 -19 q 315 24 408 -19 q 163 165 222 68 q 104 415 104 263 l 104 415 l 104 1001 q 122 1019 104 1019 l 122 1019 l 274 1019 q 292 1001 292 1019 l 292 1001 l 292 449 q 353 235 292 306 q 517 164 415 164 l 517 164 q 681 235 618 164 q 743 449 743 306 l 743 449 l 743 1001 q 761 1019 743 1019 l 761 1019 l 913 1019 q 931 1001 931 1019 l 931 1001 l 931 415 q 872 165 931 263 q 719 24 813 68 q 517 -19 625 -19 l 517 -19 z "},"V":{"ha":1029,"x_min":29,"x_max":1003,"o":"m 579 0 l 450 0 q 429 14 435 0 l 429 14 l 31 999 q 29 1007 29 1001 l 29 1007 q 44 1019 29 1019 l 44 1019 l 219 1019 q 240 1006 236 1019 l 240 1006 l 517 260 l 792 1006 q 813 1019 796 1019 l 813 1019 l 985 1019 q 999 1014 994 1019 q 999 999 1003 1008 l 999 999 l 600 14 q 579 0 594 0 l 579 0 z "},"W":{"ha":1542,"x_min":28,"x_max":1515,"o":"m 533 0 l 406 0 q 385 14 389 0 l 385 14 l 29 999 q 28 1006 28 1001 l 28 1006 q 33 1015 28 1011 q 44 1019 38 1019 l 44 1019 l 221 1019 q 240 1004 236 1019 l 240 1004 l 464 317 l 690 1004 q 710 1019 694 1019 l 710 1019 l 835 1019 q 854 1004 850 1019 l 854 1004 l 1081 315 l 1306 1004 q 1325 1019 1310 1019 l 1325 1019 l 1497 1019 q 1511 1014 1507 1019 q 1513 999 1515 1008 l 1513 999 l 1157 14 q 1136 0 1153 0 l 1136 0 l 1008 0 q 989 15 993 0 l 989 15 l 771 679 l 553 15 q 533 0 549 0 l 533 0 z "},"X":{"ha":946,"x_min":28,"x_max":915,"o":"m 215 0 l 46 0 q 31 6 35 0 q 33 22 28 13 l 33 22 l 356 526 l 56 997 q 53 1007 53 1006 l 53 1007 q 57 1016 53 1013 q 68 1019 61 1019 l 68 1019 l 239 1019 q 260 1007 251 1019 l 260 1007 l 475 656 l 688 1007 q 708 1019 694 1019 l 708 1019 l 878 1019 q 892 1013 889 1019 q 890 997 896 1007 l 890 997 l 590 528 l 913 22 q 915 13 915 14 l 915 13 q 911 3 915 7 q 900 0 907 0 l 900 0 l 729 0 q 708 13 717 0 l 708 13 l 471 400 l 236 13 q 215 0 231 0 l 215 0 z "},"Y":{"ha":988,"x_min":28,"x_max":963,"o":"m 569 0 l 418 0 q 400 18 400 0 l 400 18 l 400 388 l 31 997 q 28 1007 28 1006 l 28 1007 q 32 1016 28 1013 q 43 1019 36 1019 l 43 1019 l 218 1019 q 239 1007 233 1019 l 239 1007 l 496 557 l 751 1007 q 772 1019 758 1019 l 772 1019 l 944 1019 q 959 1013 956 1019 q 957 997 963 1007 l 957 997 l 588 389 l 588 18 q 569 0 588 0 l 569 0 z "},"Z":{"ha":861,"x_min":40,"x_max":811,"o":"m 793 0 l 58 0 q 40 18 40 0 l 40 18 l 40 65 q 47 88 40 76 l 47 88 l 517 843 l 79 843 q 61 861 61 843 l 61 861 l 61 1001 q 79 1019 61 1019 l 79 1019 l 783 1019 q 801 1001 801 1019 l 801 1001 l 801 954 q 794 932 801 943 l 794 932 l 325 176 l 793 176 q 811 158 811 176 l 811 158 l 811 18 q 793 0 811 0 l 793 0 z "},"a":{"ha":890,"x_min":53,"x_max":796,"o":"m 389 -14 q 211 33 288 -14 q 94 165 135 81 q 53 360 53 250 l 53 360 q 94 554 53 469 q 211 686 135 639 q 389 733 288 733 l 389 733 q 524 704 464 733 q 624 621 585 675 l 624 621 l 628 701 q 647 719 628 719 l 647 719 l 778 719 q 796 701 796 719 l 796 701 l 796 18 q 778 0 796 0 l 778 0 l 647 0 q 628 18 628 0 l 628 18 l 624 99 q 524 15 585 44 q 389 -14 464 -14 l 389 -14 z m 433 150 q 574 208 519 150 q 628 360 628 267 l 628 360 q 574 511 628 453 q 433 569 519 569 l 433 569 q 293 511 347 569 q 239 360 239 453 l 239 360 q 293 208 239 267 q 433 150 347 150 l 433 150 z "},"b":{"ha":890,"x_min":94,"x_max":838,"o":"m 501 -14 q 366 15 426 -14 q 267 99 306 44 l 267 99 l 263 18 q 243 0 263 0 l 243 0 l 113 0 q 94 18 94 0 l 94 18 l 94 1024 q 113 1042 94 1042 l 113 1042 l 257 1042 q 275 1024 275 1042 l 275 1024 l 275 632 q 374 707 315 681 q 501 733 432 733 l 501 733 q 679 686 603 733 q 797 554 756 639 q 838 360 838 469 l 838 360 q 797 165 838 250 q 679 33 756 81 q 501 -14 603 -14 l 501 -14 z m 457 150 q 597 208 543 150 q 651 360 651 267 l 651 360 q 597 511 651 453 q 457 569 543 569 l 457 569 q 317 511 371 569 q 263 360 263 453 l 263 360 q 317 208 263 267 q 457 150 371 150 l 457 150 z "},"c":{"ha":803,"x_min":53,"x_max":767,"o":"m 422 -14 q 226 33 310 -14 q 98 165 143 81 q 53 360 53 250 l 53 360 q 98 554 53 469 q 226 686 143 639 q 421 733 310 733 l 421 733 q 747 525 669 733 l 747 525 q 749 518 749 522 l 749 518 q 735 501 749 506 l 735 501 l 615 467 l 610 465 q 592 478 599 465 l 592 478 q 432 569 544 569 l 432 569 q 289 510 339 569 q 239 360 239 450 l 239 360 q 289 210 239 269 q 432 150 339 150 l 432 150 q 593 246 547 150 l 593 246 q 617 257 601 261 l 617 257 l 749 225 q 760 203 767 221 l 760 203 q 631 40 718 94 q 422 -14 544 -14 l 422 -14 z "},"d":{"ha":890,"x_min":53,"x_max":796,"o":"m 389 -14 q 211 33 288 -14 q 94 165 135 81 q 53 360 53 250 l 53 360 q 94 554 53 469 q 211 686 135 639 q 389 733 288 733 l 389 733 q 517 707 458 733 q 615 632 575 681 l 615 632 l 615 1024 q 633 1042 615 1042 l 633 1042 l 778 1042 q 796 1024 796 1042 l 796 1024 l 796 18 q 778 0 796 0 l 778 0 l 647 0 q 628 18 628 0 l 628 18 l 624 99 q 524 15 585 44 q 389 -14 464 -14 l 389 -14 z m 433 150 q 574 208 519 150 q 628 360 628 267 l 628 360 q 574 511 628 453 q 433 569 519 569 l 433 569 q 293 511 347 569 q 239 360 239 453 l 239 360 q 293 208 239 267 q 433 150 347 150 l 433 150 z "},"e":{"ha":796,"x_min":53,"x_max":760,"o":"m 417 -14 q 223 33 306 -14 q 97 166 140 81 q 53 360 53 251 l 53 360 q 97 553 53 468 q 223 686 140 639 q 417 733 306 733 l 417 733 q 603 683 525 733 q 721 539 682 632 q 757 322 760 446 l 757 322 q 738 304 756 304 l 738 304 l 244 304 q 302 188 257 229 q 418 146 347 146 l 418 146 q 576 228 526 146 l 576 228 q 600 236 583 240 l 600 236 l 724 193 q 733 169 742 186 l 733 169 q 604 32 688 78 q 417 -14 521 -14 l 417 -14 z m 415 574 q 308 538 351 574 q 247 439 264 503 l 247 439 l 564 439 q 513 538 551 503 q 415 574 474 574 l 415 574 z "},"f":{"ha":558,"x_min":19,"x_max":635,"o":"m 300 0 l 156 0 q 138 18 138 0 l 138 18 l 138 558 l 38 558 q 19 576 19 558 l 19 576 l 19 701 q 38 719 19 719 l 38 719 l 138 719 l 138 765 q 206 974 138 896 q 390 1051 275 1051 l 390 1051 q 633 899 560 1051 l 633 899 q 635 890 635 896 l 635 890 q 624 875 635 879 l 624 875 l 511 828 q 503 826 508 826 l 503 826 q 488 836 493 826 l 488 836 q 452 876 471 865 q 404 888 433 888 l 404 888 q 340 857 363 888 q 318 768 318 826 l 318 768 l 318 719 l 499 719 q 517 701 517 719 l 517 701 l 517 576 q 499 558 517 558 l 499 558 l 318 558 l 318 18 q 300 0 318 0 l 300 0 z "},"g":{"ha":890,"x_min":53,"x_max":796,"o":"m 415 -317 q 204 -263 296 -317 q 72 -110 113 -210 l 72 -110 l 69 -101 q 82 -87 69 -92 l 82 -87 l 199 -44 q 206 -43 201 -43 l 206 -43 q 222 -54 215 -43 l 222 -54 q 295 -127 250 -101 q 410 -153 340 -153 l 410 -153 q 558 -110 501 -153 q 615 22 615 -68 l 615 22 l 615 88 q 517 13 575 39 q 389 -14 458 -14 l 389 -14 q 211 33 288 -14 q 94 165 135 81 q 53 360 53 250 l 53 360 q 94 554 53 469 q 211 686 135 639 q 389 733 288 733 l 389 733 q 524 704 464 733 q 624 621 585 675 l 624 621 l 628 701 q 647 719 628 719 l 647 719 l 778 719 q 796 701 796 719 l 796 701 l 796 40 q 749 -153 796 -72 q 615 -275 701 -233 q 415 -317 529 -317 l 415 -317 z m 433 150 q 574 208 519 150 q 628 360 628 267 l 628 360 q 574 511 628 453 q 433 569 519 569 l 433 569 q 293 511 347 569 q 239 360 239 453 l 239 360 q 293 208 239 267 q 433 150 347 150 l 433 150 z "},"h":{"ha":853,"x_min":94,"x_max":764,"o":"m 257 0 l 113 0 q 94 18 94 0 l 94 18 l 94 1024 q 113 1042 94 1042 l 113 1042 l 257 1042 q 275 1024 275 1042 l 275 1024 l 275 631 q 374 707 314 681 q 501 733 433 733 l 501 733 q 695 663 626 733 q 764 468 764 593 l 764 468 l 764 18 q 746 0 764 0 l 746 0 l 601 0 q 583 18 583 0 l 583 18 l 583 394 q 550 527 583 485 q 446 569 517 569 l 446 569 q 325 517 375 569 q 275 367 275 464 l 275 367 l 275 18 q 257 0 275 0 l 257 0 z "},"i":{"ha":369,"x_min":79,"x_max":290,"o":"m 185 847 q 109 875 139 847 q 79 947 79 903 l 79 947 q 109 1019 79 992 q 185 1047 139 1047 l 185 1047 q 260 1019 231 1047 q 290 947 290 992 l 290 947 q 260 875 290 903 q 185 847 231 847 l 185 847 z m 257 0 l 113 0 q 94 18 94 0 l 94 18 l 94 701 q 113 719 94 719 l 113 719 l 257 719 q 275 701 275 719 l 275 701 l 275 18 q 257 0 275 0 l 257 0 z "},"j":{"ha":369,"x_min":-197,"x_max":290,"o":"m 185 847 q 109 875 139 847 q 79 947 79 903 l 79 947 q 109 1019 79 992 q 185 1047 139 1047 l 185 1047 q 260 1019 231 1047 q 290 947 290 992 l 290 947 q 260 875 290 903 q 185 847 231 847 l 185 847 z m 22 -317 q -110 -281 -54 -317 q -196 -175 -167 -244 l -196 -175 q -197 -167 -197 -172 l -197 -167 q -185 -153 -197 -157 l -185 -153 l -71 -110 q -64 -108 -68 -108 l -64 -108 q -47 -119 -54 -108 l -47 -119 q -24 -144 -39 -136 q 17 -153 -10 -153 l 17 -153 q 76 -125 57 -153 q 94 -36 94 -97 l 94 -36 l 94 701 q 113 719 94 719 l 113 719 l 257 719 q 275 701 275 719 l 275 701 l 275 -21 q 211 -240 275 -164 q 22 -317 147 -317 l 22 -317 z "},"k":{"ha":825,"x_min":94,"x_max":785,"o":"m 257 0 l 113 0 q 94 18 94 0 l 94 18 l 94 1024 q 113 1042 94 1042 l 113 1042 l 257 1042 q 275 1024 275 1042 l 275 1024 l 275 439 l 536 710 q 558 719 546 719 l 558 719 l 744 719 q 760 708 760 719 l 760 708 q 754 697 760 703 l 754 697 l 514 461 l 782 22 q 785 11 785 18 l 785 11 q 771 0 785 0 l 771 0 l 599 0 q 578 13 585 0 l 578 13 l 383 332 l 275 226 l 275 18 q 257 0 275 0 l 257 0 z "},"l":{"ha":369,"x_min":94,"x_max":275,"o":"m 257 0 l 113 0 q 94 18 94 0 l 94 18 l 94 1024 q 113 1042 94 1042 l 113 1042 l 257 1042 q 275 1024 275 1042 l 275 1024 l 275 18 q 257 0 275 0 l 257 0 z "},"m":{"ha":1308,"x_min":94,"x_max":1219,"o":"m 257 0 l 113 0 q 94 18 94 0 l 94 18 l 94 701 q 113 719 94 719 l 113 719 l 243 719 q 263 701 263 719 l 263 701 l 267 615 q 365 703 304 672 q 494 733 426 733 l 494 733 q 633 699 575 733 q 721 601 692 665 l 721 601 q 825 699 760 665 q 967 733 890 733 l 967 733 q 1152 663 1085 733 q 1219 468 1219 592 l 1219 468 l 1219 18 q 1201 0 1219 0 l 1201 0 l 1057 0 q 1039 18 1039 0 l 1039 18 l 1039 394 q 911 569 1039 569 l 911 569 q 795 517 843 569 q 747 367 747 464 l 747 367 l 747 18 q 729 0 747 0 l 729 0 l 585 0 q 567 18 567 0 l 567 18 l 567 394 q 439 569 567 569 l 439 569 q 323 517 371 569 q 275 367 275 464 l 275 367 l 275 18 q 257 0 275 0 l 257 0 z "},"n":{"ha":853,"x_min":94,"x_max":764,"o":"m 257 0 l 113 0 q 94 18 94 0 l 94 18 l 94 701 q 113 719 94 719 l 113 719 l 243 719 q 263 701 263 719 l 263 701 l 267 619 q 368 704 306 675 q 501 733 431 733 l 501 733 q 695 663 626 733 q 764 468 764 593 l 764 468 l 764 18 q 746 0 764 0 l 746 0 l 601 0 q 583 18 583 0 l 583 18 l 583 394 q 550 527 583 485 q 446 569 517 569 l 446 569 q 325 517 375 569 q 275 367 275 464 l 275 367 l 275 18 q 257 0 275 0 l 257 0 z "},"o":{"ha":867,"x_min":53,"x_max":814,"o":"m 433 -14 q 233 34 319 -14 q 100 167 147 82 q 53 360 53 251 l 53 360 q 100 553 53 468 q 233 685 147 638 q 433 733 319 733 l 433 733 q 633 685 547 733 q 767 553 719 638 q 814 360 814 468 l 814 360 q 767 167 814 251 q 633 34 719 82 q 433 -14 547 -14 l 433 -14 z m 433 150 q 574 208 519 150 q 628 360 628 267 l 628 360 q 574 511 628 453 q 433 569 519 569 l 433 569 q 293 511 347 569 q 239 360 239 453 l 239 360 q 293 208 239 267 q 433 150 347 150 l 433 150 z "},"p":{"ha":890,"x_min":94,"x_max":838,"o":"m 257 -303 l 113 -303 q 94 -285 94 -303 l 94 -285 l 94 701 q 113 719 94 719 l 113 719 l 243 719 q 263 701 263 719 l 263 701 l 267 621 q 366 704 306 675 q 501 733 426 733 l 501 733 q 679 686 603 733 q 797 554 756 639 q 838 360 838 469 l 838 360 q 797 165 838 250 q 679 33 756 81 q 501 -14 603 -14 l 501 -14 q 374 13 432 -14 q 275 88 315 39 l 275 88 l 275 -285 q 257 -303 275 -303 l 257 -303 z m 457 150 q 597 208 543 150 q 651 360 651 267 l 651 360 q 597 511 651 453 q 457 569 543 569 l 457 569 q 317 511 371 569 q 263 360 263 453 l 263 360 q 317 208 263 267 q 457 150 371 150 l 457 150 z "},"q":{"ha":890,"x_min":53,"x_max":796,"o":"m 778 -303 l 633 -303 q 615 -285 615 -303 l 615 -285 l 615 88 q 517 13 575 39 q 389 -14 458 -14 l 389 -14 q 211 33 288 -14 q 94 165 135 81 q 53 360 53 250 l 53 360 q 94 554 53 469 q 211 686 135 639 q 389 733 288 733 l 389 733 q 524 704 464 733 q 624 621 585 675 l 624 621 l 628 701 q 647 719 628 719 l 647 719 l 778 719 q 796 701 796 719 l 796 701 l 796 -285 q 778 -303 796 -303 l 778 -303 z m 433 150 q 574 208 519 150 q 628 360 628 267 l 628 360 q 574 511 628 453 q 433 569 519 569 l 433 569 q 293 511 347 569 q 239 360 239 453 l 239 360 q 293 208 239 267 q 433 150 347 150 l 433 150 z "},"r":{"ha":578,"x_min":94,"x_max":550,"o":"m 257 0 l 113 0 q 94 18 94 0 l 94 18 l 94 701 q 113 719 94 719 l 113 719 l 243 719 q 263 701 263 719 l 263 701 l 267 611 q 361 699 303 668 q 486 729 419 729 l 486 729 q 535 725 514 729 l 535 725 q 550 706 550 721 l 550 706 l 550 563 q 535 547 550 547 l 535 547 q 501 550 521 547 q 464 553 481 553 l 464 553 q 371 531 414 553 q 301 468 328 510 q 275 372 275 426 l 275 372 l 275 18 q 257 0 275 0 l 257 0 z "},"s":{"ha":679,"x_min":39,"x_max":638,"o":"m 353 -14 q 155 35 235 -14 q 40 178 75 85 l 40 178 q 39 185 39 181 l 39 185 q 53 200 39 196 l 53 200 l 179 235 l 185 236 q 201 224 197 236 l 201 224 q 261 164 225 182 q 346 146 297 146 l 346 146 q 451 199 451 146 l 451 199 q 428 236 451 221 q 344 268 404 251 l 344 268 l 310 278 q 128 374 185 313 q 71 522 71 436 l 71 522 q 106 631 71 583 q 202 706 140 679 q 344 733 264 733 l 344 733 q 522 688 450 733 q 626 553 593 643 l 626 553 q 628 544 628 550 l 628 544 q 615 531 628 533 l 615 531 l 489 490 q 481 489 486 489 l 481 489 q 465 500 472 489 l 465 500 q 342 574 424 574 l 342 574 q 280 561 303 574 q 257 522 257 549 l 257 522 q 283 481 257 497 q 368 450 308 465 l 368 450 l 401 442 q 584 353 531 410 q 638 203 638 296 l 638 203 q 558 46 638 106 q 353 -14 478 -14 l 353 -14 z "},"t":{"ha":594,"x_min":10,"x_max":592,"o":"m 375 -14 q 195 60 257 -14 q 133 278 133 133 l 133 278 l 133 558 l 28 558 q 10 576 10 558 l 10 576 l 10 701 q 28 719 10 719 l 28 719 l 133 719 l 133 913 q 151 931 133 931 l 151 931 l 296 931 q 314 913 314 931 l 314 913 l 314 719 l 485 719 q 503 701 503 719 l 503 701 l 503 576 q 485 558 503 558 l 485 558 l 314 558 l 314 267 q 333 179 314 208 q 394 150 353 150 l 394 150 q 449 185 429 150 l 449 185 q 474 193 458 201 l 474 193 l 582 144 q 592 129 592 140 l 592 129 q 588 115 592 124 l 588 115 q 496 17 551 49 q 375 -14 440 -14 l 375 -14 z "},"u":{"ha":853,"x_min":89,"x_max":758,"o":"m 351 -14 q 158 56 226 -14 q 89 251 89 126 l 89 251 l 89 701 q 107 719 89 719 l 107 719 l 251 719 q 269 701 269 719 l 269 701 l 269 325 q 303 192 269 235 q 407 150 336 150 l 407 150 q 528 203 478 150 q 578 353 578 256 l 578 353 l 578 701 q 596 719 578 719 l 596 719 l 740 719 q 758 701 758 719 l 758 701 l 758 18 q 740 0 758 0 l 740 0 l 610 0 q 590 18 590 0 l 590 18 l 586 100 q 485 15 547 44 q 351 -14 422 -14 l 351 -14 z "},"v":{"ha":808,"x_min":28,"x_max":782,"o":"m 450 0 l 358 0 q 338 14 344 0 l 338 14 l 31 699 q 28 707 28 704 l 28 707 q 44 719 28 719 l 44 719 l 217 719 q 238 706 232 719 l 238 706 l 410 268 l 582 706 q 603 719 588 719 l 603 719 l 764 719 q 778 714 775 719 q 778 699 782 708 l 778 699 l 471 14 q 450 0 464 0 l 450 0 z "},"w":{"ha":1174,"x_min":28,"x_max":1147,"o":"m 393 0 l 301 0 q 281 14 285 0 l 281 14 l 29 699 q 28 706 28 701 l 28 706 q 33 715 28 711 q 44 719 38 719 l 44 719 l 218 719 q 238 704 233 719 l 238 704 l 360 307 l 528 706 q 549 719 535 719 l 549 719 l 640 719 q 661 706 656 719 l 661 706 l 821 317 l 950 704 q 971 719 954 719 l 971 719 l 1129 719 q 1143 714 1139 719 q 1144 699 1147 708 l 1144 699 l 893 14 q 872 0 889 0 l 872 0 l 781 0 q 760 14 765 0 l 760 14 l 592 425 l 414 14 q 393 0 407 0 l 393 0 z "},"x":{"ha":779,"x_min":33,"x_max":746,"o":"m 203 0 l 49 0 q 33 11 33 0 l 33 11 q 38 22 33 17 l 38 22 l 281 369 l 51 697 q 47 708 47 704 l 47 708 q 63 719 47 719 l 63 719 l 228 719 q 250 708 242 719 l 250 708 l 394 494 l 540 708 q 563 719 549 719 l 563 719 l 717 719 q 732 708 732 719 l 732 708 q 728 697 732 704 l 728 697 l 499 369 l 742 22 q 746 11 746 17 l 746 11 q 731 0 746 0 l 731 0 l 565 0 q 543 11 551 0 l 543 11 l 385 246 l 225 11 q 203 0 217 0 l 203 0 z "},"y":{"ha":807,"x_min":28,"x_max":781,"o":"m 353 -303 l 201 -303 q 188 -297 192 -303 q 188 -282 185 -292 l 188 -282 l 319 46 l 31 699 q 28 707 28 704 l 28 707 q 44 719 28 719 l 44 719 l 217 719 q 238 706 232 719 l 238 706 l 413 264 l 583 706 q 604 719 589 719 l 604 719 l 763 719 q 776 714 772 719 q 776 699 781 708 l 776 699 l 374 -289 q 353 -303 368 -303 l 353 -303 z "},"z":{"ha":715,"x_min":57,"x_max":657,"o":"m 639 0 l 75 0 q 57 18 57 0 l 57 18 l 57 61 q 64 83 57 72 l 64 83 l 381 560 l 89 560 q 71 578 71 560 l 71 578 l 71 701 q 89 719 71 719 l 89 719 l 633 719 q 651 701 651 719 l 651 701 l 651 660 q 644 638 651 649 l 644 638 l 329 160 l 639 160 q 657 142 657 160 l 657 142 l 657 18 q 639 0 657 0 l 639 0 z "},"ก":{"ha":886,"x_min":104,"x_max":790,"o":"m 122 789 l 471 789 q 708 711 625 789 q 790 488 790 633 l 790 488 l 790 18 q 772 0 790 0 l 772 0 l 624 0 q 606 18 606 0 l 606 18 l 606 488 q 565 593 606 556 q 451 631 525 631 l 451 631 l 289 631 l 289 18 q 271 0 289 0 l 271 0 l 122 0 q 104 18 104 0 l 104 18 l 104 771 q 122 789 104 789 l 122 789 z "},"ถ":{"ha":890,"x_min":99,"x_max":794,"o":"m 117 789 l 475 789 q 712 711 629 789 q 794 488 794 633 l 794 488 l 794 18 q 775 0 794 0 l 775 0 l 628 0 q 610 18 610 0 l 610 18 l 610 488 q 569 593 610 556 q 456 631 529 631 l 456 631 l 283 631 l 283 271 q 303 182 283 211 q 369 153 324 153 l 369 153 q 421 164 397 153 l 421 164 l 432 167 q 444 157 440 167 l 444 157 l 493 49 q 496 39 496 40 l 496 39 q 488 24 496 31 l 488 24 q 346 -11 436 -11 l 346 -11 q 163 56 226 -11 q 99 246 99 122 l 99 246 l 99 771 q 117 789 99 789 l 117 789 z "},"ฤ":{"ha":890,"x_min":99,"x_max":794,"o":"m 117 789 l 475 789 q 713 711 631 789 q 794 488 794 633 l 794 488 l 794 -287 q 776 -306 794 -306 l 776 -306 l 628 -306 q 610 -287 610 -306 l 610 -287 l 610 488 q 569 593 610 556 q 456 631 529 631 l 456 631 l 283 631 l 283 271 q 303 182 283 211 q 369 153 324 153 l 369 153 q 421 164 397 153 l 421 164 l 432 167 q 444 157 440 167 l 444 157 l 493 49 q 496 39 496 40 l 496 39 q 488 24 496 31 l 488 24 q 346 -11 436 -11 l 346 -11 q 163 56 226 -11 q 99 246 99 122 l 99 246 l 99 771 q 117 789 99 789 l 117 789 z "},"ภ":{"ha":908,"x_min":25,"x_max":813,"o":"m 150 789 l 493 789 q 731 711 649 789 q 813 488 813 633 l 813 488 l 813 18 q 794 0 813 0 l 794 0 l 646 0 q 628 18 628 0 l 628 18 l 628 488 q 588 593 628 556 q 474 631 547 631 l 474 631 l 317 631 l 317 225 q 259 52 317 113 q 97 -8 201 -8 l 97 -8 q 39 -4 68 -8 l 39 -4 q 25 13 25 -1 l 25 13 l 25 144 q 40 158 25 158 l 40 158 l 58 158 q 132 249 132 158 l 132 249 l 132 771 q 150 789 132 789 l 150 789 z "},"ฦ":{"ha":908,"x_min":25,"x_max":813,"o":"m 150 789 l 493 789 q 731 711 649 789 q 813 488 813 633 l 813 488 l 813 -287 q 794 -306 813 -306 l 794 -306 l 646 -306 q 628 -287 628 -306 l 628 -287 l 628 488 q 588 593 628 556 q 474 631 547 631 l 474 631 l 317 631 l 317 225 q 259 52 317 113 q 97 -8 201 -8 l 97 -8 q 39 -4 68 -8 l 39 -4 q 25 13 25 -1 l 25 13 l 25 144 q 40 158 25 158 l 40 158 l 58 158 q 132 249 132 158 l 132 249 l 132 771 q 150 789 132 789 l 150 789 z "},"ฎ":{"ha":908,"x_min":25,"x_max":813,"o":"m 150 789 l 493 789 q 731 711 649 789 q 813 488 813 633 l 813 488 l 813 -343 q 794 -361 813 -361 l 794 -361 l 624 -361 q 603 -347 610 -361 l 603 -347 q 541 -287 581 -308 q 451 -265 501 -265 l 451 -265 q 360 -290 399 -265 q 300 -358 321 -314 l 300 -358 q 278 -368 294 -372 l 278 -368 l 139 -325 q 128 -301 121 -318 l 128 -301 q 229 -156 160 -207 q 396 -104 299 -104 l 396 -104 q 530 -135 471 -104 q 628 -225 589 -167 l 628 -225 l 628 488 q 588 593 628 556 q 474 631 547 631 l 474 631 l 317 631 l 317 225 q 259 52 317 113 q 97 -8 201 -8 l 97 -8 q 39 -4 68 -8 l 39 -4 q 25 13 25 -1 l 25 13 l 25 144 q 40 158 25 158 l 40 158 l 58 158 q 132 249 132 158 l 132 249 l 132 771 q 150 789 132 789 l 150 789 z "},"ฏ":{"ha":908,"x_min":25,"x_max":813,"o":"m 150 789 l 493 789 q 731 711 649 789 q 813 488 813 633 l 813 488 l 813 -169 q 758 -319 813 -262 q 614 -375 703 -375 l 614 -375 q 519 -355 561 -375 q 449 -299 476 -335 l 449 -299 q 384 -355 424 -335 q 297 -375 344 -375 l 297 -375 q 170 -328 224 -375 q 96 -197 117 -281 l 96 -197 l 94 -190 q 110 -174 94 -178 l 110 -174 l 246 -136 l 251 -135 q 267 -149 263 -135 l 267 -149 q 291 -197 274 -181 q 333 -214 308 -214 l 333 -214 q 376 -197 358 -214 q 401 -147 394 -179 l 401 -147 q 422 -129 406 -129 l 422 -129 l 471 -129 q 492 -147 488 -129 l 492 -147 q 563 -214 504 -214 l 563 -214 q 610 -194 593 -214 q 628 -139 628 -175 l 628 -139 l 628 488 q 588 593 628 556 q 474 631 547 631 l 474 631 l 317 631 l 317 225 q 259 52 317 113 q 97 -8 201 -8 l 97 -8 q 39 -4 68 -8 l 39 -4 q 25 13 25 -1 l 25 13 l 25 144 q 40 158 25 158 l 40 158 l 58 158 q 132 249 132 158 l 132 249 l 132 771 q 150 789 132 789 l 150 789 z "},"ญ":{"ha":1358,"x_min":99,"x_max":1254,"o":"m 1088 789 l 1236 789 q 1254 771 1254 789 l 1254 771 l 1254 0 q 1165 -247 1254 -157 q 921 -336 1076 -336 l 921 -336 q 724 -285 806 -336 q 611 -139 643 -233 l 611 -139 q 610 -131 610 -136 l 610 -131 q 622 -117 610 -121 l 622 -117 l 749 -68 q 758 -65 757 -65 l 758 -65 q 772 -75 767 -65 l 772 -75 q 926 -175 822 -175 l 926 -175 q 1037 -133 996 -175 q 1078 -17 1078 -90 l 1078 -17 l 1078 125 q 849 0 993 0 l 849 0 q 665 74 733 0 q 596 271 596 147 l 596 271 l 596 488 q 556 593 596 556 q 442 631 515 631 l 442 631 l 283 631 l 283 271 q 303 181 283 210 q 364 153 322 153 l 364 153 q 415 164 389 153 l 415 164 l 426 167 q 439 157 435 167 l 439 157 l 488 49 q 490 39 490 40 l 490 39 q 482 24 490 31 l 482 24 q 340 -11 431 -11 l 340 -11 q 161 56 224 -11 q 99 246 99 122 l 99 246 l 99 771 q 117 789 99 789 l 117 789 l 461 789 q 699 711 617 789 q 781 488 781 633 l 781 488 l 781 333 q 815 211 781 256 q 908 167 849 167 l 908 167 q 1024 226 979 167 q 1069 378 1069 285 l 1069 378 l 1069 771 q 1088 789 1069 789 l 1088 789 z "},"ฌ":{"ha":1353,"x_min":99,"x_max":1254,"o":"m 1088 789 l 1236 789 q 1254 771 1254 789 l 1254 771 l 1254 265 q 1185 60 1254 138 q 1001 -17 1117 -17 l 1001 -17 q 772 108 858 -17 l 772 108 l 767 18 q 749 0 765 0 l 749 0 l 614 0 q 596 18 596 0 l 596 18 l 596 488 q 556 593 596 556 q 442 631 515 631 l 442 631 l 283 631 l 283 271 q 303 182 283 211 q 364 153 322 153 l 364 153 q 415 164 392 153 l 415 164 l 426 167 q 439 157 435 167 l 439 157 l 488 49 q 490 39 490 40 l 490 39 q 482 24 490 31 l 482 24 q 340 -11 431 -11 l 340 -11 q 161 56 224 -11 q 99 246 99 122 l 99 246 l 99 771 q 117 789 99 789 l 117 789 l 461 789 q 699 711 617 789 q 781 488 781 633 l 781 488 l 781 361 q 827 207 781 264 q 942 150 874 150 l 942 150 q 1035 198 1001 150 q 1069 328 1069 246 l 1069 328 l 1069 771 q 1088 789 1069 789 l 1088 789 z "},"ณ":{"ha":1358,"x_min":99,"x_max":1254,"o":"m 1088 789 l 1236 789 q 1254 771 1254 789 l 1254 771 l 1254 18 q 1236 0 1254 0 l 1236 0 l 1101 0 q 1083 18 1085 0 l 1083 18 l 1078 108 q 849 -17 993 -17 l 849 -17 q 665 57 733 -17 q 596 254 596 131 l 596 254 l 596 488 q 556 593 596 556 q 442 631 515 631 l 442 631 l 283 631 l 283 271 q 303 182 283 211 q 364 153 322 153 l 364 153 q 415 164 392 153 l 415 164 l 426 167 q 439 157 435 167 l 439 157 l 488 49 q 490 39 490 40 l 490 39 q 482 24 490 31 l 482 24 q 340 -11 431 -11 l 340 -11 q 161 56 224 -11 q 99 246 99 122 l 99 246 l 99 771 q 117 789 99 789 l 117 789 l 461 789 q 699 711 617 789 q 781 488 781 633 l 781 488 l 781 317 q 815 194 781 239 q 908 150 849 150 l 908 150 q 1023 207 976 150 q 1069 361 1069 264 l 1069 361 l 1069 771 q 1088 789 1069 789 l 1088 789 z "},"ข":{"ha":822,"x_min":71,"x_max":726,"o":"m 560 789 l 708 789 q 726 771 726 789 l 726 771 l 726 282 q 640 65 726 146 q 410 -17 554 -17 l 410 -17 q 179 63 265 -17 q 93 276 93 143 l 93 276 l 93 368 q 114 485 93 439 q 169 579 135 532 l 169 579 q 185 601 172 582 q 204 636 199 619 l 204 636 l 89 636 q 71 654 71 636 l 71 654 l 71 771 q 89 789 71 789 l 89 789 l 371 789 q 389 771 389 789 l 389 771 l 389 697 q 376 631 389 663 q 339 558 364 600 l 339 558 q 293 466 308 506 q 278 376 278 426 l 278 376 l 278 299 q 312 188 278 226 q 408 150 346 150 l 408 150 q 507 190 472 150 q 542 304 542 231 l 542 304 l 542 771 q 560 789 542 789 l 560 789 z "},"ช":{"ha":835,"x_min":71,"x_max":788,"o":"m 603 806 l 768 806 q 783 799 779 806 q 782 783 788 792 l 782 783 l 660 579 q 738 408 738 532 l 738 408 l 738 282 q 649 65 738 146 q 414 -17 561 -17 l 414 -17 q 180 63 267 -17 q 93 276 93 142 l 93 276 l 93 368 q 114 487 93 439 q 169 579 135 535 l 169 579 q 204 636 199 617 l 204 636 l 89 636 q 71 654 71 636 l 71 654 l 71 771 q 89 789 71 789 l 89 789 l 371 789 q 389 771 389 789 l 389 771 l 389 697 q 376 631 389 663 q 339 558 364 600 l 339 558 q 293 466 308 506 q 278 376 278 426 l 278 376 l 278 299 q 313 188 278 226 q 414 150 349 150 l 414 150 q 517 190 481 150 q 553 304 553 231 l 553 304 l 553 364 q 469 450 553 450 l 469 450 l 436 450 q 417 468 417 450 l 417 468 l 417 583 q 436 603 417 603 l 436 603 l 478 603 l 581 792 q 603 806 588 806 l 603 806 z "},"ฃ":{"ha":833,"x_min":44,"x_max":738,"o":"m 571 789 l 719 789 q 738 771 738 789 l 738 771 l 738 282 q 698 124 738 192 q 586 20 658 57 q 418 -17 514 -17 l 418 -17 q 250 19 322 -17 q 138 122 178 56 q 99 276 99 188 l 99 276 l 99 358 q 121 478 99 431 q 181 576 143 526 l 181 576 q 199 601 185 582 q 218 635 213 619 l 218 635 l 63 635 q 44 653 44 635 l 44 653 l 44 771 q 63 789 44 789 l 63 789 l 117 789 q 140 782 131 789 l 140 782 l 215 731 l 290 783 q 313 789 300 789 l 313 789 l 385 789 q 403 771 403 789 l 403 771 l 403 686 q 390 620 403 651 q 350 547 376 589 l 350 547 q 301 455 318 496 q 283 361 283 414 l 283 361 l 283 299 q 319 189 283 228 q 417 150 354 150 l 417 150 q 517 190 482 150 q 553 304 553 231 l 553 304 l 553 771 q 571 789 553 789 l 571 789 z "},"ซ":{"ha":846,"x_min":44,"x_max":799,"o":"m 614 806 l 779 806 q 794 799 790 806 q 793 783 799 792 l 793 783 l 671 579 q 749 408 749 532 l 749 408 l 749 282 q 660 65 749 146 q 424 -17 572 -17 l 424 -17 q 187 63 275 -17 q 99 276 99 142 l 99 276 l 99 358 q 121 480 99 431 q 181 576 143 529 l 181 576 q 218 635 210 610 l 218 635 l 63 635 q 44 653 44 635 l 44 653 l 44 771 q 63 789 44 789 l 63 789 l 117 789 q 140 782 131 789 l 140 782 l 215 731 l 290 783 q 313 789 300 789 l 313 789 l 385 789 q 403 771 403 789 l 403 771 l 403 686 q 389 619 403 651 q 350 547 375 586 l 350 547 q 301 456 318 497 q 283 361 283 415 l 283 361 l 283 299 q 319 188 283 226 q 422 150 356 150 l 422 150 q 527 190 490 150 q 564 304 564 231 l 564 304 l 564 364 q 481 450 564 450 l 481 450 l 446 450 q 428 468 428 450 l 428 468 l 428 585 q 446 603 428 603 l 446 603 l 489 603 l 592 792 q 614 806 599 806 l 614 806 z "},"ค":{"ha":890,"x_min":96,"x_max":794,"o":"m 263 0 l 114 0 q 96 18 96 0 l 96 18 l 96 469 q 138 647 96 571 q 257 765 179 724 q 438 806 335 806 l 438 806 q 626 765 546 806 q 751 647 707 724 q 794 469 794 571 l 794 469 l 794 18 q 776 0 794 0 l 776 0 l 628 0 q 610 18 610 0 l 610 18 l 610 442 q 566 588 610 538 q 438 639 522 639 l 438 639 q 276 442 276 639 l 276 442 l 276 406 l 467 406 q 485 388 485 406 l 485 388 l 485 265 q 467 247 485 247 l 467 247 l 281 247 l 281 18 q 263 0 281 0 l 263 0 z "},"ศ":{"ha":897,"x_min":96,"x_max":875,"o":"m 438 797 l 857 797 q 875 779 875 797 l 875 779 l 875 663 q 857 644 875 644 l 857 644 l 719 644 q 794 481 794 592 l 794 481 l 794 18 q 776 0 794 0 l 776 0 l 628 0 q 610 18 610 0 l 610 18 l 610 442 q 566 585 610 535 q 438 636 522 636 l 438 636 q 276 442 276 636 l 276 442 l 276 406 l 467 406 q 485 388 485 406 l 485 388 l 485 265 q 467 247 485 247 l 467 247 l 281 247 l 281 18 q 263 0 281 0 l 263 0 l 114 0 q 96 18 96 0 l 96 18 l 96 469 q 188 710 96 622 q 438 797 281 797 l 438 797 z "},"ฅ":{"ha":910,"x_min":99,"x_max":811,"o":"m 265 0 l 117 0 q 99 18 99 0 l 99 18 l 99 518 q 156 698 99 625 q 321 800 214 771 l 321 800 l 453 724 l 586 800 q 753 700 694 774 q 811 518 811 626 l 811 518 l 811 18 q 793 0 811 0 l 793 0 l 644 0 q 626 18 626 0 l 626 18 l 626 529 q 611 601 626 574 q 567 636 596 628 l 567 636 l 458 578 l 447 578 l 340 636 q 295 597 311 625 q 279 529 279 569 l 279 529 l 279 394 l 476 394 q 494 376 494 394 l 494 376 l 494 254 q 476 236 494 236 l 476 236 l 283 236 l 283 18 q 265 0 283 0 l 265 0 z "},"ด":{"ha":897,"x_min":82,"x_max":801,"o":"m 371 -14 q 160 68 238 -14 q 82 289 82 150 l 82 289 l 82 474 q 126 649 82 574 q 251 765 169 724 q 442 806 332 806 l 442 806 q 631 765 550 806 q 757 649 713 724 q 801 474 801 574 l 801 474 l 801 18 q 783 0 801 0 l 783 0 l 635 0 q 617 18 617 0 l 617 18 l 617 451 q 572 590 617 542 q 442 639 526 639 l 442 639 q 312 590 357 639 q 267 451 267 542 l 267 451 l 267 306 q 300 190 267 231 q 394 150 333 150 l 394 150 q 446 161 422 150 l 446 161 l 457 164 q 469 154 465 164 l 469 154 l 518 46 q 521 36 521 38 l 521 36 q 513 21 521 28 l 513 21 q 371 -14 461 -14 l 371 -14 z "},"ต":{"ha":914,"x_min":82,"x_max":815,"o":"m 378 -14 q 222 24 289 -14 q 119 129 156 61 q 82 289 82 197 l 82 289 l 82 488 q 147 692 82 611 q 331 800 211 772 l 331 800 l 457 724 l 585 800 q 755 699 694 772 q 815 518 815 625 l 815 518 l 815 18 q 797 0 815 0 l 797 0 l 649 0 q 631 18 631 0 l 631 18 l 631 529 q 614 600 631 572 q 565 636 597 628 l 565 636 l 463 578 l 451 578 l 350 636 q 288 578 310 622 q 267 465 267 535 l 267 465 l 267 306 q 303 191 267 232 q 401 150 339 150 l 401 150 q 453 161 429 150 l 453 161 l 464 164 q 476 154 472 164 l 476 154 l 525 46 q 528 36 528 38 l 528 36 q 519 21 528 28 l 519 21 q 378 -14 468 -14 l 378 -14 z "},"ฒ":{"ha":1376,"x_min":82,"x_max":1278,"o":"m 372 -14 q 161 69 240 -14 q 82 289 82 151 l 82 289 l 82 488 q 145 692 82 613 q 328 800 208 772 l 328 800 l 451 724 l 576 800 q 744 699 685 774 q 804 518 804 625 l 804 518 l 804 361 q 851 207 804 264 q 965 150 897 150 l 965 150 q 1059 198 1025 150 q 1093 328 1093 246 l 1093 328 l 1093 771 q 1111 789 1093 789 l 1111 789 l 1260 789 q 1278 771 1278 789 l 1278 771 l 1278 265 q 1209 60 1278 138 q 1025 -17 1140 -17 l 1025 -17 q 796 108 881 -17 l 796 108 l 790 18 q 772 0 789 0 l 772 0 l 638 0 q 619 18 619 0 l 619 18 l 619 529 q 603 600 619 572 q 557 636 588 628 l 557 636 l 457 578 l 446 578 l 347 636 q 267 465 267 608 l 267 465 l 267 306 q 301 191 267 232 q 396 150 336 150 l 396 150 q 447 161 424 150 l 447 161 l 458 164 q 471 154 467 164 l 471 154 l 519 46 q 522 36 522 38 l 522 36 q 514 21 522 28 l 514 21 q 372 -14 463 -14 l 372 -14 z "},"ท":{"ha":893,"x_min":104,"x_max":794,"o":"m 271 0 l 122 0 q 104 18 104 0 l 104 18 l 104 771 q 122 789 104 789 l 122 789 l 257 789 q 276 771 276 789 l 276 771 l 281 681 q 385 773 321 740 q 525 806 449 806 l 525 806 q 722 728 649 806 q 794 521 794 651 l 794 521 l 794 18 q 776 0 794 0 l 776 0 l 628 0 q 610 18 610 0 l 610 18 l 610 454 q 572 590 610 540 q 468 639 535 639 l 468 639 q 339 574 389 639 q 289 407 289 510 l 289 407 l 289 18 q 271 0 289 0 l 271 0 z "},"ฑ":{"ha":899,"x_min":50,"x_max":794,"o":"m 599 803 q 742 751 690 803 q 794 601 794 700 l 794 601 l 794 18 q 776 0 794 0 l 776 0 l 628 0 q 610 18 610 0 l 610 18 l 610 543 q 525 643 610 643 l 525 643 q 454 616 490 643 q 357 513 418 589 l 357 513 q 303 426 317 461 q 289 333 289 390 l 289 333 l 289 18 q 271 0 289 0 l 271 0 l 122 0 q 104 18 104 0 l 104 18 l 104 350 q 118 451 104 413 q 169 538 132 490 l 169 538 q 213 594 200 574 q 228 635 225 615 l 228 635 l 68 635 q 50 653 50 635 l 50 653 l 50 771 q 68 789 50 789 l 68 789 l 122 789 q 146 782 136 789 l 146 782 l 221 731 l 296 783 q 318 789 306 789 l 318 789 l 376 789 q 394 771 394 789 l 394 771 l 394 704 q 490 779 442 756 q 599 803 538 803 l 599 803 z "},"น":{"ha":889,"x_min":99,"x_max":785,"o":"m 365 -17 q 170 60 242 -17 q 99 268 99 138 l 99 268 l 99 771 q 117 789 99 789 l 117 789 l 265 789 q 283 771 283 789 l 283 771 l 283 335 q 319 199 283 247 q 421 150 356 150 l 421 150 q 549 213 497 150 q 600 382 600 276 l 600 382 l 600 771 q 618 789 600 789 l 618 789 l 767 789 q 785 771 785 789 l 785 771 l 785 18 q 767 0 785 0 l 767 0 l 631 0 q 613 18 613 0 l 613 18 l 608 108 q 505 16 568 49 q 365 -17 442 -17 l 365 -17 z "},"ม":{"ha":889,"x_min":104,"x_max":790,"o":"m 524 -17 q 384 16 447 -17 q 281 108 321 49 l 281 108 l 276 18 q 257 0 276 0 l 257 0 l 122 0 q 104 18 104 0 l 104 18 l 104 771 q 122 789 104 789 l 122 789 l 271 789 q 289 771 289 789 l 289 771 l 289 382 q 313 258 289 311 q 377 178 336 206 q 467 150 418 150 l 467 150 q 569 202 533 150 q 606 346 606 254 l 606 346 l 606 771 q 624 789 606 789 l 624 789 l 772 789 q 790 771 790 789 l 790 771 l 790 279 q 718 63 790 143 q 524 -17 646 -17 l 524 -17 z "},"ฆ":{"ha":903,"x_min":50,"x_max":804,"o":"m 638 789 l 786 789 q 804 771 804 789 l 804 771 l 804 279 q 731 63 804 143 q 531 -17 657 -17 l 531 -17 q 388 16 453 -17 q 281 108 322 49 l 281 108 l 276 18 q 257 0 276 0 l 257 0 l 124 0 q 110 5 115 0 q 104 18 104 10 l 104 18 l 104 372 q 127 491 104 443 q 188 583 150 539 l 188 583 q 222 635 214 614 l 222 635 l 68 635 q 50 653 50 635 l 50 653 l 50 771 q 68 789 50 789 l 68 789 l 122 789 q 146 782 136 789 l 146 782 l 221 731 l 296 783 q 318 789 306 789 l 318 789 l 390 789 q 408 771 408 789 l 408 771 l 408 686 q 395 623 408 653 q 356 554 382 593 l 356 554 q 306 466 324 506 q 289 374 289 426 l 289 374 l 289 358 q 342 207 289 264 q 474 150 396 150 l 474 150 q 581 197 543 150 q 619 326 619 244 l 619 326 l 619 771 q 638 789 619 789 l 638 789 z "},"ธ":{"ha":779,"x_min":75,"x_max":721,"o":"m 254 547 l 464 507 q 656 417 590 483 q 721 246 721 350 l 721 246 q 637 65 721 129 q 401 0 553 0 l 401 0 l 115 0 q 97 18 97 0 l 97 18 l 97 326 q 115 344 97 344 l 115 344 l 264 344 q 282 326 282 344 l 282 326 l 282 147 l 397 147 q 494 175 458 147 q 531 251 531 203 l 531 251 q 495 331 531 299 q 393 375 460 363 l 393 375 l 92 433 q 80 440 85 435 q 75 453 75 446 l 75 453 l 75 517 q 160 730 75 654 q 400 806 246 806 l 400 806 q 599 758 521 806 q 710 615 678 710 l 710 615 q 711 607 711 613 l 711 607 q 697 593 711 594 l 697 593 l 564 572 l 558 572 q 540 582 546 572 l 540 582 q 397 658 503 658 l 397 658 q 296 629 333 658 q 254 547 258 600 l 254 547 z "},"ร":{"ha":696,"x_min":44,"x_max":643,"o":"m 350 -17 q 157 33 235 -17 q 46 185 79 83 l 46 185 q 44 193 44 188 l 44 193 q 58 208 44 204 l 58 208 l 188 235 l 193 236 q 210 224 204 236 l 210 224 q 350 139 254 139 l 350 139 q 428 160 400 139 q 456 218 456 182 l 456 218 q 349 311 456 288 l 349 311 l 304 321 q 68 571 68 372 l 68 571 q 144 742 68 679 q 349 806 219 806 l 349 806 q 528 759 458 806 q 632 617 599 713 l 632 617 q 633 610 633 614 l 633 610 q 618 594 633 599 l 618 594 l 499 571 l 492 569 q 475 582 479 569 l 475 582 q 428 635 461 617 q 349 653 394 653 l 349 653 q 276 634 301 653 q 251 581 251 615 l 251 581 q 278 524 251 546 q 367 489 304 503 l 367 489 l 410 479 q 643 228 643 425 l 643 228 q 565 49 643 114 q 350 -17 486 -17 l 350 -17 z "},"จ":{"ha":803,"x_min":33,"x_max":746,"o":"m 379 806 q 574 760 490 806 q 701 631 657 715 q 746 432 746 546 l 746 432 q 688 201 746 304 q 517 8 631 99 l 517 8 q 494 0 507 0 l 494 0 l 286 0 q 264 15 268 0 l 264 15 l 182 296 l 92 296 q 74 314 74 296 l 74 314 l 74 431 q 92 449 74 449 l 92 449 l 313 449 q 326 444 319 449 q 335 433 333 440 l 335 433 l 407 142 q 557 426 557 263 l 557 426 q 507 582 557 525 q 368 639 457 639 l 368 639 q 269 615 313 639 q 206 550 226 592 l 206 550 q 181 540 197 536 l 181 540 l 51 575 q 40 599 33 579 l 40 599 q 167 751 79 697 q 379 806 256 806 l 379 806 z "},"ฐ":{"ha":810,"x_min":33,"x_max":800,"o":"m 379 797 l 781 797 q 800 778 800 797 l 800 778 l 800 664 q 781 644 800 644 l 781 644 l 661 644 q 724 554 701 611 q 746 426 746 497 l 746 426 q 689 199 746 300 q 517 8 632 99 l 517 8 q 494 0 507 0 l 494 0 l 286 0 q 264 15 268 0 l 264 15 l 182 296 l 92 296 q 74 314 74 296 l 74 314 l 74 431 q 92 449 74 449 l 92 449 l 313 449 q 326 444 319 449 q 335 433 333 440 l 335 433 l 407 142 q 557 426 557 263 l 557 426 q 507 581 557 525 q 368 636 457 636 l 368 636 q 269 615 311 636 q 206 550 226 593 l 206 550 q 181 540 200 536 l 181 540 l 51 575 q 40 599 33 579 l 40 599 q 167 746 78 694 q 379 797 257 797 l 379 797 z m 575 -69 l 714 -69 q 732 -87 732 -69 l 732 -87 l 732 -135 q 680 -276 732 -222 q 544 -329 628 -329 l 544 -329 q 455 -310 496 -329 q 388 -257 414 -292 l 388 -257 q 326 -310 364 -292 q 244 -329 288 -329 l 244 -329 q 124 -284 175 -329 q 54 -161 74 -239 l 54 -161 l 53 -154 q 67 -139 53 -143 l 67 -139 l 196 -103 l 201 -101 q 215 -115 211 -101 l 215 -115 q 279 -176 231 -176 l 279 -176 q 319 -160 303 -176 q 343 -114 336 -144 l 343 -114 q 363 -97 347 -97 l 363 -97 l 408 -97 q 428 -114 424 -97 l 428 -114 q 496 -176 440 -176 l 496 -176 q 541 -158 525 -176 q 557 -106 557 -139 l 557 -106 l 557 -87 q 575 -69 557 -69 l 575 -69 z "},"ว":{"ha":807,"x_min":50,"x_max":750,"o":"m 388 -17 q 183 42 268 -17 q 64 208 99 101 l 64 208 q 63 217 63 211 l 63 217 q 76 232 63 228 l 76 232 l 213 269 l 219 271 q 236 257 232 271 l 236 257 q 297 173 258 201 q 386 144 335 144 l 386 144 q 513 213 467 144 q 560 397 560 281 l 560 397 q 512 578 560 511 q 382 644 464 644 l 382 644 q 287 615 328 644 q 224 529 246 585 l 224 529 q 215 517 219 519 q 200 515 210 514 l 200 515 l 65 550 q 53 558 56 551 q 53 574 50 565 l 53 574 q 176 745 89 685 q 386 806 264 806 l 386 806 q 580 756 497 806 q 706 615 663 707 q 750 397 750 522 l 750 397 q 706 177 750 271 q 581 33 663 83 q 388 -17 499 -17 l 388 -17 z "},"ง":{"ha":810,"x_min":28,"x_max":753,"o":"m 461 803 q 615 759 549 803 q 717 635 681 715 q 753 446 753 554 l 753 446 q 678 176 753 290 q 465 6 604 63 l 465 6 q 442 0 456 0 l 442 0 l 274 0 q 253 17 257 0 l 253 17 l 29 769 q 28 776 28 772 l 28 776 q 46 789 28 789 l 46 789 l 197 789 q 217 774 213 789 l 217 774 l 392 164 q 519 275 475 203 q 563 446 563 347 l 563 446 q 531 588 563 536 q 442 639 499 639 l 442 639 q 392 628 417 639 l 392 628 l 381 625 q 368 635 372 625 l 368 635 l 319 743 q 317 753 317 751 l 317 753 q 325 768 317 763 l 325 768 q 461 803 378 803 l 461 803 z "},"ฉ":{"ha":847,"x_min":76,"x_max":750,"o":"m 344 -17 q 159 57 226 -17 q 92 258 92 131 l 92 258 l 92 411 q 110 431 92 431 l 110 431 l 258 431 q 276 411 276 431 l 276 411 l 276 314 q 310 194 276 238 q 403 150 343 150 l 403 150 q 520 208 475 150 q 565 356 565 265 l 565 356 l 565 493 q 526 601 565 563 q 414 639 486 639 l 414 639 q 251 549 301 639 l 251 549 q 228 539 243 532 l 228 539 l 96 585 q 85 608 76 592 l 85 608 q 215 752 124 699 q 424 806 306 806 l 424 806 q 662 718 574 806 q 750 482 750 631 l 750 482 l 750 18 q 731 0 750 0 l 731 0 l 596 0 q 578 18 578 0 l 578 18 l 574 101 q 476 14 535 44 q 344 -17 417 -17 l 344 -17 z "},"ล":{"ha":843,"x_min":74,"x_max":747,"o":"m 417 806 q 658 720 569 806 q 747 489 747 635 l 747 489 l 747 18 q 729 0 747 0 l 729 0 l 581 0 q 563 18 563 0 l 563 18 l 563 325 l 449 325 q 307 302 354 325 q 260 229 260 279 l 260 229 q 286 171 260 192 q 358 150 313 150 l 358 150 q 411 161 388 150 l 411 161 l 422 164 q 435 154 431 164 l 435 154 l 483 46 q 486 36 486 38 l 486 36 q 478 21 486 28 l 478 21 q 332 -14 426 -14 l 332 -14 q 144 45 213 -14 q 75 211 75 104 l 75 211 q 173 406 75 336 q 451 475 271 475 l 451 475 l 563 475 l 563 500 q 520 606 563 567 q 406 644 478 644 l 406 644 q 247 554 297 644 l 247 554 q 224 544 239 540 l 224 544 l 93 585 q 81 608 74 592 l 81 608 q 210 753 121 701 q 417 806 299 806 l 417 806 z "},"ส":{"ha":850,"x_min":74,"x_max":828,"o":"m 413 797 l 810 797 q 828 779 828 797 l 828 779 l 828 663 q 810 644 828 644 l 810 644 l 672 644 q 747 481 747 593 l 747 481 l 747 18 q 729 0 747 0 l 729 0 l 581 0 q 563 18 563 0 l 563 18 l 563 325 l 449 325 q 307 302 354 325 q 260 229 260 279 l 260 229 q 286 171 260 192 q 358 150 313 150 l 358 150 q 411 161 388 150 l 411 161 l 422 164 q 435 154 431 164 l 435 154 l 483 46 q 486 36 486 38 l 486 36 q 478 21 486 28 l 478 21 q 332 -14 426 -14 l 332 -14 q 144 45 213 -14 q 75 211 75 104 l 75 211 q 173 406 75 336 q 451 475 271 475 l 451 475 l 563 475 l 563 496 q 520 599 563 563 q 406 636 478 636 l 406 636 q 247 550 296 636 l 247 550 q 224 540 239 536 l 224 540 l 93 581 q 81 604 74 588 l 81 604 q 208 747 121 697 q 413 797 294 797 l 413 797 z "},"บ":{"ha":883,"x_min":96,"x_max":788,"o":"m 442 -17 q 259 24 338 -17 q 138 138 181 64 q 96 311 96 213 l 96 311 l 96 771 q 114 789 96 789 l 114 789 l 263 789 q 281 771 281 789 l 281 771 l 281 339 q 322 199 281 249 q 442 150 364 150 l 442 150 q 561 199 519 150 q 603 339 603 249 l 603 339 l 603 771 q 621 789 603 789 l 621 789 l 769 789 q 788 771 788 789 l 788 771 l 788 311 q 745 138 788 213 q 624 24 703 64 q 442 -17 546 -17 l 442 -17 z "},"ป":{"ha":883,"x_min":96,"x_max":788,"o":"m 442 -17 q 259 24 338 -17 q 138 138 181 64 q 96 311 96 213 l 96 311 l 96 771 q 114 789 96 789 l 114 789 l 263 789 q 281 771 281 789 l 281 771 l 281 339 q 322 199 281 249 q 442 150 364 150 l 442 150 q 561 199 519 150 q 603 339 603 249 l 603 339 l 603 1071 q 621 1089 603 1089 l 621 1089 l 769 1089 q 788 1071 788 1089 l 788 1071 l 788 311 q 745 138 788 213 q 624 24 703 64 q 442 -17 546 -17 l 442 -17 z "},"ษ":{"ha":932,"x_min":96,"x_max":907,"o":"m 808 556 l 889 556 q 907 538 907 556 l 907 538 l 907 415 q 889 397 907 397 l 889 397 l 808 397 l 808 313 q 765 138 808 213 q 640 24 721 64 q 451 -17 560 -17 l 451 -17 q 263 24 343 -17 q 139 138 182 64 q 96 313 96 213 l 96 313 l 96 771 q 114 789 96 789 l 114 789 l 263 789 q 281 771 281 789 l 281 771 l 281 346 q 325 201 281 251 q 451 150 369 150 l 451 150 q 579 201 535 150 q 624 346 624 251 l 624 346 l 624 397 l 447 397 q 429 415 429 397 l 429 415 l 429 538 q 447 556 429 556 l 447 556 l 624 556 l 624 771 q 642 789 624 789 l 642 789 l 790 789 q 808 771 808 789 l 808 771 l 808 556 z "},"ย":{"ha":860,"x_min":69,"x_max":756,"o":"m 738 0 l 381 0 q 153 62 229 0 q 76 233 76 124 l 76 233 q 112 352 76 300 q 207 424 147 404 l 207 424 q 107 487 144 438 q 69 603 69 536 l 69 603 q 136 749 69 694 q 315 803 203 803 l 315 803 q 465 768 407 803 l 465 768 q 471 743 478 760 l 471 743 l 424 636 q 411 626 419 626 l 411 626 l 400 629 q 340 640 369 640 l 340 640 q 279 622 304 640 q 254 571 254 604 l 254 571 q 279 518 254 536 q 351 500 304 500 l 351 500 l 456 500 q 474 482 474 500 l 474 482 l 474 369 q 456 350 474 350 l 456 350 l 392 350 q 298 326 332 350 q 264 257 264 301 l 264 257 q 403 158 264 158 l 403 158 l 553 158 q 571 176 571 158 l 571 176 l 571 771 q 589 789 571 789 l 589 789 l 738 789 q 756 771 756 789 l 756 771 l 756 18 q 738 0 756 0 l 738 0 z "},"ผ":{"ha":936,"x_min":99,"x_max":832,"o":"m 272 0 l 117 0 q 99 18 99 0 l 99 18 l 99 543 q 158 735 99 671 q 333 800 217 800 l 333 800 q 475 765 424 800 l 475 765 q 481 740 488 757 l 481 740 l 432 632 q 419 622 428 622 l 419 622 l 408 625 q 357 636 386 636 l 357 636 q 292 608 313 636 q 271 518 271 579 l 271 518 l 271 215 l 432 413 q 454 424 440 424 l 454 424 l 472 424 q 494 413 486 424 l 494 413 l 656 215 l 656 771 q 674 789 656 789 l 674 789 l 814 789 q 832 771 832 789 l 832 771 l 832 18 q 814 0 832 0 l 814 0 l 654 0 q 632 11 640 0 l 632 11 l 464 225 l 294 11 q 272 0 286 0 l 272 0 z "},"ฝ":{"ha":936,"x_min":99,"x_max":832,"o":"m 272 0 l 117 0 q 99 18 99 0 l 99 18 l 99 543 q 158 735 99 671 q 333 800 217 800 l 333 800 q 475 765 424 800 l 475 765 q 481 740 488 757 l 481 740 l 432 632 q 419 622 428 622 l 419 622 l 408 625 q 357 636 386 636 l 357 636 q 292 608 313 636 q 271 518 271 579 l 271 518 l 271 215 l 432 413 q 454 424 440 424 l 454 424 l 472 424 q 494 413 486 424 l 494 413 l 656 215 l 656 1071 q 674 1089 656 1089 l 674 1089 l 814 1089 q 832 1071 832 1089 l 832 1071 l 832 18 q 814 0 832 0 l 814 0 l 654 0 q 632 11 640 0 l 632 11 l 464 225 l 294 11 q 272 0 286 0 l 272 0 z "},"ฟ":{"ha":993,"x_min":28,"x_max":1004,"o":"m 839 1089 l 988 1089 q 1000 1083 996 1089 q 1003 1068 1004 1078 l 1003 1068 l 788 17 q 781 5 786 10 q 769 0 776 0 l 769 0 l 650 0 q 629 17 633 0 l 629 17 l 493 492 l 353 15 q 332 0 349 0 l 332 0 l 217 0 q 196 17 200 0 l 196 17 l 28 769 l 28 775 q 44 789 28 789 l 44 789 l 192 789 q 213 774 210 789 l 213 774 l 299 357 l 432 774 q 451 789 436 789 l 451 789 l 538 789 q 558 774 554 789 l 558 774 l 683 357 l 819 1072 q 839 1089 822 1089 l 839 1089 z "},"พ":{"ha":989,"x_min":26,"x_max":965,"o":"m 801 789 l 946 789 q 961 769 965 789 l 961 769 l 790 17 q 769 0 786 0 l 769 0 l 654 0 q 633 15 638 0 l 633 15 l 496 489 l 356 15 q 335 0 351 0 l 335 0 l 219 0 q 199 17 203 0 l 199 17 l 28 769 l 26 775 q 43 789 26 789 l 43 789 l 192 789 q 213 774 208 789 l 213 774 l 301 357 l 433 774 q 453 789 438 789 l 453 789 l 539 789 q 560 774 556 789 l 560 774 l 692 357 l 781 774 q 801 789 785 789 l 801 789 z "},"ห":{"ha":865,"x_min":104,"x_max":810,"o":"m 649 400 l 808 21 q 810 13 810 18 l 810 13 q 794 0 810 0 l 794 0 l 635 0 q 621 4 628 0 q 613 14 614 8 l 613 14 l 468 369 l 289 369 l 289 18 q 271 0 289 0 l 271 0 l 122 0 q 104 18 104 0 l 104 18 l 104 771 q 122 789 104 789 l 122 789 l 267 789 q 285 771 285 789 l 285 771 l 285 528 l 478 528 q 574 559 542 528 q 607 650 607 590 l 607 650 l 607 771 q 625 789 607 789 l 625 789 l 771 789 q 789 771 789 789 l 789 771 l 789 632 q 752 490 789 550 q 649 400 715 431 l 649 400 z "},"ฬ":{"ha":989,"x_min":28,"x_max":997,"o":"m 813 1007 l 979 1007 q 993 1000 989 1007 q 992 985 997 993 l 992 985 l 861 779 q 935 672 935 754 l 935 672 q 929 625 935 647 l 929 625 l 788 17 q 768 0 783 0 l 768 0 l 651 0 q 631 15 636 0 l 631 15 l 494 335 l 351 14 q 331 0 346 0 l 331 0 l 215 0 q 196 17 200 0 l 196 17 l 28 769 l 28 775 q 44 789 28 789 l 44 789 l 192 789 q 213 772 208 789 l 213 772 l 310 281 l 432 531 q 451 544 438 544 l 451 544 l 533 544 q 554 531 549 544 l 554 531 l 678 281 l 743 592 q 744 604 744 596 l 744 604 q 732 634 744 624 q 697 644 719 644 l 697 644 l 444 644 q 426 663 426 644 l 426 663 l 426 771 q 444 789 426 789 l 444 789 l 672 789 l 790 993 q 813 1007 797 1007 l 813 1007 z "},"อ":{"ha":849,"x_min":54,"x_max":792,"o":"m 406 806 q 610 755 522 806 q 744 610 697 704 q 792 392 792 517 l 792 392 q 745 176 792 268 q 613 33 699 83 q 411 -17 526 -17 l 411 -17 q 222 27 303 -17 q 98 151 142 71 q 54 339 54 232 l 54 339 l 54 438 q 72 456 54 456 l 72 456 l 414 456 q 432 438 432 456 l 432 438 l 432 321 q 414 303 432 303 l 414 303 l 238 303 q 289 190 244 232 q 404 147 333 147 l 404 147 q 548 215 494 147 q 601 394 601 282 l 601 394 q 545 575 601 508 q 392 642 489 642 l 392 642 q 292 617 335 642 q 228 549 250 593 l 228 549 q 204 539 219 535 l 204 539 l 74 576 q 63 600 56 582 l 63 600 q 194 751 103 697 q 406 806 285 806 l 406 806 z "},"ฮ":{"ha":856,"x_min":54,"x_max":846,"o":"m 406 797 l 826 797 q 846 778 846 797 l 846 778 l 846 664 q 826 644 846 644 l 826 644 l 706 644 q 769 544 747 608 q 792 392 792 479 l 792 392 q 745 176 792 268 q 613 33 699 83 q 411 -17 526 -17 l 411 -17 q 222 27 303 -17 q 98 151 142 71 q 54 339 54 232 l 54 339 l 54 438 q 72 456 54 456 l 72 456 l 414 456 q 432 438 432 456 l 432 438 l 432 321 q 414 303 432 303 l 414 303 l 238 303 q 289 190 244 232 q 404 147 333 147 l 404 147 q 548 215 494 147 q 601 394 601 282 l 601 394 q 545 572 601 507 q 392 636 489 636 l 392 636 q 292 613 335 636 q 228 544 250 589 l 228 544 q 204 535 219 531 l 204 535 l 74 572 q 63 596 56 578 l 63 596 q 192 744 101 692 q 406 797 282 797 l 406 797 z "},"า":{"ha":674,"x_min":26,"x_max":575,"o":"m 557 0 l 408 0 q 390 18 390 0 l 390 18 l 390 521 q 365 608 390 576 q 292 639 339 639 l 292 639 q 192 567 219 639 l 192 567 q 182 555 189 558 q 168 554 175 551 l 168 554 l 42 590 q 30 599 33 593 q 29 614 26 606 l 29 614 q 132 756 61 706 q 303 806 203 806 l 303 806 q 502 727 429 806 q 575 514 575 649 l 575 514 l 575 18 q 557 0 575 0 l 557 0 z "},"ำ":{"ha":674,"x_min":-336,"x_max":575,"o":"m -182 875 q -292 917 -249 875 q -336 1024 -336 960 l -336 1024 q -292 1130 -336 1088 q -182 1172 -249 1172 l -182 1172 q -72 1130 -115 1172 q -28 1024 -28 1088 l -28 1024 q -72 917 -28 960 q -182 875 -115 875 l -182 875 z m -182 972 q -145 987 -160 972 q -131 1024 -131 1001 l -131 1024 q -145 1060 -131 1046 q -182 1075 -160 1075 l -182 1075 q -219 1060 -204 1075 q -233 1024 -233 1046 l -233 1024 q -219 987 -233 1001 q -182 972 -204 972 l -182 972 z m 557 0 l 408 0 q 390 18 390 0 l 390 18 l 390 521 q 365 608 390 576 q 292 639 339 639 l 292 639 q 192 567 219 639 l 192 567 q 182 555 189 558 q 168 554 175 551 l 168 554 l 42 590 q 30 599 33 593 q 29 614 26 606 l 29 614 q 132 756 61 706 q 303 806 203 806 l 303 806 q 502 727 429 806 q 575 514 575 649 l 575 514 l 575 18 q 557 0 575 0 l 557 0 z "},"ๅ":{"ha":674,"x_min":26,"x_max":575,"o":"m 557 -306 l 408 -306 q 390 -287 390 -306 l 390 -287 l 390 521 q 365 608 390 576 q 292 639 339 639 l 292 639 q 192 567 219 639 l 192 567 q 182 555 189 558 q 168 554 175 551 l 168 554 l 42 590 q 30 599 33 593 q 29 614 26 606 l 29 614 q 132 756 61 706 q 303 806 203 806 l 303 806 q 502 727 429 806 q 575 514 575 649 l 575 514 l 575 -287 q 557 -306 575 -306 l 557 -306 z "},"ะ":{"ha":506,"x_min":64,"x_max":436,"o":"m 418 447 l 269 447 q 116 496 168 447 q 64 638 64 544 l 64 638 l 64 704 q 82 722 64 722 l 82 722 l 226 722 q 244 704 244 722 l 244 704 l 244 668 q 310 606 244 606 l 310 606 l 418 606 q 436 588 436 606 l 436 588 l 436 465 q 418 447 436 447 l 418 447 z m 418 56 l 269 56 q 116 104 168 56 q 64 246 64 153 l 64 246 l 64 313 q 82 331 64 331 l 82 331 l 228 331 q 246 313 246 331 l 246 313 l 246 276 q 311 214 246 214 l 311 214 l 418 214 q 436 196 436 214 l 436 196 l 436 74 q 418 56 436 56 l 418 56 z "},"เ":{"ha":404,"x_min":115,"x_max":300,"o":"m 282 0 l 133 0 q 115 18 115 0 l 115 18 l 115 771 q 133 789 115 789 l 133 789 l 282 789 q 300 771 300 789 l 300 771 l 300 18 q 282 0 300 0 l 282 0 z "},"แ":{"ha":774,"x_min":115,"x_max":669,"o":"m 282 0 l 133 0 q 115 18 115 0 l 115 18 l 115 771 q 133 789 115 789 l 133 789 l 282 789 q 300 771 300 789 l 300 771 l 300 18 q 282 0 300 0 l 282 0 z m 651 0 l 503 0 q 485 18 485 0 l 485 18 l 485 771 q 503 789 485 789 l 503 789 l 651 789 q 669 771 669 789 l 669 771 l 669 18 q 651 0 669 0 l 651 0 z "},"ไ":{"ha":449,"x_min":-6,"x_max":471,"o":"m 13 1289 l 453 1289 q 471 1271 471 1289 l 471 1271 l 471 1157 q 460 1135 471 1144 l 460 1135 q 371 1032 397 1090 q 344 883 344 974 l 344 883 l 344 18 q 326 0 344 0 l 326 0 l 178 0 q 160 18 160 0 l 160 18 l 160 881 q 180 1026 160 971 q 253 1136 200 1082 l 253 1136 l 13 1136 q -6 1154 -6 1136 l -6 1154 l -6 1271 q 13 1289 -6 1289 l 13 1289 z "},"ใ":{"ha":467,"x_min":-12,"x_max":511,"o":"m 511 1051 q 472 916 511 971 q 363 839 433 861 l 363 839 l 363 18 q 344 0 363 0 l 344 0 l 196 0 q 178 18 178 0 l 178 18 l 178 922 q 196 940 178 940 l 196 940 l 231 940 q 306 969 279 940 q 333 1046 333 997 l 333 1046 q 308 1120 333 1093 q 239 1147 282 1147 l 239 1147 q 183 1132 207 1147 q 149 1088 160 1117 l 149 1088 q 139 1077 146 1081 q 125 1076 132 1074 l 125 1076 l 4 1104 q -8 1113 -4 1107 q -10 1126 -12 1118 l -10 1126 q 89 1259 21 1213 q 253 1306 157 1306 l 253 1306 q 441 1235 371 1306 q 511 1051 511 1165 l 511 1051 z "},"โ":{"ha":449,"x_min":33,"x_max":510,"o":"m 121 1289 l 492 1289 q 510 1271 510 1289 l 510 1271 l 510 1154 q 492 1136 510 1136 l 492 1136 l 258 1136 q 326 1037 307 1090 q 344 896 344 983 l 344 896 l 344 18 q 326 0 344 0 l 326 0 l 178 0 q 160 18 160 0 l 160 18 l 160 883 q 133 1032 160 974 q 44 1135 107 1090 l 44 1135 q 33 1157 33 1144 l 33 1157 l 33 1196 q 58 1263 33 1238 q 121 1289 82 1289 l 121 1289 z "},"ั":{"ha":0,"x_min":-507,"x_max":32,"o":"m 14 889 l -319 889 q -458 933 -410 889 q -507 1060 -507 978 l -507 1060 l -507 1119 q -489 1138 -507 1138 l -489 1138 l -360 1138 q -342 1119 -342 1138 l -342 1119 l -342 1092 q -326 1049 -342 1064 q -283 1033 -311 1033 l -283 1033 l 14 1033 q 32 1015 32 1033 l 32 1015 l 32 907 q 14 889 32 889 l 14 889 z "},"่":{"ha":0,"x_min":-274,"x_max":-103,"o":"m -121 889 l -256 889 q -274 907 -274 889 l -274 907 l -274 1149 q -256 1167 -274 1167 l -256 1167 l -121 1167 q -103 1149 -103 1167 l -103 1149 l -103 907 q -121 889 -103 889 l -121 889 z "},"้":{"ha":0,"x_min":-529,"x_max":-25,"o":"m -272 1033 l -43 1033 q -25 1015 -25 1033 l -25 1015 l -25 907 q -43 889 -25 889 l -43 889 l -414 889 q -432 907 -432 889 l -432 907 l -432 1033 l -511 1033 q -529 1051 -529 1033 l -529 1051 l -529 1154 q -511 1172 -529 1172 l -511 1172 l -361 1172 q -295 1149 -318 1172 q -272 1082 -272 1125 l -272 1082 l -272 1033 z "},"๊":{"ha":0,"x_min":-687,"x_max":-53,"o":"m -179 1019 l -71 1019 q -53 1001 -53 1019 l -53 1001 l -53 907 q -71 889 -53 889 l -71 889 l -300 889 q -318 907 -318 889 l -318 907 l -318 993 q -353 1044 -318 1035 l -353 1044 l -421 1001 l -433 1001 l -500 1044 q -528 1027 -519 1039 q -536 993 -536 1015 l -536 993 l -536 907 q -554 889 -536 889 l -554 889 l -669 889 q -687 907 -687 889 l -687 907 l -687 1029 q -639 1138 -687 1096 q -512 1186 -590 1181 l -512 1186 l -426 1131 l -343 1186 q -222 1137 -265 1179 q -179 1029 -179 1094 l -179 1029 l -179 1019 z "},"๋":{"ha":0,"x_min":-392,"x_max":15,"o":"m -108 1117 l -3 1117 q 15 1099 15 1117 l 15 1099 l 15 1004 q -3 986 15 986 l -3 986 l -108 986 l -108 907 q -126 889 -108 889 l -126 889 l -250 889 q -268 907 -268 889 l -268 907 l -268 986 l -374 986 q -392 1004 -392 986 l -392 1004 l -392 1099 q -374 1117 -392 1117 l -374 1117 l -268 1117 l -268 1196 q -250 1214 -268 1214 l -250 1214 l -126 1214 q -108 1196 -108 1214 l -108 1196 l -108 1117 z "},"์":{"ha":0,"x_min":-387,"x_max":-29,"o":"m -240 889 l -369 889 q -387 907 -387 889 l -387 907 l -387 960 q -338 1092 -387 1043 q -200 1142 -289 1142 l -200 1142 l -47 1142 q -29 1124 -29 1142 l -29 1124 l -29 1021 q -47 1003 -29 1003 l -47 1003 l -157 1003 q -206 986 -189 1003 q -222 939 -222 969 l -222 939 l -222 907 q -240 889 -222 889 l -240 889 z "},"็":{"ha":0,"x_min":-694,"x_max":-146,"o":"m -164 1103 l -464 1103 q -513 1090 -496 1103 q -531 1054 -531 1078 l -531 1054 q -517 1021 -531 1033 q -478 1008 -503 1008 l -478 1008 q -442 1019 -457 1008 q -412 1056 -428 1029 l -412 1056 q -390 1069 -404 1069 l -390 1069 l -344 1069 q -325 1058 -332 1069 l -325 1058 l -310 1033 q -253 1014 -299 1014 l -253 1014 l -164 1014 q -146 996 -146 1014 l -146 996 l -146 907 q -164 889 -146 889 l -164 889 l -244 889 q -320 904 -287 889 q -369 950 -353 919 l -369 950 l -372 956 q -435 898 -396 918 q -525 878 -474 878 l -525 878 q -649 924 -603 878 q -694 1049 -694 971 l -694 1049 q -637 1185 -694 1135 q -483 1236 -581 1236 l -483 1236 l -164 1236 q -146 1218 -146 1236 l -146 1218 l -146 1121 q -164 1103 -146 1103 l -164 1103 z "},"๎":{"ha":0,"x_min":-393,"x_max":-96,"o":"m -203 1185 l -114 1185 q -96 1167 -96 1185 l -96 1167 l -96 1106 q -114 1088 -96 1088 l -114 1088 l -154 1088 q -192 1058 -192 1088 l -192 1058 q -157 1032 -192 1032 l -157 1032 l -144 1032 q -126 1014 -126 1032 l -126 1014 l -126 981 q -131 968 -126 974 q -144 963 -136 963 l -144 963 l -178 963 q -228 917 -228 963 l -228 917 l -228 907 q -246 889 -228 889 l -246 889 l -375 889 q -393 907 -393 889 l -393 907 l -393 925 q -374 985 -393 961 q -315 1018 -354 1010 l -315 1018 q -346 1078 -346 1042 l -346 1078 q -306 1152 -346 1119 q -203 1185 -267 1185 l -203 1185 z "},"ิ":{"ha":0,"x_min":-728,"x_max":-96,"o":"m -169 889 l -710 889 q -728 907 -728 889 l -728 907 l -728 1015 q -710 1033 -728 1033 l -710 1033 l -114 1033 q -101 1028 -107 1033 q -96 1015 -96 1024 l -96 1015 l -96 963 q -115 909 -96 929 q -169 889 -135 889 l -169 889 z "},"ี":{"ha":0,"x_min":-728,"x_max":-96,"o":"m -169 889 l -710 889 q -728 907 -728 889 l -728 907 l -728 1015 q -710 1033 -728 1033 l -710 1033 l -261 1033 l -261 1140 q -243 1158 -261 1158 l -243 1158 l -114 1158 q -96 1140 -96 1158 l -96 1140 l -96 963 q -115 908 -96 928 q -169 889 -135 889 l -169 889 z "},"ึ":{"ha":0,"x_min":-728,"x_max":-54,"o":"m -200 1172 q -95 1132 -136 1172 q -54 1031 -54 1092 l -54 1031 q -95 929 -54 969 q -200 889 -136 889 l -200 889 l -710 889 q -728 907 -728 889 l -728 907 l -728 1015 q -710 1033 -728 1033 l -710 1033 l -343 1033 q -301 1133 -342 1094 q -200 1172 -261 1172 l -200 1172 z m -199 979 q -162 994 -176 979 q -147 1031 -147 1008 l -147 1031 q -162 1067 -147 1053 q -199 1082 -176 1082 l -199 1082 q -235 1067 -221 1082 q -250 1031 -250 1053 l -250 1031 q -235 994 -250 1008 q -199 979 -221 979 l -199 979 z "},"ื":{"ha":0,"x_min":-728,"x_max":-96,"o":"m -217 1158 l -114 1158 q -96 1140 -96 1158 l -96 1140 l -96 963 q -115 909 -96 929 q -169 889 -135 889 l -169 889 l -710 889 q -728 907 -728 889 l -728 907 l -728 1015 q -710 1033 -728 1033 l -710 1033 l -435 1033 l -435 1140 q -417 1158 -435 1158 l -417 1158 l -319 1158 q -301 1140 -301 1158 l -301 1140 l -301 1026 l -235 1026 l -235 1140 q -217 1158 -235 1158 l -217 1158 z "},"ํ":{"ha":0,"x_min":-337,"x_max":-29,"o":"m -183 875 q -294 917 -250 875 q -337 1024 -337 960 l -337 1024 q -294 1130 -337 1088 q -183 1172 -250 1172 l -183 1172 q -73 1130 -117 1172 q -29 1024 -29 1088 l -29 1024 q -73 917 -29 960 q -183 875 -117 875 l -183 875 z m -183 972 q -147 987 -161 972 q -132 1024 -132 1001 l -132 1024 q -147 1060 -132 1046 q -183 1075 -161 1075 l -183 1075 q -220 1060 -206 1075 q -235 1024 -235 1046 l -235 1024 q -220 987 -235 1001 q -183 972 -206 972 l -183 972 z "},"ุ":{"ha":0,"x_min":-364,"x_max":-96,"o":"m -114 -100 q -96 -118 -96 -100 l -96 -118 l -96 -362 q -114 -381 -96 -381 l -114 -381 l -247 -381 q -265 -362 -265 -381 l -265 -362 l -265 -244 l -346 -244 q -364 -226 -364 -244 l -364 -226 l -364 -118 q -346 -100 -364 -100 l -346 -100 l -114 -100 z "},"ู":{"ha":0,"x_min":-596,"x_max":-96,"o":"m -231 -100 l -114 -100 q -96 -118 -96 -100 l -96 -118 l -96 -233 q -154 -364 -96 -317 q -312 -411 -212 -411 l -312 -411 q -466 -365 -410 -411 q -522 -239 -522 -319 l -522 -239 l -522 -222 l -578 -222 q -596 -204 -596 -222 l -596 -204 l -596 -118 q -578 -100 -596 -100 l -578 -100 l -397 -100 q -379 -118 -379 -100 l -379 -118 l -379 -210 q -362 -266 -379 -246 q -314 -286 -344 -286 l -314 -286 q -265 -265 -282 -286 q -249 -204 -249 -243 l -249 -204 l -249 -118 q -231 -100 -249 -100 l -231 -100 z "},"ฺ":{"ha":0,"x_min":-289,"x_max":-89,"o":"m -189 -294 q -261 -267 -233 -294 q -289 -194 -289 -239 l -289 -194 q -261 -123 -289 -151 q -189 -94 -233 -94 l -189 -94 q -117 -123 -146 -94 q -89 -194 -89 -151 l -89 -194 q -117 -267 -89 -239 q -189 -294 -146 -294 l -189 -294 z "},"๐":{"ha":878,"x_min":60,"x_max":818,"o":"m 439 -17 q 244 31 331 -17 q 108 162 157 78 q 60 350 60 246 l 60 350 q 108 538 60 454 q 244 669 157 622 q 439 717 331 717 l 439 717 q 634 669 547 717 q 769 538 721 622 q 818 350 818 454 l 818 350 q 769 162 818 246 q 634 31 721 78 q 439 -17 547 -17 l 439 -17 z m 439 144 q 578 203 524 144 q 633 350 633 261 l 633 350 q 578 497 633 439 q 439 556 524 556 l 439 556 q 299 497 354 556 q 244 350 244 439 l 244 350 q 299 203 244 261 q 439 144 354 144 l 439 144 z "},"๑":{"ha":856,"x_min":56,"x_max":796,"o":"m 313 -168 l 308 -168 q 292 -151 296 -168 l 292 -151 l 264 -28 l 264 -24 q 281 -7 264 -10 l 281 -7 q 525 106 439 19 q 611 325 611 193 l 611 325 q 558 490 611 429 q 413 551 504 551 l 413 551 q 287 512 333 551 q 240 404 240 472 l 240 404 q 271 318 240 350 q 353 286 301 286 l 353 286 q 403 297 381 286 l 403 297 l 414 300 q 426 290 421 300 l 426 290 l 475 188 q 478 178 478 179 l 478 178 q 469 163 478 169 l 469 163 q 326 128 418 128 l 326 128 q 129 200 203 128 q 56 394 56 272 l 56 394 q 99 565 56 492 q 224 677 143 638 q 414 717 306 717 l 414 717 q 694 612 592 717 q 796 325 796 507 l 796 325 q 669 -8 796 121 q 313 -168 543 -136 l 313 -168 z "},"๒":{"ha":1026,"x_min":94,"x_max":938,"o":"m 521 -17 q 274 14 367 -17 q 138 110 181 44 q 94 286 94 176 l 94 286 l 94 850 q 113 868 94 868 l 113 868 l 257 868 q 275 850 275 868 l 275 850 l 275 314 q 299 214 275 250 q 376 161 322 178 q 519 144 429 144 l 519 144 q 706 180 651 144 q 761 300 761 215 l 761 300 l 761 476 q 748 530 761 508 q 713 558 735 551 l 713 558 l 644 513 l 636 513 l 568 558 q 533 528 546 551 q 519 474 519 506 l 519 474 l 519 347 q 501 328 519 328 l 501 328 l 371 328 q 353 347 353 328 l 353 347 l 353 485 q 408 640 353 575 q 549 714 464 706 l 549 714 l 636 647 l 732 714 q 879 635 821 704 q 938 472 938 567 l 938 472 l 938 272 q 895 105 938 168 q 762 13 853 42 q 521 -17 671 -17 l 521 -17 z "},"๓":{"ha":994,"x_min":89,"x_max":897,"o":"m 683 714 q 840 651 782 714 q 897 478 897 588 l 897 478 l 897 18 q 879 0 897 0 l 879 0 l 735 0 q 717 18 717 0 l 717 18 l 717 463 q 699 529 717 506 q 647 553 681 553 l 647 553 q 594 526 613 553 q 575 453 575 500 l 575 453 l 575 271 q 557 253 575 253 l 557 253 l 438 253 q 419 271 419 253 l 419 271 l 419 454 q 399 527 419 501 q 343 553 379 553 l 343 553 q 289 529 308 553 q 269 461 269 506 l 269 461 l 269 256 q 347 144 269 144 l 347 144 q 397 156 371 144 l 397 156 l 408 158 q 421 149 417 158 l 421 149 l 469 46 q 472 36 472 38 l 472 36 q 464 21 472 28 l 464 21 q 326 -14 410 -14 l 326 -14 q 151 51 213 -14 q 89 239 89 117 l 89 239 l 89 478 q 150 649 89 585 q 313 714 211 714 l 313 714 q 426 685 376 714 q 499 606 475 657 l 499 606 q 571 685 522 657 q 683 714 619 714 l 683 714 z "},"๔":{"ha":838,"x_min":60,"x_max":789,"o":"m 554 544 l 438 544 q 294 492 344 544 q 244 343 244 440 l 244 343 q 431 156 244 156 l 431 156 l 456 156 l 456 264 q 501 386 456 343 q 629 429 546 429 l 629 429 l 729 429 q 747 411 747 429 l 747 411 l 747 308 q 729 290 747 290 l 729 290 l 697 290 q 642 270 661 290 q 622 213 622 250 l 622 213 l 622 156 l 765 156 q 783 138 783 156 l 783 138 l 783 18 q 765 0 783 0 l 765 0 l 397 0 q 151 94 242 0 q 60 351 60 189 l 60 351 q 151 606 60 513 q 401 700 243 700 l 401 700 l 526 700 q 589 723 567 700 q 611 788 611 746 l 611 788 l 611 850 q 629 868 611 868 l 629 868 l 771 868 q 789 850 789 868 l 789 850 l 789 785 q 728 607 789 669 q 554 544 668 544 l 554 544 z "},"๕":{"ha":838,"x_min":60,"x_max":789,"o":"m 554 544 l 438 544 q 294 492 344 544 q 244 343 244 440 l 244 343 q 431 156 244 156 l 431 156 l 456 156 l 456 264 q 501 386 456 343 q 629 429 546 429 l 629 429 l 729 429 q 747 411 747 429 l 747 411 l 747 308 q 729 290 747 290 l 729 290 l 697 290 q 642 270 661 290 q 622 213 622 250 l 622 213 l 622 156 l 765 156 q 783 138 783 156 l 783 138 l 783 18 q 765 0 783 0 l 765 0 l 397 0 q 151 94 242 0 q 60 351 60 189 l 60 351 q 101 535 60 457 q 221 653 143 614 l 221 653 q 194 735 194 688 l 194 735 q 239 842 194 800 q 351 885 283 885 l 351 885 q 461 842 418 885 q 504 735 504 800 l 504 735 q 500 700 504 717 l 500 700 l 538 700 q 600 723 578 700 q 622 788 622 746 l 622 788 l 622 850 q 640 868 622 868 l 640 868 l 771 868 q 789 850 789 868 l 789 850 l 789 785 q 728 607 789 669 q 554 544 668 544 l 554 544 z m 350 783 q 317 769 331 783 q 304 735 304 756 l 304 735 q 317 701 304 714 q 350 688 331 688 l 350 688 q 382 701 369 688 q 394 735 394 714 l 394 735 q 382 769 394 756 q 350 783 369 783 l 350 783 z "},"๖":{"ha":819,"x_min":6,"x_max":760,"o":"m 421 717 q 600 671 524 717 q 718 541 676 625 q 760 344 760 457 l 760 344 q 715 153 760 235 q 587 28 669 72 q 393 -17 504 -17 l 393 -17 q 187 38 269 -17 q 71 196 104 93 l 71 196 q 69 204 69 199 l 69 204 q 83 219 69 215 l 83 219 l 218 249 l 225 250 q 242 236 236 250 l 242 236 q 390 144 282 144 l 390 144 q 526 198 476 144 q 575 344 575 251 l 575 344 q 523 499 575 442 q 385 556 471 556 l 385 556 q 228 475 281 556 l 228 475 q 206 464 221 464 l 206 464 l 94 464 q 74 481 76 464 l 74 481 l 6 849 l 6 854 q 22 868 6 868 l 22 868 l 167 868 q 186 851 185 868 l 186 851 l 217 639 q 421 717 301 717 l 421 717 z "},"๗":{"ha":1264,"x_min":89,"x_max":1169,"o":"m 1007 868 l 1151 868 q 1169 850 1169 868 l 1169 850 l 1169 315 q 1091 80 1169 160 q 860 0 1013 0 l 860 0 l 718 0 q 700 18 700 0 l 700 18 l 700 467 q 683 531 700 508 q 635 553 667 553 l 635 553 q 585 528 603 553 q 567 457 567 503 l 567 457 l 567 271 q 549 253 567 253 l 549 253 l 429 253 q 411 271 411 253 l 411 271 l 411 458 q 393 528 411 504 q 340 553 375 553 l 340 553 q 288 530 307 553 q 269 465 269 507 l 269 465 l 269 256 q 347 144 269 144 l 347 144 q 397 156 371 144 l 397 156 l 408 158 q 421 149 417 158 l 421 149 l 469 46 q 472 36 472 38 l 472 36 q 464 21 472 28 l 464 21 q 326 -14 410 -14 l 326 -14 q 151 51 213 -14 q 89 239 89 117 l 89 239 l 89 482 q 149 651 89 588 q 307 714 208 714 l 307 714 q 419 685 371 714 q 490 607 467 657 l 490 607 q 561 685 514 657 q 671 714 608 714 l 671 714 q 819 651 764 714 q 875 482 875 589 l 875 482 l 875 149 q 960 194 931 151 q 989 315 989 236 l 989 315 l 989 850 q 1007 868 989 868 l 1007 868 z "},"๘":{"ha":939,"x_min":60,"x_max":865,"o":"m 708 333 l 847 333 q 865 315 865 333 l 865 315 l 865 208 q 610 -11 865 -3 l 610 -11 l 478 103 l 475 103 l 342 -11 q 136 99 213 6 q 60 335 60 193 l 60 335 q 104 528 60 446 q 230 656 149 611 q 419 700 311 700 l 419 700 l 567 700 q 640 724 614 700 q 665 794 665 749 l 665 794 l 665 850 q 683 868 665 868 l 683 868 l 825 868 q 843 850 843 868 l 843 850 l 843 794 q 783 609 843 674 q 608 544 722 544 l 608 544 l 457 544 q 302 486 360 544 q 244 329 244 428 l 244 329 q 264 228 244 274 q 319 154 283 182 l 319 154 l 464 279 l 488 279 l 644 142 q 690 229 690 169 l 690 229 l 690 315 q 708 333 690 333 l 708 333 z "},"๙":{"ha":900,"x_min":89,"x_max":878,"o":"m 718 868 l 860 868 q 878 850 878 868 l 878 850 l 878 724 q 831 591 878 638 q 697 544 785 544 l 697 544 l 667 544 q 621 504 621 544 l 621 504 q 633 450 621 483 l 633 450 l 796 21 q 797 14 797 18 l 797 14 q 782 0 797 0 l 782 0 l 628 0 q 607 15 614 0 l 607 15 l 444 468 q 405 532 429 511 q 344 553 381 553 l 344 553 q 289 529 308 553 q 269 461 269 506 l 269 461 l 269 256 q 347 144 269 144 l 347 144 q 397 156 371 144 l 397 156 l 408 158 q 421 149 417 158 l 421 149 l 469 46 q 472 36 472 38 l 472 36 q 464 21 472 28 l 464 21 q 326 -14 410 -14 l 326 -14 q 151 51 213 -14 q 89 239 89 117 l 89 239 l 89 478 q 149 651 89 588 q 314 714 208 714 l 314 714 q 494 631 432 714 l 494 631 q 538 682 508 664 q 608 700 567 700 l 608 700 l 636 700 q 700 760 700 700 l 700 760 l 700 850 q 718 868 700 868 l 718 868 z "},"๏":{"ha":858,"x_min":57,"x_max":801,"o":"m 429 35 q 238 80 322 35 q 105 204 153 125 q 57 383 57 283 l 57 383 q 105 563 57 483 q 238 687 153 642 q 429 732 322 732 l 429 732 q 621 687 536 732 q 753 563 706 642 q 801 383 801 483 l 801 383 q 753 204 801 283 q 621 80 706 125 q 429 35 536 35 l 429 35 z m 429 129 q 565 162 504 129 q 659 253 625 194 q 693 383 693 311 l 693 383 q 659 514 693 456 q 565 605 625 572 q 429 638 504 638 l 429 638 q 294 605 354 638 q 199 514 233 572 q 165 383 165 456 l 165 383 q 199 253 165 311 q 294 162 233 194 q 429 129 354 129 l 429 129 z m 429 217 q 310 264 357 217 q 263 383 263 311 l 263 383 q 310 503 263 457 q 429 550 357 550 l 429 550 q 549 503 501 550 q 596 383 596 456 l 596 383 q 549 264 596 311 q 429 217 501 217 l 429 217 z m 429 308 q 482 330 461 308 q 503 383 503 351 l 503 383 q 482 437 503 415 q 429 458 461 458 l 429 458 q 376 437 397 458 q 356 383 356 415 l 356 383 q 376 330 356 351 q 429 308 397 308 l 429 308 z "},"๛":{"ha":1194,"x_min":57,"x_max":1167,"o":"m 1122 369 l 1164 275 q 1167 265 1167 267 l 1167 265 q 1158 250 1167 257 l 1158 250 q 1053 222 1115 222 l 1053 222 q 952 249 992 222 q 886 333 913 275 l 886 333 l 844 196 q 824 181 840 181 l 824 181 l 738 181 q 717 194 722 181 l 717 194 l 663 328 q 547 155 626 217 q 356 93 467 93 l 356 93 q 138 171 219 93 q 57 379 57 249 l 57 379 q 134 589 57 511 q 342 667 211 667 l 342 667 q 488 632 433 667 l 488 632 q 493 607 500 624 l 493 607 l 451 513 q 438 503 446 503 l 438 503 l 426 506 q 374 517 404 517 l 374 517 q 272 481 310 517 q 235 385 235 444 l 235 385 q 274 283 235 321 q 378 244 313 244 l 378 244 q 513 319 467 244 q 568 553 558 393 l 568 553 q 586 571 569 571 l 586 571 l 689 571 q 710 556 704 571 l 710 556 l 776 361 l 824 513 q 844 526 828 526 l 844 526 l 910 526 q 932 511 925 526 l 932 511 q 984 395 961 425 q 1046 365 1007 365 l 1046 365 q 1097 376 1075 365 l 1097 376 l 1108 379 q 1122 369 1117 379 l 1122 369 z "},"ๆ":{"ha":810,"x_min":44,"x_max":697,"o":"m 678 -306 l 531 -306 q 513 -287 513 -306 l 513 -287 l 513 550 q 498 613 513 588 q 456 646 483 638 l 456 646 l 375 592 l 364 592 l 283 646 q 242 610 257 636 q 226 547 226 585 l 226 547 l 226 368 q 208 350 226 350 l 208 350 l 63 350 q 44 368 44 350 l 44 368 l 44 565 q 102 726 44 664 q 264 803 160 789 l 264 803 l 369 735 l 475 803 q 640 729 582 789 q 697 571 697 669 l 697 571 l 697 -287 q 678 -306 697 -306 l 678 -306 z "},"ฯ":{"ha":803,"x_min":33,"x_max":685,"o":"m 522 789 l 667 789 q 685 771 685 789 l 685 771 l 685 18 q 667 0 685 0 l 667 0 l 518 0 q 500 18 500 0 l 500 18 l 500 303 l 328 303 q 113 372 192 303 q 33 558 33 440 l 33 558 q 100 737 33 671 q 281 803 167 803 l 281 803 q 421 768 369 803 l 421 768 q 426 743 433 760 l 426 743 l 378 635 q 365 625 374 625 l 365 625 l 354 628 q 304 639 328 639 l 304 639 q 243 617 265 639 q 221 558 221 596 l 221 558 q 256 486 221 511 q 358 461 292 461 l 358 461 l 504 461 l 504 771 q 522 789 504 789 l 522 789 z "},"๚":{"ha":1126,"x_min":33,"x_max":1008,"o":"m 522 789 l 667 789 q 685 771 685 789 l 685 771 l 685 18 q 667 0 685 0 l 667 0 l 518 0 q 500 18 500 0 l 500 18 l 500 303 l 328 303 q 113 372 192 303 q 33 558 33 440 l 33 558 q 100 737 33 671 q 281 803 167 803 l 281 803 q 421 768 369 803 l 421 768 q 426 743 433 760 l 426 743 l 378 635 q 365 625 374 625 l 365 625 l 354 628 q 304 639 328 639 l 304 639 q 243 617 265 639 q 221 558 221 596 l 221 558 q 256 486 221 511 q 358 461 292 461 l 358 461 l 504 461 l 504 771 q 522 789 504 789 l 522 789 z m 842 789 l 990 789 q 1008 771 1008 789 l 1008 771 l 1008 18 q 990 0 1008 0 l 990 0 l 842 0 q 824 18 824 0 l 824 18 l 824 771 q 842 789 824 789 l 842 789 z "},"ﬁ":{"ha":892,"x_min":19,"x_max":813,"o":"m 300 0 l 156 0 q 138 18 138 0 l 138 18 l 138 558 l 38 558 q 19 576 19 558 l 19 576 l 19 701 q 38 719 19 719 l 38 719 l 138 719 l 138 765 q 206 974 138 896 q 390 1051 275 1051 l 390 1051 q 565 989 497 1051 l 565 989 q 571 975 571 983 l 571 975 q 568 964 571 968 l 568 964 l 506 867 q 492 857 501 857 l 492 857 q 481 863 489 857 l 481 863 q 444 882 461 876 q 404 888 426 888 l 404 888 q 340 857 363 888 q 318 768 318 826 l 318 768 l 318 719 l 778 719 q 796 701 796 719 l 796 701 l 796 18 q 778 0 796 0 l 778 0 l 633 0 q 615 18 615 0 l 615 18 l 615 558 l 318 558 l 318 18 q 300 0 318 0 l 300 0 z m 706 824 q 629 853 660 824 q 599 928 599 882 l 599 928 q 629 1003 599 974 q 706 1032 660 1032 l 706 1032 q 782 1003 751 1032 q 813 928 813 974 l 813 928 q 782 853 813 882 q 706 824 751 824 l 706 824 z "},"ﬂ":{"ha":890,"x_min":19,"x_max":796,"o":"m 300 0 l 156 0 q 138 18 138 0 l 138 18 l 138 558 l 38 558 q 19 576 19 558 l 19 576 l 19 701 q 38 719 19 719 l 38 719 l 138 719 l 138 765 q 206 974 138 896 q 390 1051 275 1051 l 390 1051 q 565 989 497 1051 l 565 989 q 571 975 571 983 l 571 975 q 568 964 571 968 l 568 964 l 506 867 q 492 857 501 857 l 492 857 q 481 863 489 857 l 481 863 q 444 882 461 876 q 404 888 426 888 l 404 888 q 340 857 363 888 q 318 768 318 826 l 318 768 l 318 719 l 499 719 q 517 701 517 719 l 517 701 l 517 576 q 499 558 517 558 l 499 558 l 318 558 l 318 18 q 300 0 318 0 l 300 0 z m 778 0 l 633 0 q 615 18 615 0 l 615 18 l 615 1024 q 633 1042 615 1042 l 633 1042 l 778 1042 q 796 1024 796 1042 l 796 1024 l 796 18 q 778 0 796 0 l 778 0 z "},"⁄":{"ha":167,"x_min":-328,"x_max":494,"o":"m -171 0 l -310 0 q -324 6 -321 0 q -322 22 -328 13 l -322 22 l 315 1007 q 338 1019 324 1019 l 338 1019 l 476 1019 q 491 1013 488 1019 q 489 997 494 1007 l 489 997 l -149 13 q -171 0 -157 0 l -171 0 z "},"½":{"ha":1294,"x_min":99,"x_max":1221,"o":"m 374 461 l 264 461 q 246 479 246 461 l 246 479 l 246 854 l 140 813 q 132 811 138 811 l 132 811 q 117 822 121 811 l 117 822 l 100 857 q 99 865 99 860 l 99 865 q 107 882 99 876 l 107 882 l 282 1013 q 304 1019 290 1019 l 304 1019 l 374 1019 q 392 1001 392 1019 l 392 1001 l 392 479 q 374 461 392 461 l 374 461 z m 378 0 l 239 0 q 224 6 228 0 q 226 22 221 13 l 226 22 l 864 1007 q 886 1019 872 1019 l 886 1019 l 1025 1019 q 1040 1013 1036 1019 q 1038 997 1043 1007 l 1038 997 l 400 13 q 378 0 392 0 l 378 0 z m 1203 0 l 822 0 q 804 18 804 0 l 804 18 l 804 42 q 813 64 804 56 l 813 64 l 968 224 q 1042 317 1021 278 q 1063 392 1063 357 l 1063 392 q 1047 433 1063 418 q 1004 447 1031 447 l 1004 447 q 928 392 953 447 l 928 392 q 906 379 921 375 l 906 379 l 814 400 q 802 408 806 403 q 801 422 799 414 l 801 422 q 882 532 825 492 q 1013 572 939 572 l 1013 572 q 1159 526 1103 572 q 1215 404 1215 481 l 1215 404 q 1179 285 1215 342 q 1082 168 1143 229 l 1082 168 l 1035 121 l 1203 121 q 1221 103 1221 121 l 1221 103 l 1221 18 q 1203 0 1221 0 l 1203 0 z "},"¼":{"ha":1294,"x_min":99,"x_max":1251,"o":"m 374 461 l 264 461 q 246 479 246 461 l 246 479 l 246 854 l 140 813 q 132 811 138 811 l 132 811 q 117 822 121 811 l 117 822 l 100 857 q 99 865 99 860 l 99 865 q 107 882 99 876 l 107 882 l 282 1013 q 304 1019 290 1019 l 304 1019 l 374 1019 q 392 1001 392 1019 l 392 1001 l 392 479 q 374 461 392 461 l 374 461 z m 433 0 l 294 0 q 280 6 283 0 q 282 22 276 13 l 282 22 l 919 1007 q 942 1019 928 1019 l 942 1019 l 1081 1019 q 1095 1013 1092 1019 q 1093 997 1099 1007 l 1093 997 l 456 13 q 433 0 447 0 l 433 0 z m 1167 0 l 1058 0 q 1040 18 1040 0 l 1040 18 l 1040 99 l 779 99 q 761 117 761 99 l 761 117 l 761 140 q 768 163 761 154 l 768 163 l 1060 547 q 1082 558 1068 558 l 1082 558 l 1167 558 q 1185 540 1185 558 l 1185 540 l 1185 210 l 1233 210 q 1251 192 1251 210 l 1251 192 l 1251 117 q 1233 99 1251 99 l 1233 99 l 1185 99 l 1185 18 q 1167 0 1185 0 l 1167 0 z m 1040 368 l 919 210 l 1040 210 l 1040 368 z "},"¾":{"ha":1294,"x_min":50,"x_max":1251,"o":"m 281 447 q 131 490 186 447 q 51 604 75 533 l 51 604 q 50 611 50 607 l 50 611 q 64 626 50 622 l 64 626 l 150 647 l 156 649 q 174 636 168 649 l 174 636 q 272 572 204 572 l 272 572 q 325 588 304 572 q 346 633 346 604 l 346 633 q 324 681 346 664 q 264 699 303 699 l 264 699 l 242 699 q 224 717 224 699 l 224 717 l 224 790 q 242 808 224 808 l 242 808 l 264 808 q 338 863 338 808 l 338 863 q 318 896 338 883 q 271 908 299 908 l 271 908 q 194 864 219 908 l 194 864 q 171 853 186 849 l 171 853 l 81 874 q 69 882 72 876 q 68 896 65 888 l 68 896 q 147 996 89 958 q 278 1033 206 1033 l 278 1033 q 427 992 371 1033 q 483 881 483 951 l 483 881 q 463 808 483 842 q 404 754 442 774 l 404 754 q 473 703 449 738 q 497 619 497 669 l 497 619 q 467 530 497 569 q 388 469 438 490 q 281 447 338 447 l 281 447 z m 433 0 l 294 0 q 280 6 283 0 q 282 22 276 13 l 282 22 l 919 1007 q 942 1019 928 1019 l 942 1019 l 1081 1019 q 1095 1013 1092 1019 q 1093 997 1099 1007 l 1093 997 l 456 13 q 433 0 447 0 l 433 0 z m 1167 0 l 1058 0 q 1040 18 1040 0 l 1040 18 l 1040 99 l 779 99 q 761 117 761 99 l 761 117 l 761 140 q 768 163 761 154 l 768 163 l 1060 547 q 1082 558 1068 558 l 1082 558 l 1167 558 q 1185 540 1185 558 l 1185 540 l 1185 210 l 1233 210 q 1251 192 1251 210 l 1251 192 l 1251 117 q 1233 99 1251 99 l 1233 99 l 1185 99 l 1185 18 q 1167 0 1185 0 l 1167 0 z m 1040 368 l 919 210 l 1040 210 l 1040 368 z "},".":{"ha":375,"x_min":75,"x_max":300,"o":"m 188 -14 q 107 17 139 -14 q 75 96 75 49 l 75 96 q 107 174 75 143 q 188 206 139 206 l 188 206 q 268 174 236 206 q 300 96 300 143 l 300 96 q 268 17 300 49 q 188 -14 236 -14 l 188 -14 z "},",":{"ha":375,"x_min":58,"x_max":300,"o":"m 163 -225 l 76 -225 q 63 -219 67 -225 q 61 -204 58 -214 l 61 -204 l 129 0 q 90 40 104 15 q 75 96 75 64 l 75 96 q 107 174 75 143 q 188 206 139 206 l 188 206 q 268 174 236 206 q 300 96 300 143 l 300 96 q 288 31 300 67 q 239 -87 275 -6 l 239 -87 l 183 -211 q 163 -225 176 -225 l 163 -225 z "},":":{"ha":375,"x_min":75,"x_max":300,"o":"m 188 503 q 107 534 139 503 q 75 613 75 565 l 75 613 q 107 691 75 660 q 188 722 139 722 l 188 722 q 268 691 236 722 q 300 613 300 660 l 300 613 q 268 534 300 565 q 188 503 236 503 l 188 503 z m 188 -14 q 107 17 139 -14 q 75 96 75 49 l 75 96 q 107 174 75 143 q 188 206 139 206 l 188 206 q 268 174 236 206 q 300 96 300 143 l 300 96 q 268 17 300 49 q 188 -14 236 -14 l 188 -14 z "},";":{"ha":375,"x_min":58,"x_max":300,"o":"m 188 503 q 107 534 139 503 q 75 613 75 565 l 75 613 q 107 691 75 660 q 188 722 139 722 l 188 722 q 268 691 236 722 q 300 613 300 660 l 300 613 q 268 534 300 565 q 188 503 236 503 l 188 503 z m 163 -225 l 76 -225 q 63 -219 67 -225 q 61 -204 58 -214 l 61 -204 l 129 0 q 90 40 104 15 q 75 96 75 64 l 75 96 q 107 174 75 143 q 188 206 139 206 l 188 206 q 268 174 236 206 q 300 96 300 143 l 300 96 q 288 31 300 67 q 239 -87 275 -6 l 239 -87 l 183 -211 q 163 -225 176 -225 l 163 -225 z "},"…":{"ha":1389,"x_min":111,"x_max":1278,"o":"m 224 -14 q 143 17 175 -14 q 111 96 111 49 l 111 96 q 143 174 111 143 q 224 206 175 206 l 224 206 q 304 174 272 206 q 336 96 336 143 l 336 96 q 304 17 336 49 q 224 -14 272 -14 l 224 -14 z m 693 -14 q 613 17 644 -14 q 581 96 581 49 l 581 96 q 613 174 581 143 q 693 206 644 206 l 693 206 q 774 174 742 206 q 806 96 806 143 l 806 96 q 774 17 806 49 q 693 -14 742 -14 l 693 -14 z m 1165 -14 q 1085 17 1117 -14 q 1053 96 1053 49 l 1053 96 q 1085 174 1053 143 q 1165 206 1117 206 l 1165 206 q 1246 174 1214 206 q 1278 96 1278 143 l 1278 96 q 1246 17 1278 49 q 1165 -14 1214 -14 l 1165 -14 z "},"!":{"ha":361,"x_min":68,"x_max":293,"o":"m 236 310 l 119 310 q 101 328 101 310 l 101 328 l 88 1000 q 106 1018 88 1018 l 106 1018 l 250 1018 q 268 1000 268 1018 l 268 1000 l 254 328 q 236 310 254 310 l 236 310 z m 181 -14 q 100 17 132 -14 q 68 96 68 49 l 68 96 q 100 174 68 143 q 181 206 132 206 l 181 206 q 261 174 229 206 q 293 96 293 143 l 293 96 q 261 17 293 49 q 181 -14 229 -14 l 181 -14 z "},"?":{"ha":774,"x_min":32,"x_max":717,"o":"m 415 281 l 281 281 q 263 299 263 281 l 263 299 l 257 546 q 275 564 257 564 l 275 564 l 325 564 q 473 606 424 564 q 522 719 522 649 l 522 719 q 483 819 522 782 q 376 856 444 856 l 376 856 q 217 746 265 856 l 217 746 q 193 735 208 731 l 193 735 l 47 772 q 35 781 39 775 q 35 794 32 786 l 35 794 q 169 974 75 910 q 390 1039 263 1039 l 390 1039 q 560 1001 486 1039 q 675 896 633 964 q 717 738 717 828 l 717 738 q 642 524 717 614 q 436 411 568 433 l 436 411 l 433 299 q 415 281 433 281 l 415 281 z m 347 -14 q 268 16 300 -14 q 236 93 236 46 l 236 93 q 268 169 236 140 q 347 199 300 199 l 347 199 q 426 169 394 199 q 458 93 458 140 l 458 93 q 426 16 458 46 q 347 -14 394 -14 l 347 -14 z "},"·":{"ha":463,"x_min":128,"x_max":353,"o":"m 240 361 q 160 392 192 361 q 128 471 128 424 l 128 471 q 160 549 128 518 q 240 581 192 581 l 240 581 q 321 549 289 581 q 353 471 353 518 l 353 471 q 321 392 353 424 q 240 361 289 361 l 240 361 z "},"•":{"ha":561,"x_min":108,"x_max":453,"o":"m 281 256 q 195 279 235 256 q 132 342 156 303 q 108 428 108 382 l 108 428 q 132 513 108 474 q 195 576 156 553 q 281 600 235 600 l 281 600 q 366 576 326 600 q 429 513 406 553 q 453 428 453 474 l 453 428 q 429 342 453 382 q 366 279 406 303 q 281 256 326 256 l 281 256 z "},"*":{"ha":685,"x_min":63,"x_max":622,"o":"m 171 499 l 126 531 q 121 556 113 542 l 121 556 l 221 726 l 71 822 q 63 836 63 829 l 63 836 q 65 847 63 839 l 65 847 l 90 897 q 100 906 93 904 q 114 906 107 908 l 114 906 l 275 843 l 294 1003 q 314 1019 297 1019 l 314 1019 l 371 1019 q 390 1003 389 1019 l 390 1003 l 410 843 l 571 906 q 579 907 574 907 l 579 907 q 594 897 590 907 l 594 897 l 619 847 q 622 836 622 839 l 622 836 q 614 822 622 829 l 614 822 l 464 726 l 564 556 q 567 546 567 550 l 567 546 q 558 531 567 538 l 558 531 l 514 499 q 503 496 510 496 l 503 496 q 489 501 494 496 l 489 501 l 343 650 l 196 501 q 182 496 190 496 l 182 496 q 171 499 175 496 l 171 499 z "},"#":{"ha":1074,"x_min":58,"x_max":1015,"o":"m 297 0 l 179 0 q 165 5 169 0 q 163 19 161 10 l 163 19 l 214 246 l 76 246 q 63 251 67 246 q 60 265 58 256 l 60 265 l 85 379 q 104 396 89 396 l 104 396 l 249 396 l 301 626 l 164 626 q 150 631 154 626 q 147 646 146 636 l 147 646 l 172 760 q 192 776 176 776 l 192 776 l 335 776 l 386 1001 q 407 1017 390 1017 l 407 1017 l 525 1017 q 539 1012 535 1017 q 542 997 543 1007 l 542 997 l 492 776 l 703 776 l 754 1001 q 775 1017 758 1017 l 775 1017 l 893 1017 q 907 1012 903 1017 q 910 997 911 1007 l 910 997 l 860 776 l 997 776 q 1011 772 1007 776 q 1014 757 1015 767 l 1014 757 l 989 643 q 969 626 985 626 l 969 626 l 825 626 l 772 396 l 910 396 q 924 391 919 396 q 926 376 928 386 l 926 376 l 901 263 q 882 246 897 246 l 882 246 l 738 246 l 685 15 q 664 0 681 0 l 664 0 l 547 0 q 533 5 538 0 q 531 19 529 10 l 531 19 l 582 246 l 371 246 l 318 15 q 297 0 314 0 l 297 0 z m 457 626 l 404 396 l 617 396 l 669 626 l 457 626 z "},"/":{"ha":583,"x_min":39,"x_max":544,"o":"m 200 -153 l 57 -153 q 43 -147 47 -153 q 42 -132 39 -142 l 42 -132 l 364 1026 q 383 1042 368 1042 l 383 1042 l 526 1042 q 540 1036 536 1042 q 542 1021 544 1031 l 542 1021 l 219 -137 q 200 -153 215 -153 l 200 -153 z "},"\\":{"ha":583,"x_min":40,"x_max":543,"o":"m 526 -153 l 383 -153 q 364 -137 368 -153 l 364 -137 l 42 1021 l 40 1026 q 57 1042 40 1042 l 57 1042 l 200 1042 q 219 1026 215 1042 l 219 1026 l 542 -132 l 543 -137 q 526 -153 543 -153 l 526 -153 z "},"(":{"ha":547,"x_min":69,"x_max":519,"o":"m 501 -207 q 69 444 69 -181 l 69 444 q 501 1096 69 1069 l 501 1096 l 504 1096 q 519 1079 519 1096 l 519 1079 l 519 944 q 503 925 519 928 l 503 925 q 319 797 376 911 q 261 444 261 682 l 261 444 q 319 92 261 207 q 503 -36 376 -22 l 503 -36 q 519 -56 519 -39 l 519 -56 l 519 -190 q 515 -203 519 -199 q 501 -207 510 -208 l 501 -207 z "},")":{"ha":547,"x_min":28,"x_max":478,"o":"m 46 -207 l 43 -207 q 28 -190 28 -207 l 28 -190 l 28 -56 q 44 -36 28 -39 l 44 -36 q 228 92 171 -22 q 286 444 286 207 l 286 444 q 228 797 286 682 q 44 925 171 911 l 44 925 q 28 944 28 928 l 28 944 l 28 1079 q 33 1092 28 1088 q 46 1096 38 1097 l 46 1096 q 478 444 478 1069 l 478 444 q 46 -207 478 -181 l 46 -207 z "},"{":{"ha":583,"x_min":67,"x_max":556,"o":"m 538 -208 l 515 -208 q 271 -131 358 -208 q 183 113 183 -54 l 183 113 l 183 288 q 172 349 183 332 q 129 365 160 365 l 129 365 l 85 365 q 67 383 67 365 l 67 383 l 67 506 q 85 524 67 524 l 85 524 l 129 524 q 172 540 160 524 q 183 601 183 557 l 183 601 l 183 776 q 271 1020 183 943 q 515 1097 358 1097 l 515 1097 l 538 1097 q 556 1079 556 1097 l 556 1079 l 556 949 q 538 931 556 931 l 538 931 l 531 931 q 364 767 364 931 l 364 767 l 364 565 q 292 444 364 467 l 292 444 q 364 324 364 422 l 364 324 l 364 122 q 531 -42 364 -42 l 531 -42 l 538 -42 q 556 -60 556 -42 l 556 -60 l 556 -190 q 538 -208 556 -208 l 538 -208 z "},"}":{"ha":583,"x_min":28,"x_max":517,"o":"m 68 -208 l 46 -208 q 28 -190 28 -208 l 28 -190 l 28 -60 q 46 -42 28 -42 l 46 -42 l 53 -42 q 219 122 219 -42 l 219 122 l 219 324 q 292 444 219 422 l 292 444 q 219 565 219 467 l 219 565 l 219 767 q 53 931 219 931 l 53 931 l 46 931 q 28 949 28 931 l 28 949 l 28 1079 q 46 1097 28 1097 l 46 1097 l 68 1097 q 313 1020 225 1097 q 400 776 400 943 l 400 776 l 400 601 q 412 540 400 557 q 454 524 424 524 l 454 524 l 499 524 q 517 506 517 524 l 517 506 l 517 383 q 499 365 517 365 l 499 365 l 454 365 q 412 349 424 365 q 400 288 400 332 l 400 288 l 400 113 q 313 -131 400 -54 q 68 -208 225 -208 l 68 -208 z "},"[":{"ha":483,"x_min":94,"x_max":456,"o":"m 438 -208 l 113 -208 q 94 -190 94 -208 l 94 -190 l 94 1079 q 113 1097 94 1097 l 113 1097 l 438 1097 q 456 1079 456 1097 l 456 1079 l 456 949 q 438 931 456 931 l 438 931 l 278 931 l 278 -42 l 438 -42 q 456 -60 456 -42 l 456 -60 l 456 -190 q 438 -208 456 -208 l 438 -208 z "},"]":{"ha":483,"x_min":28,"x_max":389,"o":"m 371 -208 l 46 -208 q 28 -190 28 -208 l 28 -190 l 28 -60 q 46 -42 28 -42 l 46 -42 l 206 -42 l 206 931 l 46 931 q 28 949 28 931 l 28 949 l 28 1079 q 46 1097 28 1097 l 46 1097 l 371 1097 q 389 1079 389 1097 l 389 1079 l 389 -190 q 371 -208 389 -208 l 371 -208 z "},"-":{"ha":646,"x_min":97,"x_max":549,"o":"m 531 367 l 115 367 q 97 385 97 367 l 97 385 l 97 519 q 115 538 97 538 l 115 538 l 531 538 q 549 519 549 538 l 549 519 l 549 385 q 531 367 549 367 l 531 367 z "},"­":{"ha":646,"x_min":97,"x_max":549,"o":"m 531 367 l 115 367 q 97 385 97 367 l 97 385 l 97 519 q 115 538 97 538 l 115 538 l 531 538 q 549 519 549 538 l 549 519 l 549 385 q 531 367 549 367 l 531 367 z "},"–":{"ha":694,"x_min":0,"x_max":694,"o":"m 676 367 l 18 367 q 0 385 0 367 l 0 385 l 0 519 q 18 538 0 538 l 18 538 l 676 538 q 694 519 694 538 l 694 519 l 694 385 q 676 367 694 367 l 676 367 z "},"—":{"ha":1389,"x_min":0,"x_max":1389,"o":"m 1371 367 l 18 367 q 0 385 0 367 l 0 385 l 0 519 q 18 538 0 538 l 18 538 l 1371 538 q 1389 519 1389 538 l 1389 519 l 1389 385 q 1371 367 1389 367 l 1371 367 z "},"‐":{"ha":646,"x_min":97,"x_max":549,"o":"m 531 367 l 115 367 q 97 385 97 367 l 97 385 l 97 519 q 115 538 97 538 l 115 538 l 531 538 q 549 519 549 538 l 549 519 l 549 385 q 531 367 549 367 l 531 367 z "},"‑":{"ha":646,"x_min":97,"x_max":549,"o":"m 531 367 l 115 367 q 97 385 97 367 l 97 385 l 97 519 q 115 538 97 538 l 115 538 l 531 538 q 549 519 549 538 l 549 519 l 549 385 q 531 367 549 367 l 531 367 z "},"_":{"ha":786,"x_min":56,"x_max":731,"o":"m 713 -250 l 74 -250 q 61 -244 67 -250 q 56 -231 56 -239 l 56 -231 l 56 -99 q 61 -85 56 -92 q 74 -79 67 -79 l 74 -79 l 713 -79 q 725 -85 719 -79 q 731 -99 731 -92 l 731 -99 l 731 -231 q 725 -244 731 -239 q 713 -250 719 -250 l 713 -250 z "},"“":{"ha":640,"x_min":74,"x_max":556,"o":"m 178 622 q 103 649 132 622 q 74 719 74 676 l 74 719 q 86 789 74 750 q 129 893 99 828 l 129 893 l 182 1006 q 204 1019 189 1019 l 204 1019 l 272 1019 q 286 1014 282 1019 q 288 999 290 1008 l 288 999 l 224 811 q 267 776 251 800 q 283 721 283 751 l 283 721 q 254 650 283 678 q 178 622 225 622 l 178 622 z m 443 622 q 368 649 397 622 q 339 719 339 676 l 339 719 q 351 789 339 750 q 394 893 364 828 l 394 893 l 447 1006 q 469 1019 454 1019 l 469 1019 l 538 1019 q 551 1014 547 1019 q 553 999 556 1008 l 553 999 l 489 811 q 533 776 517 800 q 549 721 549 751 l 549 721 q 519 650 549 678 q 443 622 490 622 l 443 622 z "},"”":{"ha":640,"x_min":85,"x_max":567,"o":"m 171 639 l 103 639 q 89 644 93 639 q 88 660 85 650 l 88 660 l 151 847 q 108 883 124 858 q 92 938 92 907 l 92 938 q 121 1008 92 981 q 197 1036 150 1036 l 197 1036 q 272 1009 243 1036 q 301 939 301 982 l 301 939 q 289 869 301 908 q 246 765 276 831 l 246 765 l 193 653 q 171 639 186 639 l 171 639 z m 436 639 l 368 639 q 354 644 358 639 q 353 660 350 650 l 353 660 l 417 847 q 373 883 389 858 q 357 938 357 907 l 357 938 q 386 1008 357 981 q 463 1036 415 1036 l 463 1036 q 538 1009 508 1036 q 567 939 567 982 l 567 939 q 554 869 567 908 q 511 765 542 831 l 511 765 l 458 653 q 436 639 451 639 l 436 639 z "},"‘":{"ha":375,"x_min":74,"x_max":290,"o":"m 178 622 q 103 649 132 622 q 74 719 74 676 l 74 719 q 86 789 74 750 q 129 893 99 828 l 129 893 l 182 1006 q 204 1019 189 1019 l 204 1019 l 272 1019 q 286 1014 282 1019 q 288 999 290 1008 l 288 999 l 224 811 q 267 776 251 800 q 283 721 283 751 l 283 721 q 254 650 283 678 q 178 622 225 622 l 178 622 z "},"’":{"ha":375,"x_min":85,"x_max":301,"o":"m 171 639 l 103 639 q 89 644 93 639 q 88 660 85 650 l 88 660 l 151 847 q 108 883 124 858 q 92 938 92 907 l 92 938 q 121 1008 92 981 q 197 1036 150 1036 l 197 1036 q 272 1009 243 1036 q 301 939 301 982 l 301 939 q 289 869 301 908 q 246 765 276 831 l 246 765 l 193 653 q 171 639 186 639 l 171 639 z "},"\"":{"ha":640,"x_min":101,"x_max":539,"o":"m 235 638 l 140 638 q 126 642 132 638 q 121 656 121 647 l 121 656 l 101 1001 q 118 1019 101 1019 l 118 1019 l 257 1019 q 274 1001 274 1019 l 274 1001 l 254 656 q 249 642 254 647 q 235 638 243 638 l 235 638 z m 500 638 l 406 638 q 392 642 397 638 q 386 656 386 647 l 386 656 l 367 1001 q 383 1019 367 1019 l 383 1019 l 522 1019 q 539 1001 539 1019 l 539 1001 l 519 656 q 514 642 519 647 q 500 638 508 638 l 500 638 z "},"'":{"ha":375,"x_min":101,"x_max":274,"o":"m 235 638 l 140 638 q 126 642 132 638 q 121 656 121 647 l 121 656 l 101 1001 q 118 1019 101 1019 l 118 1019 l 257 1019 q 274 1001 274 1019 l 274 1001 l 254 656 q 249 642 254 647 q 235 638 243 638 l 235 638 z "}," ":{"ha":1389,"x_min":null,"x_max":null,"o":""}," ":{"ha":1389,"x_min":null,"x_max":null,"o":""}," ":{"ha":694,"x_min":null,"x_max":null,"o":""}," ":{"ha":694,"x_min":null,"x_max":null,"o":""}," ":{"ha":833,"x_min":null,"x_max":null,"o":""}," ":{"ha":347,"x_min":null,"x_max":null,"o":""}," ":{"ha":231,"x_min":null,"x_max":null,"o":""}," ":{"ha":375,"x_min":null,"x_max":null,"o":""}," ":{"ha":232,"x_min":null,"x_max":null,"o":""}," ":{"ha":306,"x_min":null,"x_max":null,"o":""}," ":{"ha":278,"x_min":null,"x_max":null,"o":""}," ":{"ha":463,"x_min":null,"x_max":null,"o":""},"​":{"ha":0,"x_min":null,"x_max":null,"o":""},"‍":{"ha":0,"x_min":null,"x_max":null,"o":""},"‌":{"ha":0,"x_min":null,"x_max":null,"o":""},"⁠":{"ha":0,"x_min":null,"x_max":null,"o":""},"﻿":{"ha":0,"x_min":null,"x_max":null,"o":""},"฿":{"ha":851,"x_min":97,"x_max":797,"o":"m 797 311 q 494 57 797 79 l 494 57 l 494 -75 q 476 -93 494 -93 l 476 -93 l 374 -93 q 356 -75 356 -93 l 356 -75 l 356 54 l 115 54 q 97 72 97 54 l 97 72 l 97 947 q 115 965 97 965 l 115 965 l 356 965 l 356 1092 q 374 1110 356 1110 l 374 1110 l 476 1110 q 494 1092 494 1110 l 494 1092 l 494 961 q 688 889 625 949 q 750 733 750 829 l 750 733 q 712 608 750 658 q 600 535 674 557 l 600 535 q 747 456 697 514 q 797 311 797 399 l 797 311 z m 356 582 l 356 838 l 278 838 l 278 582 l 356 582 z m 582 710 q 494 828 582 800 l 494 828 l 494 592 q 560 635 539 604 q 582 710 582 665 l 582 710 z m 356 463 l 278 463 l 278 182 l 356 182 l 356 463 z m 494 458 l 494 186 q 619 321 619 207 l 619 321 q 494 458 619 435 l 494 458 z "},"¢":{"ha":806,"x_min":53,"x_max":767,"o":"m 472 0 l 369 0 q 351 18 351 0 l 351 18 l 351 133 q 133 253 213 154 q 53 501 53 353 l 53 501 q 133 749 53 650 q 351 869 214 849 l 351 869 l 351 1001 q 369 1019 351 1019 l 369 1019 l 472 1019 q 490 1001 490 1019 l 490 1001 l 490 871 q 747 667 682 843 l 747 667 q 749 660 749 664 l 749 660 q 735 643 749 647 l 735 643 l 615 608 l 610 607 q 592 619 599 607 l 592 619 q 490 704 558 685 l 490 704 l 490 299 q 593 388 560 319 l 593 388 q 617 399 601 403 l 617 399 l 749 367 q 760 344 767 363 l 760 344 q 655 199 724 251 q 490 132 586 146 l 490 132 l 490 18 q 472 0 490 0 l 472 0 z m 239 501 q 267 381 239 433 q 351 307 296 329 l 351 307 l 351 696 q 267 622 296 674 q 239 501 239 569 l 239 501 z "},"¤":{"ha":821,"x_min":53,"x_max":768,"o":"m 132 197 l 60 264 q 53 278 53 271 l 53 278 q 58 290 53 285 l 58 290 l 150 386 q 111 536 111 451 l 111 536 q 150 688 111 621 l 150 688 l 58 783 q 53 796 53 789 l 53 796 q 60 810 53 803 l 60 810 l 132 876 q 144 882 138 882 l 144 882 q 158 875 151 882 l 158 875 l 246 781 q 410 822 318 822 l 410 822 q 575 781 503 822 l 575 781 l 663 875 q 676 882 669 882 l 676 882 q 689 876 683 882 l 689 876 l 761 810 q 768 796 768 803 l 768 796 q 763 783 768 789 l 763 783 l 669 686 q 708 536 708 621 l 708 536 q 671 388 708 454 l 671 388 l 763 290 q 768 278 768 285 l 768 278 q 761 264 768 271 l 761 264 l 689 197 q 676 192 683 192 l 676 192 q 663 199 669 192 l 663 199 l 575 292 q 410 250 503 250 l 410 250 q 244 292 317 250 l 244 292 l 158 199 q 144 192 151 192 l 144 192 q 132 197 138 192 l 132 197 z m 410 389 q 515 429 475 389 q 556 536 556 469 l 556 536 q 515 643 556 603 q 410 683 475 683 l 410 683 q 304 643 344 683 q 264 536 264 603 l 264 536 q 304 429 264 469 q 410 389 344 389 l 410 389 z "},"$":{"ha":828,"x_min":49,"x_max":756,"o":"m 476 -90 l 374 -90 q 356 -72 356 -90 l 356 -72 l 356 44 q 165 116 244 57 q 50 274 86 175 l 50 274 q 49 281 49 276 l 49 281 q 63 297 49 293 l 63 297 l 192 333 l 197 335 q 214 321 210 335 l 214 321 q 356 211 251 231 l 356 211 l 356 442 l 342 446 q 149 548 214 481 q 83 713 83 615 l 83 713 q 159 883 83 813 q 356 969 235 954 l 356 969 l 356 1088 q 374 1106 356 1106 l 374 1106 l 476 1106 q 494 1088 494 1106 l 494 1088 l 494 968 q 658 899 592 953 q 754 756 724 844 l 754 756 q 756 749 756 753 l 756 749 q 742 733 756 738 l 742 733 l 607 696 l 601 694 q 585 708 589 694 l 585 708 q 494 797 556 775 l 494 797 l 494 589 l 496 589 q 751 308 751 518 l 751 308 q 681 138 751 208 q 494 49 611 68 l 494 49 l 494 -72 q 476 -90 494 -90 l 476 -90 z m 271 719 q 290 667 271 688 q 356 629 310 646 l 356 629 l 356 804 q 293 773 315 794 q 271 719 271 751 l 271 719 z m 565 310 q 549 360 565 339 q 494 400 532 382 l 494 400 l 494 217 q 565 310 565 240 l 565 310 z "},"€":{"ha":996,"x_min":33,"x_max":929,"o":"m 136 364 l 51 364 q 33 382 33 364 l 33 382 l 33 457 q 51 475 33 475 l 51 475 l 125 475 l 125 510 l 125 544 l 51 544 q 33 563 33 544 l 33 563 l 33 638 q 51 656 33 656 l 51 656 l 136 656 q 272 939 167 839 q 542 1039 376 1039 l 542 1039 q 765 975 671 1039 q 910 793 860 911 l 910 793 q 911 785 911 790 l 911 785 q 899 769 911 774 l 899 769 l 756 728 l 750 726 q 732 739 739 726 l 732 739 q 542 856 669 856 l 542 856 q 409 806 463 856 q 333 656 356 756 l 333 656 l 613 656 q 631 638 631 656 l 631 638 l 631 563 q 613 544 631 544 l 613 544 l 319 544 l 319 510 l 319 475 l 613 475 q 631 457 631 475 l 631 457 l 631 382 q 613 364 631 364 l 613 364 l 333 364 q 409 214 356 264 q 542 164 463 164 l 542 164 q 743 308 685 164 l 743 308 q 767 321 751 325 l 767 321 l 914 281 q 926 272 922 278 q 926 257 929 265 l 926 257 q 778 55 879 129 q 542 -19 676 -19 l 542 -19 q 272 81 376 -19 q 136 364 167 181 l 136 364 z "},"£":{"ha":883,"x_min":76,"x_max":831,"o":"m 788 0 l 106 0 q 88 18 88 0 l 88 18 l 88 63 q 94 85 88 74 l 94 85 q 169 227 147 165 q 192 361 192 289 l 192 361 q 188 418 192 392 l 188 418 l 94 418 q 76 436 76 418 l 76 436 l 76 539 q 94 557 76 557 l 94 557 l 161 557 q 138 742 138 660 l 138 742 q 179 895 138 828 q 297 1001 221 963 q 471 1039 374 1039 l 471 1039 q 695 968 601 1039 q 829 771 789 897 l 829 771 q 831 764 831 768 l 831 764 q 817 749 831 753 l 817 749 l 675 710 l 669 708 q 653 722 657 708 l 653 722 q 585 822 629 788 q 481 856 540 856 l 481 856 q 372 817 411 856 q 332 701 332 778 l 332 701 q 356 557 332 649 l 356 557 l 582 557 q 600 539 600 557 l 600 539 l 600 436 q 582 418 600 418 l 582 418 l 376 418 q 364 297 376 354 q 321 176 351 239 l 321 176 l 788 176 q 806 158 806 176 l 806 158 l 806 18 q 788 0 806 0 l 788 0 z "},"¥":{"ha":988,"x_min":28,"x_max":963,"o":"m 400 181 l 183 181 q 165 199 165 181 l 165 199 l 165 274 q 183 292 165 292 l 183 292 l 400 292 l 400 381 l 183 381 q 165 399 165 381 l 165 399 l 165 474 q 183 492 165 492 l 183 492 l 336 492 l 31 997 q 28 1007 28 1006 l 28 1007 q 32 1016 28 1013 q 43 1019 36 1019 l 43 1019 l 218 1019 q 239 1007 233 1019 l 239 1007 l 496 557 l 751 1007 q 772 1019 758 1019 l 772 1019 l 944 1019 q 959 1013 956 1019 q 957 997 963 1007 l 957 997 l 650 492 l 806 492 q 824 474 824 492 l 824 474 l 824 399 q 806 381 824 381 l 806 381 l 588 381 l 588 292 l 806 292 q 824 274 824 292 l 824 274 l 824 199 q 806 181 824 181 l 806 181 l 588 181 l 588 18 q 569 0 588 0 l 569 0 l 418 0 q 400 18 400 0 l 400 18 l 400 181 z "},"+":{"ha":833,"x_min":88,"x_max":746,"o":"m 486 124 l 347 124 q 335 129 340 124 q 329 142 329 135 l 329 142 l 329 368 l 106 368 q 93 374 99 368 q 88 386 88 379 l 88 386 l 88 521 q 93 533 88 528 q 106 539 99 539 l 106 539 l 329 539 l 329 765 q 335 778 329 772 q 347 783 340 783 l 347 783 l 486 783 q 499 778 493 783 q 504 765 504 772 l 504 765 l 504 539 l 728 539 q 740 533 735 539 q 746 521 746 528 l 746 521 l 746 386 q 740 374 746 379 q 728 368 735 368 l 728 368 l 504 368 l 504 142 q 499 129 504 135 q 486 124 493 124 l 486 124 z "},"−":{"ha":833,"x_min":88,"x_max":746,"o":"m 728 367 l 106 367 q 93 372 99 367 q 88 385 88 378 l 88 385 l 88 519 q 93 532 88 526 q 106 538 99 538 l 106 538 l 728 538 q 740 532 735 538 q 746 519 746 526 l 746 519 l 746 385 q 740 372 746 378 q 728 367 735 367 l 728 367 z "},"×":{"ha":833,"x_min":108,"x_max":726,"o":"m 200 153 l 115 238 q 111 251 111 242 l 111 251 q 115 265 111 260 l 115 265 l 301 451 l 114 639 q 108 653 108 643 l 108 653 q 114 668 108 663 l 114 668 l 203 758 q 217 764 208 764 l 217 764 q 231 758 226 764 l 231 758 l 419 568 l 606 754 q 621 760 611 760 l 621 760 q 633 756 629 760 l 633 756 l 717 669 q 724 656 724 663 l 724 656 q 717 642 724 649 l 717 642 l 532 457 l 719 268 q 726 254 726 261 l 726 254 q 719 240 726 247 l 719 240 l 631 151 q 617 146 625 146 l 617 146 q 601 151 607 146 l 601 151 l 414 339 l 228 153 q 215 147 224 147 l 215 147 q 200 153 206 147 l 200 153 z "},"÷":{"ha":833,"x_min":88,"x_max":746,"o":"m 417 614 q 340 643 371 614 q 310 718 310 672 l 310 718 q 340 792 310 764 q 417 821 371 821 l 417 821 q 494 792 463 821 q 525 718 525 764 l 525 718 q 494 643 525 672 q 417 614 463 614 l 417 614 z m 728 367 l 106 367 q 93 372 99 367 q 88 385 88 378 l 88 385 l 88 519 q 93 532 88 526 q 106 538 99 538 l 106 538 l 728 538 q 740 532 735 538 q 746 519 746 526 l 746 519 l 746 385 q 740 372 746 378 q 728 367 735 367 l 728 367 z m 417 83 q 340 113 371 83 q 310 189 310 143 l 310 189 q 341 261 310 232 q 417 290 372 290 l 417 290 q 494 261 463 290 q 525 189 525 232 l 525 189 q 494 113 525 143 q 417 83 463 83 l 417 83 z "},"=":{"ha":833,"x_min":88,"x_max":746,"o":"m 728 544 l 106 544 q 93 550 99 544 q 88 563 88 556 l 88 563 l 88 697 q 93 710 88 704 q 106 715 99 715 l 106 715 l 728 715 q 740 710 735 715 q 746 697 746 704 l 746 697 l 746 563 q 740 550 746 556 q 728 544 735 544 l 728 544 z m 728 188 l 106 188 q 93 193 99 188 q 88 206 88 199 l 88 206 l 88 340 q 93 353 88 347 q 106 358 99 358 l 106 358 l 728 358 q 740 353 735 358 q 746 340 746 347 l 746 340 l 746 206 q 740 193 746 199 q 728 188 735 188 l 728 188 z "},">":{"ha":833,"x_min":138,"x_max":736,"o":"m 724 386 l 158 106 q 149 103 150 103 l 149 103 q 138 118 138 103 l 138 118 l 138 267 q 151 289 138 282 l 151 289 l 474 443 l 151 597 q 138 619 138 604 l 138 619 l 138 771 q 143 784 138 781 q 158 783 149 788 l 158 783 l 724 503 q 736 481 736 497 l 736 481 l 736 408 q 724 386 736 393 l 724 386 z "},"<":{"ha":833,"x_min":97,"x_max":696,"o":"m 696 269 l 696 118 q 690 105 696 108 q 675 106 685 101 l 675 106 l 110 386 q 97 408 97 393 l 97 408 l 97 481 q 110 503 97 497 l 110 503 l 675 783 q 685 786 683 786 l 685 786 q 696 771 696 786 l 696 771 l 696 622 q 682 600 696 607 l 682 600 l 360 446 l 682 292 q 696 269 696 285 l 696 269 z "},"~":{"ha":833,"x_min":56,"x_max":779,"o":"m 569 268 q 458 297 501 268 q 367 376 414 325 l 367 376 q 318 422 336 408 q 279 436 300 436 l 279 436 q 208 304 215 436 l 208 304 q 190 286 208 286 l 190 286 l 74 286 q 56 304 56 286 l 56 304 q 113 531 58 451 q 265 611 168 611 l 265 611 q 377 583 333 611 q 468 503 421 554 l 468 503 q 517 457 499 471 q 556 443 535 443 l 556 443 q 626 575 619 443 l 626 575 q 644 593 626 593 l 644 593 l 761 593 q 779 565 779 593 l 779 565 q 720 345 774 422 q 569 268 667 268 l 569 268 z "},"¬":{"ha":833,"x_min":71,"x_max":701,"o":"m 683 157 l 549 157 q 526 175 526 157 l 526 175 l 526 408 l 89 408 q 71 426 71 408 l 71 426 l 71 561 q 89 579 71 579 l 89 579 l 683 579 q 701 561 701 579 l 701 561 l 701 175 q 683 157 701 157 l 683 157 z "},"^":{"ha":833,"x_min":75,"x_max":756,"o":"m 243 478 l 93 478 q 78 484 82 478 q 81 500 75 490 l 81 500 l 358 1007 q 379 1019 365 1019 l 379 1019 l 454 1019 q 475 1007 469 1019 l 475 1007 l 753 500 q 756 490 756 492 l 756 490 q 751 481 756 485 q 740 478 747 478 l 740 478 l 594 478 q 572 490 578 478 l 572 490 l 419 792 l 265 490 q 243 478 260 478 l 243 478 z "},"%":{"ha":1294,"x_min":35,"x_max":1260,"o":"m 282 447 q 101 525 167 447 q 35 740 35 603 l 35 740 q 101 956 35 878 q 282 1033 167 1033 l 282 1033 q 463 956 397 1033 q 529 740 529 878 l 529 740 q 463 525 529 603 q 282 447 397 447 l 282 447 z m 400 0 l 261 0 q 247 6 250 0 q 249 22 243 13 l 249 22 l 886 1007 q 908 1019 894 1019 l 908 1019 l 1047 1019 q 1062 1013 1058 1019 q 1060 997 1065 1007 l 1060 997 l 422 13 q 400 0 414 0 l 400 0 z m 282 572 q 376 740 376 572 l 376 740 q 282 908 376 908 l 282 908 q 188 740 188 908 l 188 740 q 282 572 188 572 l 282 572 z m 1013 -14 q 831 64 897 -14 q 765 279 765 142 l 765 279 q 831 494 765 417 q 1013 572 897 572 l 1013 572 q 1194 494 1128 572 q 1260 279 1260 417 l 1260 279 q 1194 64 1260 142 q 1013 -14 1128 -14 l 1013 -14 z m 1013 111 q 1107 279 1107 111 l 1107 279 q 1013 447 1107 447 l 1013 447 q 918 279 918 447 l 918 279 q 1013 111 918 111 l 1013 111 z "},"‰":{"ha":1851,"x_min":35,"x_max":1817,"o":"m 282 447 q 101 525 167 447 q 35 740 35 603 l 35 740 q 101 956 35 878 q 282 1033 167 1033 l 282 1033 q 463 956 397 1033 q 529 740 529 878 l 529 740 q 463 525 529 603 q 282 447 397 447 l 282 447 z m 400 0 l 261 0 q 247 6 250 0 q 249 22 243 13 l 249 22 l 886 1007 q 908 1019 894 1019 l 908 1019 l 1047 1019 q 1062 1013 1058 1019 q 1060 997 1065 1007 l 1060 997 l 422 13 q 400 0 414 0 l 400 0 z m 282 572 q 376 740 376 572 l 376 740 q 282 908 376 908 l 282 908 q 188 740 188 908 l 188 740 q 282 572 188 572 l 282 572 z m 1013 -14 q 831 64 897 -14 q 765 279 765 142 l 765 279 q 831 494 765 417 q 1013 572 897 572 l 1013 572 q 1194 494 1128 572 q 1260 279 1260 417 l 1260 279 q 1194 64 1260 142 q 1013 -14 1128 -14 l 1013 -14 z m 1569 -14 q 1388 64 1454 -14 q 1322 279 1322 142 l 1322 279 q 1388 494 1322 417 q 1569 572 1454 572 l 1569 572 q 1751 494 1685 572 q 1817 279 1817 417 l 1817 279 q 1751 64 1817 142 q 1569 -14 1685 -14 l 1569 -14 z m 1013 111 q 1107 279 1107 111 l 1107 279 q 1013 447 1107 447 l 1013 447 q 918 279 918 447 l 918 279 q 1013 111 918 111 l 1013 111 z m 1569 111 q 1664 279 1664 111 l 1664 279 q 1569 447 1664 447 l 1569 447 q 1475 279 1475 447 l 1475 279 q 1569 111 1475 111 l 1569 111 z "},"✉":{"ha":1389,"x_min":249,"x_max":1138,"o":"m 1031 106 l 358 106 q 281 137 313 106 q 249 214 249 168 l 249 214 l 249 743 q 281 822 249 789 q 358 854 313 854 l 358 854 l 1031 854 q 1106 822 1075 854 q 1138 743 1138 789 l 1138 743 l 1138 214 q 1106 138 1138 169 q 1031 106 1075 106 l 1031 106 z m 693 419 l 1019 694 q 1031 717 1031 703 l 1031 717 q 1024 733 1031 725 q 1006 742 1018 742 l 1006 742 q 988 735 996 742 l 988 735 l 693 486 l 399 735 q 381 742 389 742 l 381 742 q 362 733 368 742 q 356 717 356 725 l 356 717 q 367 694 356 703 l 367 694 l 693 419 z "},"@":{"ha":1443,"x_min":78,"x_max":1365,"o":"m 715 -311 q 378 -231 522 -311 q 156 -9 233 -151 q 78 315 78 133 l 78 315 q 161 651 78 506 q 393 877 244 797 q 733 957 542 957 l 733 957 q 1068 882 925 957 q 1288 672 1211 807 q 1365 363 1365 538 l 1365 363 q 1330 166 1365 251 q 1232 33 1294 81 q 1088 -14 1169 -14 l 1088 -14 q 968 22 1017 -14 q 907 122 919 58 l 907 122 q 814 23 875 60 q 678 -14 753 -14 l 678 -14 q 517 28 586 -14 q 408 147 447 71 q 369 321 369 222 l 369 321 q 408 495 369 419 q 517 613 447 571 q 678 656 586 656 l 678 656 q 800 626 744 656 q 892 546 856 597 l 892 546 l 894 624 q 913 642 894 642 l 913 642 l 1015 642 q 1033 624 1033 642 l 1033 624 l 1033 229 q 1053 153 1033 178 q 1113 129 1072 129 l 1113 129 q 1185 194 1157 129 q 1213 363 1213 258 l 1213 363 q 1085 699 1213 581 q 733 817 957 817 l 733 817 q 474 761 588 817 q 296 592 361 706 q 231 315 231 479 l 231 315 q 295 47 231 156 q 474 -117 360 -62 q 742 -171 589 -171 l 742 -171 q 900 -157 832 -171 l 900 -157 l 906 -157 q 919 -174 919 -157 l 919 -174 l 919 -272 q 907 -292 919 -290 l 907 -292 q 715 -311 829 -311 l 715 -311 z m 708 132 q 835 185 786 132 q 883 321 883 238 l 883 321 q 835 457 883 404 q 708 510 786 510 l 708 510 q 582 457 631 510 q 533 321 533 404 l 533 321 q 582 185 533 238 q 708 132 631 132 l 708 132 z "},"&":{"ha":1003,"x_min":75,"x_max":963,"o":"m 482 -19 q 265 20 357 -19 q 124 128 172 60 q 75 285 75 197 l 75 285 q 123 443 75 378 q 263 536 171 508 l 263 536 q 145 627 185 568 q 106 764 106 686 l 106 764 q 151 905 106 842 q 276 1003 196 968 q 456 1039 356 1039 l 456 1039 q 681 972 588 1039 q 806 792 774 906 l 806 792 l 807 786 q 792 769 807 774 l 792 769 l 643 739 l 638 738 q 621 751 625 738 l 621 751 q 559 842 601 810 q 456 875 517 875 l 456 875 q 344 835 388 875 q 300 735 300 796 l 300 735 q 335 644 300 679 q 432 608 369 608 l 432 608 l 483 608 q 501 590 501 608 l 501 590 l 501 467 q 483 449 501 449 l 483 449 l 438 449 q 313 410 357 449 q 269 307 269 372 l 269 307 q 324 190 269 235 q 482 144 378 144 l 482 144 q 654 190 599 144 q 710 318 710 236 l 710 318 q 685 407 710 365 q 624 449 661 449 l 624 449 l 614 449 q 604 467 604 449 l 604 467 l 604 590 q 622 608 604 608 l 622 608 l 944 608 q 963 590 963 608 l 963 590 l 963 467 q 944 449 963 449 l 944 449 l 840 449 q 892 294 892 381 l 892 294 q 844 132 892 203 q 703 21 796 61 q 482 -19 611 -19 l 482 -19 z "},"¶":{"ha":867,"x_min":61,"x_max":742,"o":"m 510 -125 l 407 -125 q 389 -107 389 -125 l 389 -107 l 389 314 q 225 362 300 319 q 106 483 150 404 q 61 667 61 561 l 61 667 q 109 857 61 776 q 237 978 157 938 q 411 1019 317 1019 l 411 1019 l 724 1019 q 742 1001 742 1019 l 742 1001 l 742 -107 q 724 -125 742 -125 l 724 -125 l 621 -125 q 603 -107 603 -125 l 603 -107 l 603 892 l 528 892 l 528 -107 q 510 -125 528 -125 l 510 -125 z "},"§":{"ha":740,"x_min":78,"x_max":653,"o":"m 340 -149 q 82 24 135 -149 l 82 24 q 81 31 81 26 l 81 31 q 94 46 81 42 l 94 46 l 217 75 l 222 76 q 240 64 235 76 l 240 64 q 277 17 256 31 q 329 3 299 3 l 329 3 q 391 24 367 3 q 415 76 415 46 l 415 76 q 390 174 415 114 l 390 174 q 365 172 382 172 l 365 172 q 215 207 281 172 q 114 303 150 242 q 78 444 78 365 l 78 444 q 107 573 78 515 q 190 667 136 631 l 190 667 q 152 748 164 711 q 140 824 140 785 l 140 824 q 171 933 140 883 q 257 1010 201 982 q 388 1039 313 1039 l 388 1039 q 646 867 593 1039 l 646 867 q 647 860 647 864 l 647 860 q 633 844 647 849 l 633 844 l 511 815 l 504 814 q 488 826 494 814 l 488 826 q 450 874 471 860 q 399 888 429 888 l 399 888 q 337 866 361 888 q 313 814 313 844 l 313 814 q 339 715 313 772 l 339 715 q 365 717 347 717 l 365 717 q 515 682 450 717 q 617 585 581 647 q 653 444 653 524 l 653 444 q 623 315 653 374 q 539 221 593 257 l 539 221 q 576 142 565 179 q 588 67 588 106 l 588 67 q 557 -42 588 7 q 471 -120 526 -92 q 340 -149 415 -149 l 340 -149 z m 365 308 q 461 346 424 308 q 499 444 499 383 l 499 444 q 461 543 499 506 q 365 581 424 581 l 365 581 q 269 543 307 581 q 232 444 232 506 l 232 444 q 269 346 232 383 q 365 308 307 308 l 365 308 z "},"©":{"ha":1197,"x_min":69,"x_max":1128,"o":"m 599 -19 q 326 48 447 -19 q 138 235 206 115 q 69 510 69 356 l 69 510 q 138 784 69 664 q 326 972 206 904 q 599 1039 447 1039 l 599 1039 q 871 972 750 1039 q 1060 784 992 904 q 1128 510 1128 664 l 1128 510 q 1060 235 1128 356 q 871 48 992 115 q 599 -19 750 -19 l 599 -19 z m 599 78 q 822 133 725 78 q 972 287 918 189 q 1025 510 1025 385 l 1025 510 q 972 733 1025 635 q 822 886 918 831 q 599 942 725 942 l 599 942 q 376 886 472 942 q 226 733 279 831 q 172 510 172 635 l 172 510 q 226 287 172 385 q 376 133 279 189 q 599 78 472 78 l 599 78 z m 603 224 q 455 260 518 224 q 358 361 392 296 q 324 510 324 426 l 324 510 q 358 658 324 593 q 454 760 392 724 q 600 796 517 796 l 600 796 q 753 757 688 796 q 846 640 818 718 l 846 640 q 847 633 847 638 l 847 633 q 833 618 847 622 l 833 618 l 749 594 l 743 593 q 725 606 732 593 l 725 606 q 676 656 707 639 q 607 674 646 674 l 607 674 q 500 627 538 674 q 463 510 463 581 l 463 510 q 501 392 463 439 q 610 346 539 346 l 610 346 q 728 418 694 346 l 728 418 q 750 431 735 435 l 750 431 l 842 406 q 853 397 850 403 q 854 383 857 392 l 854 383 q 757 265 824 306 q 603 224 690 224 l 603 224 z "},"®":{"ha":861,"x_min":69,"x_max":792,"o":"m 431 322 q 244 368 326 322 q 115 497 161 414 q 69 686 69 581 l 69 686 q 115 875 69 792 q 244 1004 161 958 q 431 1050 326 1050 l 431 1050 q 617 1004 535 1050 q 746 875 700 958 q 792 686 792 792 l 792 686 q 746 497 792 581 q 617 368 700 414 q 431 322 535 322 l 431 322 z m 431 397 q 581 435 517 397 q 680 538 646 472 q 714 686 714 604 l 714 686 q 680 834 714 768 q 581 938 646 900 q 431 975 517 975 l 431 975 q 280 938 344 975 q 181 834 215 900 q 147 686 147 768 l 147 686 q 181 538 147 604 q 280 435 215 472 q 431 397 344 397 l 431 397 z m 368 528 l 321 528 q 310 539 310 528 l 310 539 l 310 858 q 321 869 310 869 l 321 869 l 431 869 q 533 840 500 869 q 565 760 565 810 l 565 760 q 499 660 565 685 l 499 660 l 569 542 l 572 535 q 563 528 572 528 l 563 528 l 511 528 q 499 535 503 528 l 499 535 l 431 649 l 379 649 l 379 539 q 368 528 379 528 l 368 528 z m 429 807 l 379 807 l 379 711 l 429 711 q 494 760 494 711 l 494 760 q 429 807 494 807 l 429 807 z "},"™":{"ha":1346,"x_min":28,"x_max":1294,"o":"m 375 458 l 231 458 q 213 476 213 458 l 213 476 l 213 858 l 46 858 q 28 876 28 858 l 28 876 l 28 1001 q 46 1019 28 1019 l 46 1019 l 560 1019 q 578 1001 578 1019 l 578 1001 l 578 876 q 560 858 578 858 l 560 858 l 393 858 l 393 476 q 375 458 393 458 l 375 458 z m 786 458 l 656 458 q 638 476 638 458 l 638 476 l 638 1001 q 656 1019 638 1019 l 656 1019 l 789 1019 q 810 1007 804 1019 l 810 1007 l 968 729 l 1125 1007 q 1146 1019 1132 1019 l 1146 1019 l 1276 1019 q 1294 1001 1294 1019 l 1294 1001 l 1294 476 q 1276 458 1294 458 l 1276 458 l 1146 458 q 1128 476 1128 458 l 1128 476 l 1128 744 l 1032 578 q 1011 565 1026 565 l 1011 565 l 914 565 q 893 578 900 565 l 893 578 l 804 731 l 804 476 q 786 458 804 458 l 786 458 z "},"°":{"ha":594,"x_min":78,"x_max":517,"o":"m 297 622 q 139 680 200 622 q 78 831 78 738 l 78 831 q 139 981 78 924 q 297 1039 200 1039 l 297 1039 q 456 981 394 1039 q 517 831 517 924 l 517 831 q 456 680 517 738 q 297 622 394 622 l 297 622 z m 297 731 q 367 758 340 731 q 394 831 394 785 l 394 831 q 367 903 394 876 q 297 931 340 931 l 297 931 q 227 903 254 931 q 200 831 200 876 l 200 831 q 227 758 200 785 q 297 731 254 731 l 297 731 z "},"|":{"ha":419,"x_min":119,"x_max":300,"o":"m 282 -153 l 138 -153 q 125 -147 131 -153 q 119 -135 119 -142 l 119 -135 l 119 1024 q 125 1036 119 1031 q 138 1042 131 1042 l 138 1042 l 282 1042 q 294 1036 289 1042 q 300 1024 300 1031 l 300 1024 l 300 -135 q 294 -147 300 -142 q 282 -153 289 -153 l 282 -153 z "},"†":{"ha":678,"x_min":63,"x_max":615,"o":"m 411 -125 l 267 -125 q 249 -107 249 -125 l 249 -107 l 249 601 l 81 601 q 63 619 63 601 l 63 619 l 63 744 q 81 763 63 763 l 81 763 l 249 763 l 249 1001 q 267 1019 249 1019 l 267 1019 l 411 1019 q 429 1001 429 1019 l 429 1001 l 429 763 l 597 763 q 615 744 615 763 l 615 744 l 615 619 q 597 601 615 601 l 597 601 l 429 601 l 429 -107 q 411 -125 429 -125 l 411 -125 z "},"‡":{"ha":678,"x_min":63,"x_max":615,"o":"m 249 146 l 81 146 q 63 164 63 146 l 63 164 l 63 289 q 81 307 63 307 l 81 307 l 249 307 l 249 601 l 81 601 q 63 619 63 601 l 63 619 l 63 744 q 81 763 63 763 l 81 763 l 249 763 l 249 1001 q 267 1019 249 1019 l 267 1019 l 411 1019 q 429 1001 429 1019 l 429 1001 l 429 763 l 597 763 q 615 744 615 763 l 615 744 l 615 619 q 597 601 615 601 l 597 601 l 429 601 l 429 307 l 597 307 q 615 289 615 307 l 615 289 l 615 164 q 597 146 615 146 l 597 146 l 429 146 l 429 -107 q 411 -125 429 -125 l 411 -125 l 267 -125 q 249 -107 249 -125 l 249 -107 l 249 146 z "},"🎵":{"ha":1389,"x_min":275,"x_max":1025,"o":"m 404 49 q 313 88 351 49 q 275 179 275 126 l 275 179 q 313 274 275 235 q 404 314 351 314 l 404 314 q 472 296 436 314 l 472 296 l 472 744 q 485 781 472 764 q 517 803 499 797 l 517 803 l 951 918 q 965 919 956 919 l 965 919 q 1007 902 989 919 q 1025 863 1025 885 l 1025 863 l 1025 313 q 986 217 1025 257 q 890 178 947 178 l 890 178 q 798 216 836 178 q 760 313 760 254 l 760 313 q 799 404 760 365 q 890 443 838 443 l 890 443 q 960 425 925 443 l 960 425 l 960 724 l 540 611 l 540 179 q 500 88 540 126 q 404 49 460 49 l 404 49 z "},"👤":{"ha":1389,"x_min":261,"x_max":1129,"o":"m 261 0 l 261 126 q 278 192 261 161 q 324 242 294 224 l 324 242 l 565 392 q 581 422 581 401 l 581 422 q 574 454 581 440 q 567 471 568 468 l 567 471 l 535 531 q 526 547 531 538 q 514 569 521 557 l 514 569 q 481 608 492 583 q 469 658 469 633 l 469 658 q 482 707 469 682 l 482 707 q 545 874 486 810 q 696 938 604 938 l 696 938 q 847 874 788 938 q 908 707 906 810 l 908 707 q 921 658 921 682 l 921 658 q 910 608 921 633 q 876 569 899 583 l 876 569 q 865 547 869 557 q 856 531 860 538 l 856 531 l 824 471 q 810 422 810 440 l 810 422 q 825 392 810 401 l 825 392 l 1067 243 q 1113 193 1096 225 q 1129 126 1129 161 l 1129 126 l 1129 0 l 261 0 z "},"💬":{"ha":1389,"x_min":260,"x_max":1128,"o":"m 485 22 l 453 54 q 319 239 379 128 q 260 475 260 350 l 260 475 q 314 709 260 608 q 467 864 368 810 q 700 918 567 918 l 700 918 q 926 872 829 918 q 1075 740 1022 825 q 1128 539 1128 654 l 1128 539 q 1077 346 1128 435 q 939 205 1026 257 q 749 153 851 153 l 749 153 l 632 153 q 553 126 586 153 q 503 61 521 100 l 503 61 l 485 22 z m 513 467 q 544 481 531 467 q 558 513 558 494 l 558 513 q 545 547 558 533 q 513 560 532 560 l 513 560 q 481 547 493 560 q 468 513 468 533 l 468 513 q 481 481 468 494 q 513 467 494 467 l 513 467 z m 690 467 q 722 481 708 467 q 736 513 736 494 l 736 513 q 722 547 736 533 q 690 560 708 560 l 690 560 q 658 547 671 560 q 646 513 646 533 l 646 513 q 659 481 646 494 q 690 467 672 467 l 690 467 z m 868 467 q 899 481 886 467 q 913 513 913 494 l 913 513 q 899 547 913 533 q 868 560 886 560 l 868 560 q 835 547 847 560 q 822 513 822 533 l 822 513 q 835 481 822 494 q 868 467 849 467 l 868 467 z "},"📞":{"ha":1389,"x_min":236,"x_max":1154,"o":"m 940 19 q 720 83 839 19 q 483 265 601 147 l 483 265 q 303 507 369 379 q 236 732 236 635 l 236 732 q 272 839 236 801 l 272 839 l 342 910 q 411 938 369 938 l 411 938 q 490 903 460 938 l 490 903 l 597 781 q 611 744 611 764 l 611 744 q 592 704 611 724 l 592 704 l 499 608 q 540 526 500 582 q 633 417 581 469 l 633 417 q 742 326 685 365 q 824 283 799 286 l 824 283 l 918 378 q 961 396 936 396 l 961 396 q 1000 381 982 396 l 1000 381 l 1121 272 q 1154 197 1154 243 l 1154 197 q 1126 128 1154 156 l 1126 128 l 1057 57 q 1009 29 1040 39 q 940 19 978 19 l 940 19 z "},"📷":{"ha":1389,"x_min":250,"x_max":1138,"o":"m 1079 81 l 307 81 q 267 98 283 81 q 250 139 250 115 l 250 139 l 250 775 q 267 817 250 800 q 307 835 283 835 l 307 835 l 479 835 l 524 899 q 574 924 540 924 l 574 924 l 813 924 q 838 917 825 924 q 858 900 850 911 l 858 900 l 908 835 l 1079 835 q 1120 817 1103 835 q 1138 775 1138 800 l 1138 775 l 1138 139 q 1120 98 1138 115 q 1079 81 1103 81 l 1079 81 z m 693 267 q 789 292 744 267 q 859 362 833 318 q 885 457 885 406 l 885 457 q 859 554 885 510 q 789 624 833 599 q 693 650 744 650 l 693 650 q 598 624 642 650 q 528 554 554 599 q 503 457 503 510 l 503 457 q 528 362 503 406 q 598 292 554 318 q 693 267 642 267 l 693 267 z m 693 317 q 594 358 636 317 q 551 457 551 400 l 551 457 q 593 557 551 515 q 693 599 635 599 l 693 599 q 793 558 751 599 q 835 457 835 517 l 835 457 q 793 358 835 400 q 693 317 751 317 l 693 317 z "},"🔈":{"ha":1389,"x_min":199,"x_max":1189,"o":"m 785 21 q 760 29 771 21 l 760 29 l 514 268 l 232 268 q 208 277 218 268 q 199 299 199 286 l 199 299 l 199 658 q 208 681 199 672 q 232 690 218 690 l 232 690 l 514 690 l 760 929 q 786 940 771 940 l 786 940 q 808 930 799 940 q 817 904 817 919 l 817 904 l 817 51 q 809 28 817 35 q 785 21 801 21 l 785 21 z m 1022 169 l 988 226 q 1088 333 1051 267 q 1125 475 1125 399 l 1125 475 q 988 722 1125 626 l 988 722 l 1022 778 q 1144 647 1099 729 q 1189 475 1189 565 l 1189 475 q 1145 301 1189 381 q 1022 169 1101 221 l 1022 169 z m 943 297 l 907 353 q 974 481 974 400 l 974 481 q 956 543 974 514 q 907 594 939 572 l 907 594 l 943 650 q 1016 573 993 615 q 1039 474 1039 531 l 1039 474 q 1013 375 1039 422 q 943 297 988 328 l 943 297 z "},"🔍":{"ha":1389,"x_min":240,"x_max":1149,"o":"m 1079 18 l 825 271 q 606 196 732 196 l 606 196 q 423 245 507 196 q 290 378 339 294 q 240 561 240 463 l 240 561 q 290 744 240 660 q 423 877 339 828 q 606 926 507 926 l 606 926 q 790 877 706 926 q 923 744 874 828 q 972 561 972 660 l 972 561 q 896 342 972 438 l 896 342 l 1149 88 l 1079 18 z m 606 296 q 738 331 678 296 q 834 428 799 367 q 869 561 869 489 l 869 561 q 834 694 869 633 q 738 790 799 754 q 606 825 678 825 l 606 825 q 473 790 533 825 q 377 694 413 754 q 342 561 342 633 l 342 561 q 377 428 342 489 q 473 332 413 368 q 606 296 533 296 l 606 296 z "},"🕓":{"ha":1389,"x_min":228,"x_max":1160,"o":"m 693 13 q 460 75 567 13 q 291 244 354 138 q 228 476 228 351 l 228 476 q 291 708 228 601 q 461 878 354 815 q 693 940 568 940 l 693 940 q 926 877 819 940 q 1097 708 1033 814 q 1160 475 1160 601 l 1160 475 q 1097 244 1160 350 q 926 75 1033 138 q 693 13 819 13 l 693 13 z m 668 461 l 842 361 l 865 406 l 718 490 l 718 731 l 668 731 l 668 461 z "},"🛍":{"ha":1389,"x_min":314,"x_max":1074,"o":"m 314 249 l 314 760 q 331 801 314 783 q 371 818 349 818 l 371 818 l 513 818 q 537 910 513 868 q 603 976 561 951 q 693 1000 644 1000 l 693 1000 q 785 976 743 1000 q 851 910 826 951 q 875 818 875 868 l 875 818 l 1015 818 q 1056 801 1039 818 q 1074 760 1074 783 l 1074 760 l 1074 249 l 314 249 z m 578 818 l 810 818 q 776 901 810 867 q 693 935 742 935 l 693 935 q 612 901 646 935 q 578 818 578 867 l 578 818 z m 1015 24 l 371 24 q 331 41 347 24 q 314 83 314 58 l 314 83 l 314 200 l 1074 200 l 1074 83 q 1056 41 1074 58 q 1015 24 1039 24 l 1015 24 z "},"☻":{"ha":1389,"x_min":228,"x_max":1160,"o":"m 693 13 q 460 75 567 13 q 291 244 354 138 q 228 476 228 351 l 228 476 q 291 708 228 601 q 461 878 354 815 q 693 940 568 940 l 693 940 q 926 877 819 940 q 1097 708 1033 814 q 1160 475 1160 601 l 1160 475 q 1097 244 1160 350 q 926 75 1033 138 q 693 13 819 13 l 693 13 z m 550 517 q 584 532 569 517 q 599 568 599 547 l 599 568 q 584 603 599 588 q 550 618 569 618 l 550 618 q 513 603 528 618 q 497 568 497 589 l 497 568 q 513 532 497 547 q 550 517 528 517 l 550 517 z m 840 517 q 877 532 863 517 q 892 568 892 547 l 892 568 q 877 603 892 589 q 840 618 863 618 l 840 618 q 806 603 821 618 q 792 568 792 588 l 792 568 q 806 532 792 547 q 840 517 821 517 l 840 517 z m 694 272 q 801 300 751 272 q 878 376 850 328 l 878 376 q 882 390 882 383 l 882 390 q 868 410 882 404 l 868 410 q 856 413 860 413 l 856 413 q 832 401 839 413 l 832 401 q 776 342 814 364 q 694 321 738 321 l 694 321 q 617 342 653 321 q 557 401 581 364 l 557 401 q 533 413 550 413 l 533 413 q 515 406 522 413 q 508 390 508 400 l 508 390 q 513 376 508 383 l 513 376 q 592 300 544 328 q 694 272 640 272 l 694 272 z "},"":{"ha":1389,"x_min":204,"x_max":1183,"o":"m 963 0 l 425 0 q 315 30 365 0 q 234 110 264 60 q 204 221 204 161 l 204 221 l 204 758 q 234 869 204 818 q 315 949 264 919 q 425 979 365 979 l 425 979 l 963 979 q 1073 949 1022 979 q 1153 869 1124 919 q 1183 758 1183 818 l 1183 758 l 1183 221 q 1153 110 1183 161 q 1073 30 1124 60 q 963 0 1022 0 l 963 0 z m 676 178 q 694 183 681 178 l 694 183 q 817 259 728 197 q 951 372 906 321 l 951 372 q 1021 535 1021 453 l 1021 535 q 977 668 1021 607 q 858 765 933 729 q 694 801 783 801 l 694 801 q 532 765 607 801 q 413 668 457 729 q 368 535 368 607 l 368 535 q 403 415 368 471 q 501 322 439 360 q 640 274 564 285 l 640 274 q 669 258 664 271 l 669 258 q 671 246 671 256 l 671 246 q 669 228 671 232 l 669 228 l 664 192 q 676 178 664 178 l 676 178 z m 572 451 l 481 451 q 475 458 475 451 l 475 458 l 475 600 q 476 605 475 603 q 481 607 478 607 l 481 607 l 504 607 q 508 605 507 607 q 510 600 510 603 l 510 600 l 510 488 l 572 488 q 578 481 578 488 l 578 481 l 578 458 q 572 451 578 451 l 572 451 z m 628 451 l 604 451 q 597 458 597 451 l 597 458 l 597 600 q 599 605 597 603 q 604 607 601 607 l 604 607 l 628 607 q 633 605 631 607 q 635 600 635 603 l 635 600 l 635 458 q 628 451 635 451 l 628 451 z m 686 451 l 663 451 q 657 458 657 451 l 657 458 l 657 600 q 658 605 657 603 q 663 607 660 607 l 663 607 l 685 607 q 692 601 689 607 l 692 601 l 756 515 l 756 600 q 757 605 756 603 q 761 607 758 607 l 761 607 l 786 607 q 790 605 789 607 q 792 600 792 603 l 792 600 l 792 458 q 786 451 792 451 l 786 451 l 763 451 q 756 456 758 451 l 756 456 l 692 542 l 692 458 q 686 451 692 451 l 686 451 z m 911 451 l 821 451 q 814 458 814 451 l 814 458 l 814 600 q 816 605 814 603 q 821 607 818 607 l 821 607 l 911 607 q 916 605 914 607 q 918 600 918 603 l 918 600 l 918 578 q 916 572 918 575 q 911 569 914 569 l 911 569 l 850 569 l 850 546 l 911 546 q 918 540 918 546 l 918 540 l 918 517 q 911 511 918 511 l 911 511 l 850 511 l 850 488 l 911 488 q 918 481 918 488 l 918 481 l 918 458 q 911 451 918 451 l 911 451 z "},"":{"ha":2022,"x_min":225,"x_max":1797,"o":"m 572 204 l 247 204 q 232 210 239 204 q 225 225 225 217 l 225 225 l 225 732 q 232 747 225 742 q 247 753 239 753 l 247 753 l 331 753 q 347 747 340 753 q 353 732 353 742 l 353 732 l 353 331 l 572 331 q 588 324 582 331 q 594 308 594 318 l 594 308 l 594 225 q 588 210 594 215 q 572 204 582 204 l 572 204 z m 768 204 l 686 204 q 671 210 676 204 q 665 225 665 215 l 665 225 l 665 732 q 671 747 665 742 q 686 753 676 753 l 686 753 l 768 753 q 784 747 778 753 q 790 732 790 742 l 790 732 l 790 225 q 784 210 790 215 q 768 204 778 204 l 768 204 z m 974 204 l 892 204 q 876 210 882 204 q 869 225 869 215 l 869 225 l 869 732 q 876 747 869 742 q 892 753 882 753 l 892 753 l 971 753 q 996 740 988 753 l 996 740 l 1222 431 l 1222 732 q 1228 747 1222 742 q 1243 753 1235 753 l 1243 753 l 1328 753 q 1343 747 1336 753 q 1350 732 1350 742 l 1350 732 l 1350 225 q 1343 210 1350 217 q 1328 204 1336 204 l 1328 204 l 1246 204 q 1221 217 1229 204 l 1221 217 l 994 526 l 994 225 q 989 210 994 215 q 974 204 983 204 l 974 204 z m 1775 204 l 1450 204 q 1435 210 1442 204 q 1428 225 1428 217 l 1428 225 l 1428 732 q 1435 747 1428 742 q 1450 753 1442 753 l 1450 753 l 1775 753 q 1790 747 1783 753 q 1797 732 1797 742 l 1797 732 l 1797 649 q 1790 634 1797 640 q 1775 628 1783 628 l 1775 628 l 1553 628 l 1553 542 l 1775 542 q 1790 535 1783 542 q 1797 521 1797 529 l 1797 521 l 1797 436 q 1790 422 1797 428 q 1775 415 1783 415 l 1775 415 l 1553 415 l 1553 331 l 1775 331 q 1790 324 1783 331 q 1797 308 1797 318 l 1797 308 l 1797 225 q 1790 210 1797 217 q 1775 204 1783 204 l 1775 204 z "},"":{"ha":1553,"x_min":69,"x_max":1483,"o":"m 246 308 q 119 358 168 308 q 69 486 69 407 l 69 486 q 119 613 69 564 q 246 663 168 663 l 246 663 q 374 613 324 663 q 424 486 424 564 l 424 486 q 374 358 424 407 q 246 308 324 308 l 246 308 z m 779 329 l 575 329 q 569 335 569 329 l 569 335 l 569 636 q 575 643 569 643 l 575 643 l 622 643 q 628 636 628 643 l 628 636 l 628 385 l 779 385 q 783 379 783 385 l 783 379 l 783 335 q 779 329 783 329 l 779 329 z m 874 329 l 828 329 q 822 335 822 329 l 822 335 l 822 636 q 828 643 822 643 l 828 643 l 874 643 q 879 636 879 643 l 879 636 l 879 335 q 874 329 879 329 l 874 329 z m 996 329 l 951 329 q 946 335 946 329 l 946 335 l 946 636 q 951 643 946 643 l 951 643 l 1000 643 q 1007 639 1004 643 l 1007 639 l 1147 424 l 1147 636 q 1153 643 1147 643 l 1153 643 l 1196 643 q 1201 636 1201 643 l 1201 636 l 1201 335 q 1196 329 1201 329 l 1196 329 l 1149 329 q 1142 333 1144 329 l 1142 333 l 1001 550 l 1001 335 q 996 329 1001 329 l 996 329 z m 1476 329 l 1274 329 q 1268 335 1268 329 l 1268 335 l 1268 636 q 1274 643 1268 643 l 1274 643 l 1472 643 q 1478 636 1478 643 l 1478 636 l 1478 593 q 1472 588 1478 588 l 1472 588 l 1325 588 l 1325 517 l 1458 517 q 1463 511 1463 517 l 1463 511 l 1463 468 q 1458 464 1463 464 l 1458 464 l 1325 464 l 1325 383 l 1476 383 q 1483 378 1483 383 l 1483 378 l 1483 335 q 1476 329 1483 329 l 1476 329 z m 246 340 q 349 381 310 340 q 389 486 389 422 l 389 486 q 349 590 389 549 q 246 631 310 631 l 246 631 q 142 590 182 631 q 103 486 103 549 l 103 486 q 142 381 103 422 q 246 340 182 340 l 246 340 z m 247 390 q 179 417 204 390 q 154 486 154 443 l 154 486 q 179 554 154 528 q 246 581 204 581 l 246 581 q 329 529 311 581 l 329 529 q 325 522 331 525 l 325 522 l 296 514 q 288 518 292 513 l 288 518 q 271 535 279 531 q 249 540 263 540 l 249 540 q 213 525 225 540 q 200 486 200 510 l 200 486 q 213 447 200 463 q 250 431 226 431 l 250 431 q 274 437 264 431 q 289 454 285 443 l 289 454 q 296 458 290 460 l 296 458 l 328 450 q 332 443 333 449 l 332 443 q 300 403 324 417 q 247 390 276 390 l 247 390 z "},"ﬄ":{"ha":1376,"x_min":19,"x_max":1282,"o":"m 308 0 l 164 0 q 146 18 146 0 l 146 18 l 146 558 l 38 558 q 19 576 19 558 l 19 576 l 19 701 q 38 719 19 719 l 38 719 l 146 719 l 146 765 q 180 916 146 851 q 274 1016 214 981 q 413 1051 335 1051 l 413 1051 q 604 989 517 1051 l 604 989 q 610 964 617 979 l 610 964 l 564 861 q 554 851 561 853 q 539 853 547 849 l 539 853 q 481 880 507 872 q 426 888 456 888 l 426 888 q 351 858 375 888 q 326 768 326 829 l 326 768 l 326 719 l 624 719 l 624 765 q 692 974 624 896 q 876 1051 761 1051 l 876 1051 q 1051 989 982 1051 l 1051 989 q 1057 975 1057 983 l 1057 975 q 1054 964 1057 968 l 1054 964 l 992 867 q 978 857 988 857 l 978 857 q 967 863 975 857 l 967 863 q 930 882 947 876 q 890 888 913 888 l 890 888 q 826 857 849 888 q 804 768 804 826 l 804 768 l 804 719 l 985 719 q 1003 701 1003 719 l 1003 701 l 1003 576 q 985 558 1003 558 l 985 558 l 804 558 l 804 18 q 786 0 804 0 l 786 0 l 642 0 q 624 18 624 0 l 624 18 l 624 558 l 326 558 l 326 18 q 308 0 326 0 l 308 0 z m 1264 0 l 1119 0 q 1101 18 1101 0 l 1101 18 l 1101 1024 q 1119 1042 1101 1042 l 1119 1042 l 1264 1042 q 1282 1024 1282 1042 l 1282 1024 l 1282 18 q 1264 0 1282 0 l 1264 0 z "},"ﬃ":{"ha":1378,"x_min":19,"x_max":1299,"o":"m 308 0 l 164 0 q 146 18 146 0 l 146 18 l 146 558 l 38 558 q 19 576 19 558 l 19 576 l 19 701 q 38 719 19 719 l 38 719 l 146 719 l 146 765 q 180 916 146 851 q 275 1016 214 981 q 413 1051 336 1051 l 413 1051 q 604 989 517 1051 l 604 989 q 610 964 617 979 l 610 964 l 564 861 q 554 851 561 853 q 539 853 547 849 l 539 853 q 481 880 507 872 q 426 888 456 888 l 426 888 q 351 858 375 888 q 326 768 326 829 l 326 768 l 326 719 l 624 719 l 624 765 q 692 974 624 896 q 876 1051 761 1051 l 876 1051 q 1051 989 982 1051 l 1051 989 q 1057 975 1057 983 l 1057 975 q 1054 964 1057 968 l 1054 964 l 992 867 q 978 857 988 857 l 978 857 q 967 863 975 857 l 967 863 q 930 882 947 876 q 890 888 913 888 l 890 888 q 826 857 849 888 q 804 768 804 826 l 804 768 l 804 719 l 1264 719 q 1282 701 1282 719 l 1282 701 l 1282 18 q 1264 0 1282 0 l 1264 0 l 1119 0 q 1101 18 1101 0 l 1101 18 l 1101 558 l 804 558 l 804 18 q 786 0 804 0 l 786 0 l 642 0 q 624 18 624 0 l 624 18 l 624 558 l 326 558 l 326 18 q 308 0 326 0 l 308 0 z m 1192 824 q 1115 853 1146 824 q 1085 928 1085 882 l 1085 928 q 1115 1003 1085 974 q 1192 1032 1146 1032 l 1192 1032 q 1268 1003 1238 1032 q 1299 928 1299 974 l 1299 928 q 1268 853 1299 882 q 1192 824 1238 824 l 1192 824 z "},"ﬀ":{"ha":1044,"x_min":19,"x_max":1121,"o":"m 308 0 l 164 0 q 146 18 146 0 l 146 18 l 146 558 l 38 558 q 19 576 19 558 l 19 576 l 19 701 q 38 719 19 719 l 38 719 l 146 719 l 146 765 q 180 916 146 851 q 274 1016 214 981 q 413 1051 335 1051 l 413 1051 q 604 989 517 1051 l 604 989 q 610 964 617 979 l 610 964 l 564 861 q 554 851 561 853 q 539 853 547 849 l 539 853 q 481 880 507 872 q 426 888 456 888 l 426 888 q 351 858 375 888 q 326 768 326 829 l 326 768 l 326 719 l 624 719 l 624 765 q 692 974 624 896 q 876 1051 761 1051 l 876 1051 q 1119 899 1046 1051 l 1119 899 q 1121 890 1121 896 l 1121 890 q 1110 875 1121 879 l 1110 875 l 997 828 q 989 826 994 826 l 989 826 q 974 836 979 826 l 974 836 q 939 876 958 864 q 890 888 919 888 l 890 888 q 826 857 847 888 q 804 768 804 826 l 804 768 l 804 719 l 985 719 q 1003 701 1003 719 l 1003 701 l 1003 576 q 985 558 1003 558 l 985 558 l 804 558 l 804 18 q 786 0 804 0 l 786 0 l 642 0 q 624 18 624 0 l 624 18 l 624 558 l 326 558 l 326 18 q 308 0 326 0 l 308 0 z "}}}
